<svg width="101" height="66" viewBox="0 0 101 66" fill="none" xmlns="http://www.w3.org/2000/svg">
<path d="M22.6756 18.0838L22.0831 14.6634C21.9211 13.8673 21.1343 13.3582 20.3429 13.5479L16.057 14.5754C15.2609 14.7652 14.7842 15.5844 15.0156 16.3712L15.3072 17.3802C15.446 17.8662 15.8348 18.2411 16.3208 18.3707L19.0469 19.0835C19.4357 19.1853 19.7643 19.4491 19.9541 19.8055L21.0371 21.8605" fill="white"/>
<path d="M22.6756 18.0838L22.0831 14.6634C21.9211 13.8673 21.1343 13.3582 20.3429 13.5479L16.057 14.5754C15.2609 14.7652 14.7842 15.5844 15.0156 16.3712L15.3072 17.3802C15.446 17.8662 15.8348 18.2411 16.3208 18.3707L19.0469 19.0835C19.4357 19.1853 19.7643 19.4491 19.9541 19.8055L21.0371 21.8605" stroke="#151618" stroke-width="1.5" stroke-linecap="round" stroke-linejoin="round"/>
<path d="M90.3154 19.4303L91.2735 14.9547C91.3615 14.1447 92.1066 13.5754 92.912 13.6957L97.2719 14.3484C98.0819 14.4687 98.628 15.2416 98.466 16.047L98.2624 17.0791C98.1652 17.5743 97.8134 17.9816 97.3367 18.1529L94.68 19.1017C94.3005 19.2359 93.995 19.5275 93.8376 19.8978L93.2591 21.2447" fill="white"/>
<path d="M90.3154 19.4303L91.2735 14.9547C91.3615 14.1447 92.1066 13.5754 92.912 13.6957L97.2719 14.3484C98.0819 14.4687 98.628 15.2416 98.466 16.047L98.2624 17.0791C98.1652 17.5743 97.8134 17.9816 97.3367 18.1529L94.68 19.1017C94.3005 19.2359 93.995 19.5275 93.8376 19.8978L93.2591 21.2447" stroke="#151618" stroke-width="1.5" stroke-linecap="round" stroke-linejoin="round"/>
<path d="M99.4681 30.9227C98.871 23.2349 97.9453 22.3093 93.7242 22.0778H92.6829C91.697 22.0778 90.7759 21.5641 90.2761 20.7125C87.5592 16.0794 84.3934 8.42406 80.5472 4.28627C79.3207 2.96255 77.6452 2.13406 75.8494 1.96744C61.3301 0.634461 48.2317 0.662231 35.1379 2.15258C34.925 2.17572 34.7168 2.21737 34.5177 2.29143C28.6813 4.38809 25.6636 13.2098 21.7989 20.6477C21.3407 21.5317 20.4474 22.101 19.4523 22.1519L18.596 22.1936C15.5598 22.3046 13.6066 22.2722 13.4261 30.3534C13.2456 38.504 12.7828 42.2068 13.4261 51.0933C13.7085 54.7034 20.6511 54.2406 20.6511 54.2406V62.743C20.6511 63.9278 21.9378 64.8859 23.5207 64.8859H32.5877C34.1752 64.8859 35.4573 63.9278 35.4573 62.743V55.194C41.3678 55.3375 48.0095 55.3098 54.7855 55.2033C62.6353 55.2311 71.3228 55.4255 78.9643 55.3051V62.7476C78.9643 63.9325 80.251 64.8905 81.8339 64.8905H90.9009C92.4885 64.8905 93.7705 63.9325 93.7705 62.7476V54.2452H93.7428C95.9598 53.8472 97.6908 53.3057 98.7414 52.579C99.4496 52.0884 99.8615 51.2784 99.8893 50.4175C100.176 42.3456 99.8615 36.0926 99.4588 30.9227H99.4681Z" fill="white" stroke="#151618" stroke-width="1.5" stroke-linecap="round" stroke-linejoin="round"/>
<path d="M21.3496 22.0776H93.5527" stroke="#151618" stroke-width="1.5" stroke-linecap="round" stroke-linejoin="round"/>
<path d="M76.1953 34.343L90.5434 30.1775C90.5434 30.1775 91.9319 32.9545 90.5434 36.6572L84.9893 38.5086" stroke="#151618" stroke-width="1.5" stroke-linecap="round" stroke-linejoin="round"/>
<path d="M37.4671 34.343L23.1191 30.1775C23.1191 30.1775 21.7306 32.9545 23.1191 36.6572L28.6732 38.5086" stroke="#151618" stroke-width="1.5" stroke-linecap="round" stroke-linejoin="round"/>
<path d="M70.1775 42.2114H41.4814V47.7655H70.1775V42.2114Z" fill="white" stroke="#151618" stroke-width="1.5" stroke-linecap="round" stroke-linejoin="round"/>
<path d="M21.5801 32.8065C35.8818 34.2089 44.5786 35.329 43.4539 37.8561" stroke="#151618" stroke-width="1.5" stroke-miterlimit="10" stroke-linecap="round"/>
<path d="M35.4951 30.5772L9.93664 21.8664C9.17449 21.6067 8.34607 22.014 8.08631 22.7761L2.69919 38.5826C2.43944 39.3447 2.84671 40.1732 3.60887 40.4329L29.1673 49.1437C29.9295 49.4034 30.7579 48.9962 31.0177 48.234L36.4048 32.4275C36.6645 31.6654 36.2573 30.837 35.4951 30.5772Z" fill="white" stroke="#5B7DEC" stroke-width="1.5" stroke-miterlimit="10"/>
<path d="M35.0807 36.1524L6.7666 26.5024L5.53927 30.1036L33.8534 39.7535L35.0807 36.1524Z" fill="#DCE4FF" stroke="#5B7DEC" stroke-width="1.5" stroke-miterlimit="10"/>
<path d="M42.9053 37.0132H2.78634C2.1703 37.0132 1.6709 37.5126 1.6709 38.1286V63.6635C1.6709 64.2796 2.1703 64.779 2.78634 64.779H42.9053C43.5214 64.779 44.0208 64.2796 44.0208 63.6635V38.1286C44.0208 37.5126 43.5214 37.0132 42.9053 37.0132Z" fill="white" stroke="#151618" stroke-width="1.5" stroke-miterlimit="10" stroke-linecap="round"/>
<path d="M8.54075 52.4363C9.70126 52.4363 10.642 51.4956 10.642 50.3351C10.642 49.1745 9.70126 48.2338 8.54075 48.2338C7.38023 48.2338 6.43945 49.1745 6.43945 50.3351C6.43945 51.4956 7.38023 52.4363 8.54075 52.4363Z" stroke="#151618" stroke-width="1.5" stroke-miterlimit="10" stroke-linecap="round"/>
<path d="M45.8749 6.80398C66.2398 8.1925 78.1719 14.1076 89.3818 20.6892C87.2667 16.5699 82.6984 7.63246 79.9677 4.69343C78.7689 3.40211 77.1351 2.59214 75.3763 2.43014C61.1903 1.12956 48.3927 1.15733 35.5952 2.61065C35.3869 2.63379 35.1833 2.67545 34.9889 2.74487C32.6932 3.56873 30.8465 5.45712 29.208 7.89628C34.8732 6.67901 39.7284 6.38742 45.8702 6.80861L45.8749 6.80398Z" fill="#DCE4FF"/>
</svg>
