<svg width="105" height="73" viewBox="0 0 105 73" fill="none" xmlns="http://www.w3.org/2000/svg">
<path d="M26.5915 18.0056L26.0018 14.6008C25.8405 13.8084 25.0573 13.3016 24.2694 13.4905L20.0031 14.5133C19.2107 14.7022 18.7361 15.5177 18.9665 16.3009L19.2567 17.3053C19.395 17.7891 19.782 18.1622 20.2657 18.2913L22.9794 19.0008C23.3664 19.1021 23.6935 19.3647 23.8824 19.7195L24.9605 21.7651" fill="white"/>
<path d="M26.5915 18.0056L26.0018 14.6008C25.8405 13.8084 25.0573 13.3016 24.2694 13.4905L20.0031 14.5133C19.2107 14.7022 18.7361 15.5177 18.9665 16.3009L19.2567 17.3053C19.395 17.7891 19.782 18.1622 20.2657 18.2913L22.9794 19.0008C23.3664 19.1021 23.6935 19.3647 23.8824 19.7195L24.9605 21.7651" stroke="#151618" stroke-width="1.5" stroke-linecap="round" stroke-linejoin="round"/>
<path d="M93.9189 19.3463L94.8727 14.8911C94.9602 14.0848 95.702 13.5181 96.5036 13.6379L100.844 14.2876C101.65 14.4073 102.194 15.1768 102.032 15.9784L101.83 17.0058C101.733 17.4988 101.383 17.9043 100.908 18.0747L98.2636 19.0192C97.8858 19.1528 97.5817 19.4431 97.4251 19.8117L96.8492 21.1524" fill="white"/>
<path d="M93.9189 19.3463L94.8727 14.8911C94.9602 14.0848 95.702 13.5181 96.5036 13.6379L100.844 14.2876C101.65 14.4073 102.194 15.1768 102.032 15.9784L101.83 17.0058C101.733 17.4988 101.383 17.9043 100.908 18.0747L98.2636 19.0192C97.8858 19.1528 97.5817 19.4431 97.4251 19.8117L96.8492 21.1524" stroke="#151618" stroke-width="1.5" stroke-linecap="round" stroke-linejoin="round"/>
<path d="M103.031 30.7863C102.436 23.1336 101.515 22.2122 97.313 21.9818H96.2763C95.295 21.9818 94.3781 21.4704 93.8805 20.6227C91.1761 16.0108 88.0247 8.39039 84.1961 4.2715C82.9752 2.95382 81.3073 2.12913 79.5197 1.96326C65.0668 0.636374 52.0282 0.664017 38.9943 2.14755C38.7824 2.17059 38.575 2.21206 38.3769 2.28577C32.5672 4.37286 29.5632 13.1543 25.7162 20.5582C25.2601 21.4381 24.3709 22.0048 23.3803 22.0555L22.528 22.097C19.5056 22.2076 17.5613 22.1753 17.3816 30.2196C17.202 38.333 16.7412 42.0188 17.3816 50.8647C17.6627 54.4584 24.5736 53.9976 24.5736 53.9976V62.4612C24.5736 63.6406 25.8544 64.5943 27.4301 64.5943H36.4557C38.036 64.5943 39.3122 63.6406 39.3122 62.4612V54.9467C45.1957 55.0896 51.8071 55.0619 58.5521 54.9559C66.366 54.9836 75.0138 55.1771 82.6204 55.0573V62.4658C82.6204 63.6452 83.9012 64.5989 85.4769 64.5989H94.5025C96.0828 64.5989 97.359 63.6452 97.359 62.4658V54.0022H97.3314C99.5383 53.606 101.261 53.067 102.307 52.3436C103.012 51.8553 103.422 51.049 103.45 50.192C103.735 42.157 103.422 35.9326 103.021 30.7863H103.031Z" fill="white" stroke="#151618" stroke-width="1.5" stroke-linecap="round" stroke-linejoin="round"/>
<path d="M25.2676 21.9816H97.1408" stroke="#151618" stroke-width="1.5" stroke-linecap="round" stroke-linejoin="round"/>
<path d="M79.8623 34.1911L94.1448 30.0446C94.1448 30.0446 95.527 32.8089 94.1448 36.4947L88.6161 38.3376" stroke="#151618" stroke-width="1.5" stroke-linecap="round" stroke-linejoin="round"/>
<path d="M41.3148 32.8088L27.0323 28.6622C27.0323 28.6622 25.6501 31.4266 27.0323 35.1124L32.561 36.9553" stroke="#151618" stroke-width="1.5" stroke-linecap="round" stroke-linejoin="round"/>
<path d="M49.6835 6.77773C69.9554 8.15991 81.833 14.048 92.9917 20.5995C90.8862 16.499 86.3389 7.60243 83.6206 4.67683C82.4273 3.3914 80.8009 2.58513 79.0502 2.42388C64.9289 1.12924 52.1899 1.15688 39.4508 2.60356C39.2435 2.6266 39.0407 2.66806 38.8472 2.73717C36.562 3.55726 34.7237 5.43702 33.0928 7.86505C38.7321 6.65334 43.5651 6.36308 49.6789 6.78234L49.6835 6.77773Z" fill="#DCE4FF"/>
<path d="M19.6182 71.0399L2 57.6881L24.4051 28.3859L40.6088 26.2113L43.5759 41.1619L19.6182 71.0399Z" fill="white" stroke="#5B7DEC" stroke-width="1.5" stroke-miterlimit="10"/>
<path d="M36.2765 33.6474C37.1772 33.6474 37.9074 32.9172 37.9074 32.0165C37.9074 31.1157 37.1772 30.3855 36.2765 30.3855C35.3757 30.3855 34.6455 31.1157 34.6455 32.0165C34.6455 32.9172 35.3757 33.6474 36.2765 33.6474Z" stroke="#5B7DEC" stroke-width="1.5" stroke-miterlimit="10"/>
<path d="M36.432 32.1635C33.1654 24.4464 43.5548 20.2906 46.5219 27.7129" stroke="#5B7DEC" stroke-width="1.5" stroke-linecap="round" stroke-linejoin="round"/>
<path d="M74.7945 42.0234H46.2295V47.5521H74.7945V42.0234Z" fill="white" stroke="#151618" stroke-width="1.5" stroke-linecap="round" stroke-linejoin="round"/>
<path d="M19.106 50.109C18.6776 50.6342 18.157 50.906 17.5442 50.9106C16.9729 50.9106 16.42 50.7033 15.8902 50.2702C15.5216 49.9707 15.3235 49.4916 15.3005 48.8374C15.282 48.2062 15.4202 47.7086 15.7243 47.3354C16.1666 46.7917 16.7011 46.5015 17.3276 46.4692C17.9266 46.4462 18.5025 46.6535 19.0554 47.105C19.5161 47.4782 19.728 47.9712 19.7004 48.584C19.682 49.1368 19.4838 49.6436 19.106 50.109ZM16.6596 48.1232C16.5168 48.2983 16.4431 48.5056 16.4338 48.7452C16.4246 49.0078 16.4983 49.2013 16.655 49.3257C16.9545 49.5699 17.2309 49.6943 17.4843 49.6943C17.7377 49.6943 17.9588 49.5745 18.157 49.3349C18.3228 49.1322 18.4288 48.9111 18.4702 48.6715C18.5163 48.3997 18.4564 48.1923 18.2813 48.0495C17.9634 47.7915 17.6732 47.6717 17.4014 47.6809C17.1341 47.6948 16.8853 47.8376 16.6596 48.1186V48.1232ZM20.3224 43.6818C20.4329 44.0043 20.6126 44.396 20.8568 44.8567L21.4465 45.9993L22.9393 49.0677L24.5795 52.5001C24.773 52.8503 25.0494 53.3893 25.3996 54.1127C25.5147 54.3799 25.5009 54.601 25.3535 54.7807C25.2521 54.9051 25.1185 54.9788 24.948 55.0111C24.7776 55.0387 24.6301 55.0019 24.4965 54.8913C24.4413 54.8452 24.386 54.7853 24.3399 54.707C23.9805 54.1127 23.5567 53.2741 23.0729 52.196C22.497 50.9244 22.1008 50.0767 21.8704 49.6482L19.7188 45.3727C19.3825 44.7645 19.1936 44.2992 19.1429 43.9767C19.1107 43.7556 19.1429 43.5851 19.2443 43.4607C19.3502 43.3317 19.4884 43.258 19.6681 43.2349C19.8432 43.2119 19.9999 43.2534 20.1243 43.3593C20.2072 43.4284 20.2717 43.5344 20.3224 43.6911V43.6818ZM28.8412 50.3531C28.4265 50.8646 27.9289 51.1686 27.3484 51.2608C26.7403 51.3529 26.1828 51.1917 25.6668 50.777C25.1093 50.3255 24.7776 49.7911 24.667 49.1783C24.5426 48.5287 24.7085 47.9297 25.1508 47.3815C25.5654 46.8701 26.0722 46.5383 26.6712 46.3863C27.3346 46.2204 27.9197 46.3402 28.4219 46.7503C28.9978 47.2202 29.3296 47.7915 29.4125 48.4734C29.4954 49.1553 29.3065 49.7818 28.8366 50.3578L28.8412 50.3531ZM26.1045 48.1509C25.8833 48.4227 25.8142 48.7176 25.8925 49.0355C25.9663 49.3257 26.1505 49.5929 26.4408 49.8279C26.6942 50.0306 26.9522 50.1044 27.2102 50.0445C27.4728 49.9846 27.7354 49.7911 27.9981 49.4639C28.2422 49.1645 28.3344 48.865 28.2791 48.5701C28.2192 48.2753 28.0119 47.985 27.6571 47.6948C27.4406 47.5197 27.1641 47.4874 26.837 47.6072C26.556 47.7178 26.3118 47.8975 26.1091 48.1509H26.1045Z" fill="#151618"/>
</svg>
