<svg width="55" height="46" viewBox="0 0 55 46" fill="none" xmlns="http://www.w3.org/2000/svg">
<g clip-path="url(#clip0_10379_32661)">
<path d="M46.012 9.90006C44.772 3.51006 40.192 0.310059 34.722 0.310059C28.292 0.310059 23.082 4.70006 23.082 13.5301C23.082 19.6901 24.812 23.3001 28.442 25.9601C24.852 16.8601 37.822 3.19006 46.012 9.91006V9.90006Z" fill="#DCE4FF"/>
<path d="M46.1823 14.0198C46.1823 22.8398 39.8723 29.9998 34.5423 29.9998C30.0023 29.9998 22.9023 22.8498 22.9023 14.0198C22.9023 5.18981 28.1223 0.799805 34.5523 0.799805C40.9823 0.799805 46.1923 5.18981 46.1923 14.0198H46.1823Z" stroke="#151618" stroke-width="1.5" stroke-linecap="round" stroke-linejoin="round"/>
<path d="M41.2416 29.2803C38.1216 33.4503 34.5516 36.1103 34.5516 36.1103C34.5516 36.1103 30.9816 33.4503 27.8616 29.2803C20.4116 32.8803 15.1016 41.1003 15.1016 41.1003C15.1016 41.1003 23.8116 44.5903 34.5616 44.5903C45.3116 44.5903 54.0216 41.1003 54.0216 41.1003C54.0216 41.1003 48.7016 32.8803 41.2616 29.2803H41.2416Z" stroke="#151618" stroke-width="1.5" stroke-linecap="round" stroke-linejoin="round"/>
<path d="M5.58984 17.3803C5.58984 22.7903 9.45984 27.1703 12.7198 27.1703C15.4998 27.1703 19.8498 22.7903 19.8498 17.3803C19.8498 11.9703 16.6598 9.28027 12.7198 9.28027C8.77984 9.28027 5.58984 11.9703 5.58984 17.3803Z" stroke="#151618" stroke-width="1.5" stroke-linecap="round" stroke-linejoin="round"/>
<path d="M21.5508 30.2405C20.2708 28.9505 18.6508 27.6205 16.8208 26.7305C14.9108 29.2805 12.7208 30.9105 12.7208 30.9105C12.7208 30.9105 10.5308 29.2805 8.62078 26.7305C4.06078 28.9305 0.800781 33.9705 0.800781 33.9705C0.800781 33.9705 6.14078 36.1105 12.7208 36.1105C14.0208 36.1105 15.2708 36.0305 16.4408 35.8905C16.4408 35.8905 19.4308 32.3105 21.5508 30.2405Z" stroke="#151618" stroke-width="1.5" stroke-linecap="round" stroke-linejoin="round"/>
</g>
<defs>
<clipPath id="clip0_10379_32661">
<rect width="54.8" height="45.39" fill="white"/>
</clipPath>
</defs>
</svg>
