<svg width="96" height="82" viewBox="0 0 96 82" fill="none" xmlns="http://www.w3.org/2000/svg">
<path d="M13.6905 17.6751C9.3381 17.6751 5.09484 17.5101 1 17.2067V20.4433C1 20.7893 1.30122 21.0768 1.66792 21.0768H63.3C63.6711 21.0768 63.968 20.7946 63.968 20.4433V8.30066C52.9625 13.9647 34.5489 17.6751 13.6905 17.6751Z" fill="#DCE4FF"/>
<path d="M64.8809 77.8137V8.14356C64.8809 7.72631 64.5947 7.38806 64.2418 7.38806L1.63938 7.38806C1.28643 7.38806 1.00032 7.72631 1.00032 8.14356L1.00032 77.8137C1.00032 78.231 1.28643 78.5692 1.63938 78.5692H64.2418C64.5947 78.5692 64.8809 78.231 64.8809 77.8137Z" stroke="#151618" stroke-width="1.5" stroke-linecap="round" stroke-linejoin="round"/>
<path d="M22.4457 1H16.0576V11.951H22.4457V1Z" fill="white" stroke="#151618" stroke-width="1.5" stroke-linecap="round" stroke-linejoin="round"/>
<path d="M49.8246 60.3179H43.4365V66.7059H49.8246V60.3179Z" fill="white" stroke="#151618" stroke-width="1.5" stroke-linecap="round" stroke-linejoin="round"/>
<path d="M22.4476 32.9406H16.0596V39.3286H22.4476V32.9406Z" fill="white" stroke="#151618" stroke-width="1.5" stroke-linecap="round" stroke-linejoin="round"/>
<path d="M36.1361 32.9406H29.748V39.3286H36.1361V32.9406Z" fill="white" stroke="#151618" stroke-width="1.5" stroke-linecap="round" stroke-linejoin="round"/>
<path d="M49.8246 32.9406H43.4365V39.3286H49.8246V32.9406Z" fill="white" stroke="#151618" stroke-width="1.5" stroke-linecap="round" stroke-linejoin="round"/>
<path d="M22.4476 46.6293H16.0596V53.0173H22.4476V46.6293Z" fill="white" stroke="#151618" stroke-width="1.5" stroke-linecap="round" stroke-linejoin="round"/>
<path d="M36.1361 46.6293H29.748V53.0173H36.1361V46.6293Z" fill="white" stroke="#151618" stroke-width="1.5" stroke-linecap="round" stroke-linejoin="round"/>
<path d="M49.8246 46.6293H43.4365V53.0173H49.8246V46.6293Z" fill="white" stroke="#151618" stroke-width="1.5" stroke-linecap="round" stroke-linejoin="round"/>
<path d="M22.4476 60.3179H16.0596V66.7059H22.4476V60.3179Z" fill="white" stroke="#151618" stroke-width="1.5" stroke-linecap="round" stroke-linejoin="round"/>
<path d="M36.1361 60.3179H29.748V66.7059H36.1361V60.3179Z" fill="white" stroke="#151618" stroke-width="1.5" stroke-linecap="round" stroke-linejoin="round"/>
<path d="M1 21.0768H64.8805" stroke="#151618" stroke-width="1.5" stroke-linecap="round" stroke-linejoin="round"/>
<path d="M49.8226 1H43.4346V11.951H49.8226V1Z" fill="white" stroke="#151618" stroke-width="1.5" stroke-linecap="round" stroke-linejoin="round"/>
<path d="M72.998 23.3755L46.0096 67.0393C45.8479 67.3009 45.9289 67.6442 46.1906 67.8059L66.4732 80.3425C66.7348 80.5042 67.0781 80.4232 67.2398 80.1615L94.2282 36.4977C94.3899 36.2361 94.3089 35.8929 94.0472 35.7311L73.7646 23.1946C73.503 23.0328 73.1597 23.1138 72.998 23.3755Z" fill="white" stroke="#5B7DEC" stroke-width="1.5" stroke-miterlimit="10"/>
<path d="M73.82 54.6427L73.82 54.6426C74.3294 53.8176 74.4858 53.1387 74.401 52.5978C74.3169 52.0607 73.9915 51.637 73.4869 51.3265C72.976 51.0121 72.5432 50.8943 72.024 51.052C71.4899 51.2142 70.8478 51.6722 69.9407 52.5691C69.9407 52.5692 69.9407 52.5692 69.9406 52.5692L69.8527 52.4803L73.82 54.6427ZM73.82 54.6427C73.4091 55.3096 72.9313 55.7465 72.4091 55.9866C71.8876 56.2264 71.3118 56.2745 70.6958 56.1471C70.429 56.0892 70.1628 56.2079 70.011 56.4246L69.9954 56.4324L69.9767 56.4697L69.9711 56.4808L73.82 54.6427ZM68.842 47.2324L68.842 47.2324C69.2888 47.3428 69.4902 47.8663 69.2473 48.2533C69.0915 48.5044 68.7973 48.6161 68.5144 48.5576C68.0963 48.472 67.6188 48.4766 67.1442 48.6661C66.6706 48.8551 66.1903 49.2321 65.7716 49.9076C65.2735 50.7125 65.1637 51.3339 65.2534 51.7996C65.3428 52.2638 65.635 52.5969 65.9912 52.8172L65.9913 52.8172C66.1989 52.9459 66.3901 53.0267 66.5823 53.0568C66.7731 53.0867 66.9726 53.0677 67.199 52.9854C67.659 52.8182 68.2226 52.3929 69.0249 51.5987C70.1715 50.4623 71.0812 49.8463 71.8956 49.6335C72.7204 49.4179 73.4286 49.6202 74.1547 50.0688L74.1548 50.0689C75.0443 50.619 75.5439 51.4297 75.6589 52.3603C75.7735 53.2875 75.5054 54.3231 74.8824 55.3309L74.8824 55.331C74.2931 56.2842 73.593 56.9284 72.8263 57.2833C72.0587 57.6387 71.2329 57.6999 70.401 57.5009C70.401 57.5009 70.401 57.5009 70.401 57.5009L70.4301 57.3793C70.056 57.2898 69.8771 56.867 70.0804 56.5418L68.842 47.2324ZM68.842 47.2324L68.8415 47.2323M68.842 47.2324L68.8415 47.2323M68.8415 47.2323C67.4655 46.8978 65.8586 47.3537 64.7174 49.2029L68.8415 47.2323Z" fill="#151618" stroke="#151618" stroke-width="0.25"/>
<path d="M76.5303 56.2979L74.6602 55.1433" stroke="#151618" stroke-width="1.5" stroke-miterlimit="10"/>
<path d="M64.9981 49.4313L62.7539 48.0449" stroke="#151618" stroke-width="1.5" stroke-miterlimit="10"/>
</svg>
