<svg width="65" height="77" viewBox="0 0 65 77" fill="none" xmlns="http://www.w3.org/2000/svg">
<path d="M13.3828 71.1426V73.0907C13.3828 74.2325 14.3067 75.1564 15.4485 75.1564H61.1905C62.3323 75.1564 63.2562 74.2325 63.2562 73.0907L63.2649 50.7427C58.0483 72.7246 25.6333 72.3498 13.3828 71.1426Z" fill="#DCE4FF"/>
<path d="M64.002 73.531V7.21908C64.002 6.04934 63.0537 5.10107 61.8839 5.10107L14.9435 5.10107C13.7738 5.10107 12.8255 6.04934 12.8255 7.21908L12.8255 73.531C12.8255 74.7007 13.7738 75.649 14.9435 75.649H61.8839C63.0537 75.649 64.002 74.7007 64.002 73.531Z" stroke="#151618" stroke-width="1.5" stroke-linecap="round" stroke-linejoin="round"/>
<path d="M16.5103 33.8763L24.4637 38.0731L24.4245 29.0825L8.9186 3.49644C8.9186 3.49644 6.70907 2.01471 3.82405 4.01941C0.764707 6.14177 1.0044 8.29028 1.0044 8.29028L16.5103 33.8763Z" fill="white" stroke="#5B7DEC" stroke-width="1.5" stroke-miterlimit="10"/>
<path d="M24.4249 29.0826L19.8664 30.4903L16.5107 33.8765" fill="white"/>
<path d="M24.4249 29.0826L19.8664 30.4903L16.5107 33.8765" stroke="#5B7DEC" stroke-width="1.5" stroke-miterlimit="10"/>
<path d="M24.0271 35.6807L22.541 36.5784" stroke="#5B7DEC" stroke-width="1.5" stroke-miterlimit="10"/>
<path d="M47.4318 8.82268H29.5508L30.296 1H46.6866L47.4318 8.82268Z" fill="white" stroke="#151618" stroke-width="1.5" stroke-linecap="round" stroke-linejoin="round"/>
<path d="M19.8105 45.8572L23.5192 48.9689L31.8213 39.8867" fill="white"/>
<path d="M19.8105 45.8572L23.5192 48.9689L31.8213 39.8867" stroke="#151618" stroke-width="1.5" stroke-linecap="round" stroke-linejoin="round"/>
<path d="M19.8105 58.1514L23.5192 61.2631L31.8213 52.1809" fill="white"/>
<path d="M19.8105 58.1514L23.5192 61.2631L31.8213 52.1809" stroke="#151618" stroke-width="1.5" stroke-linecap="round" stroke-linejoin="round"/>
</svg>
