<svg width="75" height="45" viewBox="0 0 75 45" fill="none" xmlns="http://www.w3.org/2000/svg">
<path d="M5.57906 27.7998C5.57906 15.5298 15.5291 5.58982 27.7891 5.58982C31.3191 5.58982 34.6491 6.41982 37.6191 7.87982C33.6891 3.54982 28.0491 0.819824 21.7591 0.819824C9.91906 0.819824 0.289062 10.4498 0.289062 22.2898C0.289062 29.2698 3.65906 35.4598 8.83906 39.3798C6.76906 36.0098 5.57906 32.0398 5.57906 27.7998Z" fill="#DCE4FF"/>
<path d="M22.2608 43.7198C34.1128 43.7198 43.7208 34.1118 43.7208 22.2598C43.7208 10.4078 34.1128 0.799805 22.2608 0.799805C10.4088 0.799805 0.800781 10.4078 0.800781 22.2598C0.800781 34.1118 10.4088 43.7198 22.2608 43.7198Z" stroke="#151618" stroke-width="1.5" stroke-linecap="round" stroke-linejoin="round"/>
<path d="M22.2617 7.61963V20.1296" stroke="#151618" stroke-width="1.5" stroke-linecap="round" stroke-linejoin="round"/>
<path d="M22.2617 0.799805V5.0598" stroke="#151618" stroke-width="1.5" stroke-linecap="round" stroke-linejoin="round"/>
<path d="M0.800781 22.2598H5.06078" stroke="#151618" stroke-width="1.5" stroke-linecap="round" stroke-linejoin="round"/>
<path d="M22.2617 43.73V39.46" stroke="#151618" stroke-width="1.5" stroke-linecap="round" stroke-linejoin="round"/>
<path d="M43.7309 22.2598H39.4609" stroke="#151618" stroke-width="1.5" stroke-linecap="round" stroke-linejoin="round"/>
<path d="M7.83984 7.83984L9.34984 9.34984" stroke="#151618" stroke-width="1.5" stroke-linecap="round" stroke-linejoin="round"/>
<path d="M7.83984 36.6897L9.34984 35.1797" stroke="#151618" stroke-width="1.5" stroke-linecap="round" stroke-linejoin="round"/>
<path d="M36.6897 36.6897L35.1797 35.1797" stroke="#151618" stroke-width="1.5" stroke-linecap="round" stroke-linejoin="round"/>
<path d="M36.6897 7.83984L35.1797 9.34984" stroke="#151618" stroke-width="1.5" stroke-linecap="round" stroke-linejoin="round"/>
<path d="M31.7908 31.5L23.8008 23.75" stroke="#151618" stroke-width="1.5" stroke-linecap="round" stroke-linejoin="round"/>
<path d="M22.2589 24.3899C23.4353 24.3899 24.3889 23.4363 24.3889 22.2599C24.3889 21.0835 23.4353 20.1299 22.2589 20.1299C21.0825 20.1299 20.1289 21.0835 20.1289 22.2599C20.1289 23.4363 21.0825 24.3899 22.2589 24.3899Z" stroke="#151618" stroke-width="1.5" stroke-linecap="round" stroke-linejoin="round"/>
<path d="M40.6484 11.3496H74.0984" stroke="#151618" stroke-width="1.5" stroke-linecap="round" stroke-linejoin="round"/>
<path d="M44.1992 18.9897H63.2992" stroke="#151618" stroke-width="1.5" stroke-linecap="round" stroke-linejoin="round"/>
<path d="M44.1992 26.8296H57.3792" stroke="#151618" stroke-width="1.5" stroke-linecap="round" stroke-linejoin="round"/>
</svg>
