<svg width="47" height="49" viewBox="0 0 47 49" fill="none" xmlns="http://www.w3.org/2000/svg">
<g clip-path="url(#clip0_10379_32625)">
<path d="M20.3408 47.6398C28.6508 44.3798 39.8808 37.4298 39.8808 20.8498C39.8808 16.8398 39.8808 10.8298 39.8808 10.8298C26.6908 10.8198 20.3408 0.799805 20.3408 0.799805C20.3408 0.799805 13.9908 10.8198 0.800781 10.8198V20.8398C0.800781 37.4198 10.9008 43.8298 20.3408 47.6298V47.6398Z" stroke="#151618" stroke-width="1.5" stroke-linecap="round" stroke-linejoin="round"/>
<path d="M8.02094 34.01C8.02094 21.41 16.2109 10.88 27.1509 8.31C22.5509 5.54 20.3009 2 20.3009 2C20.3009 2 14.2609 11.54 1.71094 11.54V21.08C1.71094 29.61 4.52094 35.3 8.52094 39.31C8.20094 37.6 8.03094 35.83 8.03094 34.01H8.02094Z" fill="#DCE4FF"/>
<path d="M35.5816 40.73C41.2314 40.73 45.8116 36.1499 45.8116 30.5C45.8116 24.8501 41.2314 20.27 35.5816 20.27C29.9317 20.27 25.3516 24.8501 25.3516 30.5C25.3516 36.1499 29.9317 40.73 35.5816 40.73Z" fill="white" stroke="#151618" stroke-width="1.5" stroke-linecap="round" stroke-linejoin="round"/>
<path d="M29.8789 31.8396L33.1489 35.3596L35.3189 32.8796L40.8589 26.5596" stroke="#151618" stroke-width="1.5" stroke-linecap="round" stroke-linejoin="round"/>
</g>
<defs>
<clipPath id="clip0_10379_32625">
<rect width="46.61" height="48.44" fill="white"/>
</clipPath>
</defs>
</svg>
