<svg width="58" height="45" viewBox="0 0 58 45" fill="none" xmlns="http://www.w3.org/2000/svg">
<g clip-path="url(#clip0_10379_32641)">
<path d="M25.2422 41.2998L50.4922 16.0498L54.8022 20.3598L56.3622 0.799805L36.8022 2.3598L41.1122 6.6698L25.2522 22.5298" stroke="#151618" stroke-width="1.5" stroke-linecap="round" stroke-linejoin="round"/>
<path d="M31.9208 3.13965L6.67078 28.3896L2.36078 24.0796L0.800781 43.6396L20.3608 42.0696L16.0508 37.7696L31.9108 21.9096" stroke="#151618" stroke-width="1.5" stroke-linecap="round" stroke-linejoin="round"/>
<path d="M27.5391 31C31.9573 31 35.5391 27.4183 35.5391 23C35.5391 18.5817 31.9573 15 27.5391 15C23.1208 15 19.5391 18.5817 19.5391 23C19.5391 27.4183 23.1208 31 27.5391 31Z" fill="white" stroke="#151618" stroke-width="1.5" stroke-linecap="round" stroke-linejoin="round"/>
<path d="M32.8125 18.1798C31.5025 16.7298 29.6125 15.8198 27.5025 15.8198C23.5425 15.8198 20.3125 19.0398 20.3125 23.0098C20.3125 25.3498 21.4125 29.0598 26.4025 30.1198C22.9625 24.6998 27.3325 17.6498 32.8125 18.1798Z" fill="#DCE4FF"/>
</g>
<defs>
<clipPath id="clip0_10379_32641">
<rect width="57.16" height="44.44" fill="white"/>
</clipPath>
</defs>
</svg>
