<svg width="62" height="79" viewBox="0 0 62 79" fill="none" xmlns="http://www.w3.org/2000/svg">
<path d="M25.5517 38.6801L20.3311 46.8636L25.7852 50.3486L31.0104 42.1605" fill="white"/>
<path d="M25.5517 38.6801L20.3311 46.8636L25.7852 50.3486L31.0104 42.1605" stroke="#151618" stroke-width="1.5" stroke-miterlimit="10" stroke-linecap="round"/>
<path d="M39.7883 43.7817C51.6021 43.7817 61.1791 34.2047 61.1791 22.3908C61.1791 10.577 51.6021 1 39.7883 1C27.9745 1 18.3975 10.577 18.3975 22.3908C18.3975 34.2047 27.9745 43.7817 39.7883 43.7817Z" fill="white" stroke="#151618" stroke-width="1.5" stroke-miterlimit="10" stroke-linecap="round"/>
<path d="M38.463 7.36986C33.5767 7.8095 29.4506 10.5343 27.0234 14.3857C28.9743 13.1583 31.2366 12.3615 33.6912 12.1371C42.0075 11.3861 49.3576 17.518 50.1133 25.8344C50.4247 29.2644 49.5591 32.5296 47.8556 35.2407C52.5221 32.3098 55.4163 26.9289 54.8851 21.0671C54.1341 12.7508 46.7794 6.61883 38.463 7.36986Z" fill="#DCE4FF"/>
<path d="M39.79 38.1534C48.4954 38.1534 55.5526 31.0963 55.5526 22.3908C55.5526 13.6853 48.4954 6.62817 39.79 6.62817C31.0845 6.62817 24.0273 13.6853 24.0273 22.3908C24.0273 31.0963 31.0845 38.1534 39.79 38.1534Z" stroke="#151618" stroke-width="1.5" stroke-miterlimit="10" stroke-linecap="round"/>
<path d="M10.2743 77.5919L27.4474 51.4064L18.6685 45.8057L1.5 71.9912L10.2743 77.5919Z" fill="white" stroke="#151618" stroke-width="1.5" stroke-miterlimit="10" stroke-linecap="round"/>
<path d="M13.6719 53.6322L22.0936 59.0085" stroke="#151618" stroke-width="1.5" stroke-miterlimit="10" stroke-linecap="round"/>
<path d="M16.1689 49.7167L24.5906 55.093" stroke="#151618" stroke-width="1.5" stroke-miterlimit="10" stroke-linecap="round"/>
<path d="M52.6766 64.5852L51.921 61.146C51.8294 60.7338 52.1041 60.3354 52.5163 60.2667L55.4701 59.7767C55.8548 59.7126 56.2211 59.9599 56.3081 60.3446L56.995 63.4815C57.0775 63.8616 56.8485 64.2417 56.473 64.347L53.5879 65.1393C53.1849 65.2492 52.7682 64.9973 52.6766 64.5898V64.5852Z" fill="white" stroke="#5B7DEC" stroke-miterlimit="10"/>
<path d="M35.2705 68.409L34.5149 64.9698C34.4233 64.5577 34.0112 64.3104 33.6036 64.4203L30.7185 65.2125C30.343 65.3179 30.114 65.698 30.1965 66.0781L30.8834 69.215C30.9658 69.5951 31.3367 69.847 31.7214 69.7829L34.6752 69.2929C35.0874 69.2242 35.3621 68.8212 35.2705 68.4136V68.409Z" fill="white" stroke="#5B7DEC" stroke-miterlimit="10"/>
<path d="M43.6874 73.5703L47.1266 72.8146C47.5387 72.7231 47.9371 72.9978 48.0058 73.41L48.4958 76.3638C48.5599 76.7484 48.3126 77.1148 47.928 77.2018L44.791 77.8887C44.4109 77.9712 44.0308 77.7422 43.9255 77.3667L43.1332 74.4816C43.0233 74.0786 43.2752 73.6618 43.6828 73.5703H43.6874Z" fill="white" stroke="#5B7DEC" stroke-miterlimit="10"/>
<path d="M39.8584 56.1636L43.2976 55.408C43.7098 55.3164 43.9571 54.9042 43.8472 54.4967L43.0549 51.6116C42.9496 51.2361 42.5695 51.0071 42.1894 51.0895L39.0524 51.7764C38.6723 51.8589 38.4205 52.2298 38.4846 52.6145L38.9746 55.5683C39.0433 55.9804 39.4463 56.2552 39.8538 56.1636H39.8584Z" fill="white" stroke="#5B7DEC" stroke-miterlimit="10"/>
<path d="M37.3499 71.3629L40.3952 73.1214C40.757 73.3321 40.8715 73.8038 40.6425 74.1564L39.0122 76.6659C38.8016 76.9957 38.3665 77.0964 38.0276 76.9041L35.2479 75.2967C34.909 75.0998 34.7853 74.6739 34.9594 74.3258L36.3195 71.6606C36.5118 71.285 36.9743 71.1477 37.3407 71.3583L37.3499 71.3629Z" fill="white" stroke="#5B7DEC" stroke-miterlimit="10"/>
<path d="M46.2693 55.9255L49.3147 57.6841C49.6765 57.8947 50.1436 57.7573 50.3359 57.3818L51.696 54.7165C51.8746 54.3685 51.7464 53.9426 51.4075 53.7457L48.6277 52.1383C48.2889 51.9414 47.8584 52.0467 47.6432 52.3764L46.0129 54.886C45.7839 55.2386 45.8984 55.7103 46.2601 55.9209L46.2693 55.9255Z" fill="white" stroke="#5B7DEC" stroke-miterlimit="10"/>
<path d="M51.8311 68.1802L49.8024 71.0562C49.5597 71.3996 49.6559 71.8759 50.0085 72.1003L52.5409 73.6985C52.8707 73.9046 53.3057 73.8222 53.5301 73.5016L55.3802 70.8776C55.6046 70.557 55.5405 70.1174 55.2337 69.8792L52.8798 68.0291C52.5501 67.7681 52.0693 67.8413 51.8265 68.1848L51.8311 68.1802Z" fill="white" stroke="#5B7DEC" stroke-miterlimit="10"/>
<path d="M37.262 57.9037L35.2333 60.7797C34.9906 61.1231 34.5098 61.1918 34.18 60.9354L31.8262 59.0853C31.5193 58.8425 31.4552 58.4029 31.6796 58.0869L33.5297 55.4629C33.7541 55.1423 34.1892 55.0553 34.5189 55.2659L37.0514 56.8642C37.4086 57.0886 37.5002 57.5649 37.2574 57.9083L37.262 57.9037Z" fill="white" stroke="#5B7DEC" stroke-miterlimit="10"/>
<path d="M43.5277 74.6602C49.054 74.6602 53.5339 70.1803 53.5339 64.654C53.5339 59.1278 49.054 54.6478 43.5277 54.6478C38.0014 54.6478 33.5215 59.1278 33.5215 64.654C33.5215 70.1803 38.0014 74.6602 43.5277 74.6602Z" fill="#DCE4FF" stroke="#5B7DEC" stroke-miterlimit="10"/>
<path d="M43.5277 72.1827C47.6857 72.1827 51.0564 68.812 51.0564 64.6541C51.0564 60.4961 47.6857 57.1254 43.5277 57.1254C39.3697 57.1254 35.999 60.4961 35.999 64.6541C35.999 68.812 39.3697 72.1827 43.5277 72.1827Z" fill="white" stroke="#5B7DEC" stroke-miterlimit="10"/>
<path d="M43.5718 67.1132C44.8213 67.1132 45.8341 66.1003 45.8341 64.8509C45.8341 63.6015 44.8213 62.5886 43.5718 62.5886C42.3224 62.5886 41.3096 63.6015 41.3096 64.8509C41.3096 66.1003 42.3224 67.1132 43.5718 67.1132Z" fill="#DCE4FF" stroke="#5B7DEC" stroke-miterlimit="10"/>
</svg>
