<svg width="382" height="272" viewBox="0 0 382 272" fill="none" xmlns="http://www.w3.org/2000/svg">
<g clip-path="url(#clip0_10058_28235)">
<path d="M379.726 145.405C379.726 145.405 385.003 42.0589 305.32 13.6105C225.637 -14.8379 185.532 6.06339 160.203 32.7716C134.873 59.4799 126.428 76.8944 97.4036 80.3811C68.3789 83.8615 41.4687 89.6684 27.7469 128.571C14.025 167.467 31.4424 198.242 57.8256 217.396C84.2088 236.557 114.815 216.236 139.09 228.43C163.365 240.624 178.668 260.945 228.272 263.266C277.876 265.586 279.457 249.911 304.786 225.53C330.115 201.148 374.97 226.69 379.72 145.412L379.726 145.405Z" fill="#D4DDFF"/>
<path opacity="0.7" d="M379.726 145.405C379.726 145.405 385.003 42.0589 305.32 13.6105C225.637 -14.8379 185.532 6.06339 160.203 32.7716C134.873 59.4799 126.428 76.8944 97.4036 80.3811C68.3789 83.8615 41.4687 89.6684 27.7469 128.571C14.025 167.467 31.4424 198.242 57.8256 217.396C84.2088 236.557 114.815 216.236 139.09 228.43C163.365 240.624 178.668 260.945 228.272 263.266C277.876 265.586 279.457 249.911 304.786 225.53C330.115 201.148 374.97 226.69 379.72 145.412L379.726 145.405Z" fill="#D4DDFF"/>
<path d="M214.049 224.285H207.963L207.873 224.414C207.359 224.337 206.832 224.285 206.298 224.285C198.875 224.285 192.859 232.051 192.859 241.622C192.859 251.193 198.875 258.959 206.298 258.959C206.832 258.959 211.234 258.908 211.755 258.831L207.957 258.959H214.043C221.466 258.959 227.482 251.193 227.482 241.622C227.482 232.051 221.466 224.285 214.043 224.285H214.049Z" fill="#121939"/>
<path d="M89.3581 224.285H83.2716L83.1816 224.414C82.6675 224.337 82.1404 224.285 81.607 224.285C74.1837 224.285 68.168 232.051 68.168 241.622C68.168 251.193 74.1837 258.959 81.607 258.959C82.1404 258.959 82.661 258.908 83.1816 258.831L83.2716 258.959H89.3581C96.7813 258.959 102.797 251.193 102.797 241.622C102.797 232.051 96.7813 224.285 89.3581 224.285Z" fill="#121939"/>
<path d="M271.976 224.797H269.058L266.443 206.397C266.121 204.154 264.212 202.491 261.956 202.491H245.587L219.004 174.204C216.125 171.143 212.115 169.402 207.918 169.402H137.445C134.373 169.402 131.435 170.659 129.308 172.883L8.25391 224.127V245.763H189.735L235.284 245.441L269.058 243.217V243.063H271.835C272.446 243.063 272.94 242.566 272.94 241.954V225.771C272.94 225.236 272.51 224.804 271.976 224.804V224.797Z" fill="#566EE6" stroke="#01145B" stroke-miterlimit="10"/>
<path d="M220.418 242.438V245.544L235.284 245.441L269.058 243.217V243.063H271.835C272.272 243.063 272.638 242.805 272.818 242.438H220.418Z" fill="#121939"/>
<path d="M235.278 245.433C236.704 245.336 236.634 243.21 235.207 243.21H218.13L154.971 169.395H137.432C134.36 169.395 131.422 170.651 129.295 172.875L8.25391 224.126V245.762H189.735L235.284 245.44L235.278 245.433Z" fill="#121939"/>
<path d="M36.5328 224.285H30.4463L26.4551 230.163C24.3663 233.218 23.0938 237.233 23.0938 241.629C23.0938 246.024 24.3663 250.033 26.4551 253.094L30.4463 258.972H36.5328C43.9561 258.972 49.9718 251.206 49.9718 241.635C49.9718 232.064 43.9561 224.298 36.5328 224.298V224.285Z" fill="#121939"/>
<path d="M28.7828 258.959C36.2049 258.959 42.2218 251.197 42.2218 241.622C42.2218 232.047 36.2049 224.285 28.7828 224.285C21.3606 224.285 15.3438 232.047 15.3438 241.622C15.3438 251.197 21.3606 258.959 28.7828 258.959Z" fill="#636363" stroke="#263238" stroke-linecap="round" stroke-linejoin="round"/>
<path d="M28.7829 255.455C34.7036 255.455 39.5032 249.263 39.5032 241.624C39.5032 233.985 34.7036 227.793 28.7829 227.793C22.8622 227.793 18.0625 233.985 18.0625 241.624C18.0625 249.263 22.8622 255.455 28.7829 255.455Z" fill="white" stroke="#263238" stroke-linecap="round" stroke-linejoin="round"/>
<path d="M31.052 241.623C31.052 243.234 30.0365 244.542 28.7897 244.542C27.5428 244.542 26.5273 243.234 26.5273 241.623C26.5273 240.011 27.5428 238.703 28.7897 238.703C30.0365 238.703 31.052 240.011 31.052 241.623Z" fill="white" stroke="#263238" stroke-linecap="round" stroke-linejoin="round"/>
<path d="M172.166 224.285H166.079L162.088 230.163C159.999 233.218 158.727 237.233 158.727 241.629C158.727 246.024 159.999 250.033 162.088 253.094L166.079 258.972H172.166C179.589 258.972 185.605 251.206 185.605 241.635C185.605 232.064 179.589 224.298 172.166 224.298V224.285Z" fill="#121939"/>
<path d="M164.419 258.959C171.842 258.959 177.859 251.197 177.859 241.622C177.859 232.047 171.842 224.285 164.419 224.285C156.997 224.285 150.98 232.047 150.98 241.622C150.98 251.197 156.997 258.959 164.419 258.959Z" fill="#636363" stroke="#263238" stroke-linecap="round" stroke-linejoin="round"/>
<path d="M164.42 255.455C170.34 255.455 175.14 249.263 175.14 241.624C175.14 233.985 170.34 227.793 164.42 227.793C158.499 227.793 153.699 233.985 153.699 241.624C153.699 249.263 158.499 255.455 164.42 255.455Z" fill="white" stroke="#263238" stroke-linecap="round" stroke-linejoin="round"/>
<path d="M166.681 241.623C166.681 243.234 165.665 244.542 164.419 244.542C163.172 244.542 162.156 243.234 162.156 241.623C162.156 240.011 163.172 238.703 164.419 238.703C165.665 238.703 166.681 240.011 166.681 241.623Z" fill="white" stroke="#263238" stroke-linecap="round" stroke-linejoin="round"/>
<path d="M218.99 174.203C218.772 173.971 218.534 173.758 218.302 173.539H163.402V200.744H243.934L218.997 174.203H218.99Z" fill="#121939"/>
<path d="M225.296 224.797H222.096L218.921 202.491H198.618L172.035 174.204C169.156 171.143 165.145 169.402 160.948 169.402H96.2599C93.1877 169.402 90.2505 170.659 88.1232 172.883L46.8035 200.583L8.56878 217.128L2.58517 225.184C1.11336 227.169 0.316406 229.573 0.316406 232.042V245.763H12.3736V241.194C12.3736 230.012 20.4846 220.95 30.4851 220.95C39.3995 220.95 44.9332 228.194 46.3215 238.036L47.4141 245.763H148.165V241.194C148.165 230.012 152.741 220.95 165.036 220.95C175.994 220.95 179.908 228.194 181.618 238.036L182.903 245.441L222.089 243.217V243.063H225.29V224.797H225.296Z" fill="#566EE6" stroke="#01145B" stroke-miterlimit="10"/>
<path d="M88.4697 176.962L52.9922 200.583H119.3V173.855H95.8223C93.0522 173.855 90.4042 174.977 88.4697 176.956V176.962Z" fill="#121939"/>
<path d="M80.7627 200.583L101.792 173.855H95.8214C93.0513 173.855 90.4033 174.977 88.4688 176.956L76.0517 185.225L63.9688 200.583H80.7627Z" fill="white" stroke="#263238" stroke-linecap="round" stroke-linejoin="round"/>
<path d="M119.299 200.584V181.391L104.195 200.584H119.299Z" fill="white" stroke="#263238" stroke-linecap="round" stroke-linejoin="round"/>
<path d="M169.824 178.212L184.909 193.68C185.41 194.196 185.77 194.841 185.943 195.537C186.58 198.102 184.645 200.583 182.01 200.583H123.742V173.855H159.509C163.391 173.855 167.112 175.422 169.824 178.206V178.212Z" fill="#121939"/>
<path d="M155.693 173.855H149.838L128.809 200.583H134.664L155.693 173.855Z" fill="white" stroke="#263238" stroke-linecap="round" stroke-linejoin="round"/>
<path d="M123.742 175.75V197.09L142.027 173.855H125.227L123.742 175.75Z" fill="white" stroke="#263238" stroke-linecap="round" stroke-linejoin="round"/>
<path d="M218.928 202.488H261.951C264.207 202.488 266.122 204.151 266.437 206.394L269.053 224.795H222.097L218.922 202.488H218.928Z" fill="#566EE6" stroke="#01145B" stroke-miterlimit="10"/>
<path d="M259.765 212.543H239.359V220.947H259.765V212.543Z" fill="white" stroke="#263238" stroke-linecap="round" stroke-linejoin="round"/>
<path d="M271.295 228.23H183.867" stroke="#263238" stroke-linecap="round" stroke-linejoin="round"/>
<path d="M144.798 228.23H47.9102" stroke="#263238" stroke-linecap="round" stroke-linejoin="round"/>
<path d="M15.743 228.23H4.65625" stroke="#263238" stroke-linecap="round" stroke-linejoin="round"/>
<path d="M235.835 212.688H216.56C214.742 212.688 213.077 213.719 212.261 215.349L209.034 221.814C208.392 223.109 209.33 224.63 210.77 224.63H235.829V212.688H235.835Z" fill="white" stroke="#263238" stroke-linecap="round" stroke-linejoin="round"/>
<path d="M235.835 212.688H220.301L221.998 224.63H235.835V212.688Z" fill="#121939"/>
<path d="M267.257 212.688H262.553L262.488 224.63H268.954L267.257 212.688Z" fill="#121939"/>
<path d="M57.5819 195.012H47.4464C46.8288 195.012 46.3281 195.514 46.3281 196.133V204.389C46.3281 205.009 46.8288 205.511 47.4464 205.511H57.5819C58.1996 205.511 58.7003 205.009 58.7003 204.389V196.133C58.7003 195.514 58.1996 195.012 57.5819 195.012Z" fill="#121939"/>
<path d="M117.713 205.512H105.816V210.281H117.713V205.512Z" fill="#121939"/>
<path d="M120.566 203.605V239.872" stroke="#263238" stroke-linecap="round" stroke-linejoin="round"/>
<path d="M40.1367 219.832C40.1367 219.832 48.8518 224.762 49.9637 241.623H142.456" stroke="#263238" stroke-linecap="round" stroke-linejoin="round"/>
<path d="M186.247 226.988C186.247 226.988 181.69 215.059 166.439 215.059C155.809 215.059 150.725 220.659 148.18 225.081" stroke="#263238" stroke-linecap="round" stroke-linejoin="round"/>
<path d="M299.594 132.922V138.606L300.41 139.734L301.021 138.658V132.922H299.594Z" fill="white" stroke="#263238" stroke-linecap="round" stroke-linejoin="round"/>
<path d="M298.98 130.925L299.591 132.923H301.069L301.789 130.57L298.98 130.925Z" fill="white" stroke="#263238" stroke-linecap="round" stroke-linejoin="round"/>
<path d="M300.222 131.015C301.784 131.015 303.05 129.746 303.05 128.18C303.05 126.613 301.784 125.344 300.222 125.344C298.661 125.344 297.395 126.613 297.395 128.18C297.395 129.746 298.661 131.015 300.222 131.015Z" fill="#121939"/>
<path d="M306.09 116.386C306.09 116.386 302.118 114.832 301.18 114.207C300.241 113.582 298.68 113.479 298.68 114.104C298.68 114.729 299.824 115.464 300.762 115.986C301.7 116.508 305.242 119.015 305.242 119.015L306.598 117.449L306.097 116.392L306.09 116.386Z" fill="white" stroke="#263238" stroke-linecap="round" stroke-linejoin="round"/>
<path d="M311.727 118.899C311.727 118.899 306.714 116.592 306.084 116.386C305.455 116.18 300.236 115.148 299.297 115.148C298.359 115.148 298.256 116.193 298.777 116.399C299.297 116.605 301.174 117.024 301.483 117.024C301.791 117.024 305.442 117.965 305.442 117.965C305.442 117.965 300.859 120.891 300.551 121.413C300.242 121.935 299.407 123.295 299.195 124.126C298.989 124.964 298.571 125.486 299.51 125.589C300.448 125.693 301.907 122.773 301.907 122.773C301.907 122.773 304.825 121.31 305.345 121.31C305.866 121.31 307.633 123.082 307.948 123.714C308.263 124.346 305.14 124.655 303.366 125.28C301.598 125.905 299.825 125.802 299.516 126.743C299.201 127.684 300.763 127.89 301.913 127.684C303.057 127.478 305.872 127.478 305.872 127.478C305.872 127.478 308.27 128 309.722 127.375C311.181 126.75 312.846 125.809 312.846 125.809L314.478 128.213L317.325 123.598L311.74 118.912L311.727 118.899Z" fill="white" stroke="#263238" stroke-linecap="round" stroke-linejoin="round"/>
<path d="M317.313 123.587L313 130.431C313 130.431 328.084 150.604 329.164 150.785C330.244 150.965 332.757 150.243 332.757 150.243L335.09 114.402L329.344 133.132L317.313 123.587Z" fill="#8C8C8C" stroke="#263238" stroke-linecap="round" stroke-linejoin="round"/>
<path d="M335.264 263.59C335.264 263.59 332.308 266.207 330.392 267.251C328.477 268.295 324.132 270.041 324.306 270.563C324.479 271.085 325.874 271.607 327.089 271.607H338.047L340.483 270.737L342.051 269.867L342.225 271.614H346.396L346.222 264.118L335.264 263.596V263.59Z" fill="#8C8C8C" stroke="#263238" stroke-linecap="round" stroke-linejoin="round"/>
<path d="M363.25 260.793C363.25 260.793 362.845 265.227 362.845 266.439C362.845 267.65 359.091 269.526 359.226 270.602L359.361 271.679H373.025C373.025 271.679 373.829 270.873 373.43 268.72C373.025 266.568 372.627 262.404 372.627 262.404L363.25 260.793Z" fill="#8C8C8C" stroke="#263238" stroke-linecap="round" stroke-linejoin="round"/>
<path d="M330.227 168.031C330.227 168.031 331.57 205.083 331.57 212.759C331.57 220.435 332.489 249.122 332.489 251.913C332.489 254.704 332.315 263.772 332.315 263.772C332.315 263.772 334.751 264.12 337.708 264.468C340.664 264.816 346.23 264.12 346.23 264.12V253.485C346.23 251.217 349.36 209.015 349.36 209.015L349.534 196.982C349.534 196.982 354.052 218.779 354.579 222.44C355.099 226.101 361.706 263.424 361.706 263.424H373.359C373.359 263.424 373.532 238.488 373.706 232.384C373.879 226.281 374.226 205.702 374.226 204.658C374.226 203.614 374.001 180.657 374.001 180.657L373.185 165.943L330.927 164.898L330.233 168.037L330.227 168.031Z" fill="#121939"/>
<path d="M349.528 196.977L346.051 185.82L342.574 184.422" stroke="black" stroke-linecap="round" stroke-linejoin="round"/>
<path d="M331.266 166.457C331.266 166.457 341.877 171.343 357.7 168.204C357.7 168.204 357.874 166.457 361.698 146.581C365.522 126.698 368.131 111.004 368.131 111.004C368.131 111.004 365.522 108.039 361.351 106.821C357.18 105.603 345.007 108.742 341.35 110.308C337.699 111.881 331.266 159.136 331.266 166.457Z" fill="#566EE6" stroke="#01145B" stroke-miterlimit="10"/>
<path d="M348.66 106.465C348.66 106.465 337.547 110.332 336.153 110.86C334.758 111.389 334.064 113.651 334.064 113.651C334.064 113.651 326.743 164.889 326.743 168.028C326.743 171.167 326.223 180.583 326.223 180.583C326.223 180.583 329.006 183.548 330.921 184.244C332.836 184.94 334.918 185.288 334.918 185.288C334.918 185.288 337.084 152.553 339.347 138.606C341.609 124.653 343.441 112.22 344.656 110.306C345.87 108.385 348.653 106.471 348.653 106.471L348.66 106.465Z" fill="#8C8C8C" stroke="#263238" stroke-linecap="round" stroke-linejoin="round"/>
<path d="M348.659 106.465C348.659 106.465 344.944 107.941 341.043 109.481L335.927 115.965L337.553 122.242L333.613 125.497L338.704 143.698C338.896 141.809 339.108 140.089 339.353 138.606C341.615 124.653 343.447 112.22 344.661 110.306C345.876 108.385 348.659 106.471 348.659 106.471V106.465Z" fill="#8C8C8C" stroke="#263238" stroke-linecap="round" stroke-linejoin="round"/>
<path d="M348.657 104.902C348.657 104.902 344.312 109.085 343.785 110.483C343.265 111.875 344.306 129.664 345 130.366C345.694 131.062 362.045 111.708 362.912 109.613C363.78 107.518 363.953 106.822 363.433 105.604C362.912 104.386 362.565 103.684 362.565 103.684L348.651 104.902H348.657Z" fill="white" stroke="#263238" stroke-linecap="round" stroke-linejoin="round"/>
<path d="M343.785 117.457C344.306 117.457 350.219 112.926 350.219 112.926L354.216 120.247" fill="white"/>
<path d="M343.785 117.457C344.306 117.457 350.219 112.926 350.219 112.926L354.216 120.247" stroke="#263238" stroke-linecap="round" stroke-linejoin="round"/>
<path d="M363.433 105.596C363.433 105.596 352.474 125.563 350.039 136.197C347.603 146.838 352.372 183.098 353.586 185.715C354.801 188.331 369.93 187.158 369.93 187.158L379.083 185.289C379.083 185.289 376.049 173.185 374.956 166.624C373.697 159.058 372.623 153.012 372.623 149.874C372.623 146.735 379.43 116.579 378.562 114.31C377.694 112.041 363.433 105.59 363.433 105.59V105.596Z" fill="#8C8C8C" stroke="#263238" stroke-linecap="round" stroke-linejoin="round"/>
<path d="M367.354 107.447C365.118 106.358 363.44 105.598 363.44 105.598C363.44 105.598 352.482 125.564 350.046 136.199C349.256 139.653 349.513 141.026 349.391 146.491L365.143 130.385L359.346 124.804L366.3 122.245L367.354 107.441V107.447Z" fill="#8C8C8C" stroke="#263238" stroke-linecap="round" stroke-linejoin="round"/>
<path d="M363.434 96.875C363.434 96.875 362.74 104.551 361.866 105.943C360.998 107.335 352.476 112.569 351.081 112.569C349.686 112.569 348.819 110.648 348.298 108.56C347.919 107.032 348.369 104.667 348.645 103.5C348.748 103.069 348.819 102.804 348.819 102.804L363.427 96.875H363.434Z" fill="white" stroke="#263238" stroke-linecap="round" stroke-linejoin="round"/>
<path d="M356.77 103.199L348.273 107.969L348.653 103.502L356.77 103.199Z" fill="#121939"/>
<path d="M355.439 72.8088C355.439 72.8088 348.272 70.9268 345.894 79.3376C345.277 81.5225 345.528 85.802 345.271 88.1609C345.078 89.9461 344.377 91.5187 344.667 92.6853C345.271 95.0957 346.376 101.728 347.765 103.126C349.153 104.518 351.081 104.538 353.176 104.377C355.438 104.203 361.525 100.542 363.087 99.4912C364.655 98.4471 365.15 95.128 365.15 95.128C365.15 95.128 367.785 92.6917 369.52 91.1191C371.262 89.5466 372.13 82.747 370.735 78.9122C369.347 75.0774 361.345 71.9387 355.432 72.8088H355.439Z" fill="white" stroke="#263238" stroke-linecap="round" stroke-linejoin="round"/>
<path d="M349.199 95.6459C349.199 95.6459 353.01 96.5997 355.074 95.0078" stroke="#263238" stroke-linecap="round" stroke-linejoin="round"/>
<path d="M348.26 90.1602C348.26 90.1602 347.624 91.6941 348.003 92.0808C348.383 92.4675 349.533 93.3633 350.298 93.3633C351.063 93.3633 351.956 92.4675 351.956 92.4675" stroke="#263238" stroke-linecap="round" stroke-linejoin="round"/>
<path d="M371.084 79.8872H371.103C371.103 79.8872 370.897 79.0623 370.274 77.9408C369.49 76.3876 368.442 75.0921 367.182 74.3574C367.163 74.3445 367.15 74.3316 367.131 74.3187C363.956 71.934 355.543 71.0446 351.102 71.8374C346.661 72.6301 348.268 75.1308 348.268 75.1308C348.268 75.1308 351.764 76.1169 357.786 75.698C361.07 75.4724 363.641 76.5423 363.48 77.6572C363.41 78.1471 362.818 78.5144 362.182 78.7722C361.546 78.8109 360.948 78.9205 360.485 79.2492C360.061 79.5521 359.74 80.029 359.618 80.8282C359.097 84.315 361.88 84.837 362.227 86.2356C362.574 87.6277 363.442 90.5924 364.663 91.1209C365.878 91.643 366.405 94.6077 367.446 94.4337C368.487 94.2597 371.726 90.3733 371.9 85.1399C371.958 83.4836 371.669 81.6209 371.084 79.8872Z" fill="#121939"/>
<path d="M352.488 83.1698C352.488 83.1698 354.924 82.9958 356.312 84.5619" stroke="#263238" stroke-linecap="round" stroke-linejoin="round"/>
<path d="M349.179 82.9756C349.179 82.9756 347.964 82.4536 346.223 83.3237" stroke="#263238" stroke-linecap="round" stroke-linejoin="round"/>
<path d="M354.397 87.1126C354.397 87.7894 354.127 88.3308 353.786 88.3308C353.446 88.3308 353.176 87.7829 353.176 87.1126C353.176 86.4424 353.446 85.8945 353.786 85.8945C354.127 85.8945 354.397 86.4424 354.397 87.1126Z" fill="#121939"/>
<path d="M347.874 86.4173C347.874 87.0941 347.604 87.6354 347.263 87.6354C346.922 87.6354 346.652 87.0876 346.652 86.4173C346.652 85.747 346.922 85.1992 347.263 85.1992C347.604 85.1992 347.874 85.747 347.874 86.4173Z" fill="#121939"/>
<path d="M363.262 91.2931C363.262 91.2931 366.045 86.9362 367.433 87.8063C368.821 88.6764 368.474 92.6916 367.433 94.4318C366.392 96.1784 363.782 94.7798 363.782 94.7798" fill="white"/>
<path d="M363.262 91.2931C363.262 91.2931 366.045 86.9362 367.433 87.8063C368.821 88.6764 368.474 92.6916 367.433 94.4318C366.392 96.1784 363.782 94.7798 363.782 94.7798" stroke="#263238" stroke-linecap="round" stroke-linejoin="round"/>
<path d="M367.887 178.734L366.184 185.727C366.184 185.727 367.733 191.476 368.356 191.94C368.973 192.404 372.694 193.339 372.694 193.339C372.694 193.339 375.792 192.25 375.792 191.786C375.792 191.322 377.039 190.542 376.152 190.226C375.297 189.917 374.127 188.995 374.127 188.995L373.774 187.28C373.774 187.28 375.323 185.573 375.323 184.483C375.323 183.394 374.237 179.353 374.237 179.353L367.887 178.734Z" fill="white" stroke="#263238" stroke-linecap="round" stroke-linejoin="round"/>
<path d="M367.914 186.965C367.914 186.965 368.711 190.948 369.142 191.167C369.572 191.386 372.689 193.339 372.689 193.339" stroke="#263238" stroke-linecap="round" stroke-linejoin="round"/>
<path d="M369.938 187.156L371.171 190.656C371.171 190.656 374.064 192.609 374.276 192.609" stroke="#263238" stroke-linecap="round" stroke-linejoin="round"/>
<path d="M371.523 186.965L372.828 190.155L375.785 191.786" stroke="#263238" stroke-linecap="round" stroke-linejoin="round"/>
<path d="M371.564 114.007C371.564 114.007 367.733 121.135 368.28 122.785C368.826 124.428 369.648 147.74 369.648 147.74L366.641 180.378L375.324 181.222L381.68 146.644C381.68 146.644 380.311 117.848 380.311 115.927C380.311 114.007 377.849 112.911 375.934 112.363" fill="#8C8C8C"/>
<path d="M371.564 114.007C371.564 114.007 367.733 121.135 368.28 122.785C368.826 124.428 369.648 147.74 369.648 147.74L366.641 180.378L375.324 181.222L381.68 146.644C381.68 146.644 380.311 117.848 380.311 115.927C380.311 114.007 377.849 112.911 375.934 112.363" stroke="#263238" stroke-linecap="round" stroke-linejoin="round"/>
<path d="M290.422 145.417C290.422 145.417 291.464 143.122 292.087 142.491C292.71 141.865 295.108 141.028 295.108 141.028C295.108 141.028 296.669 140.19 297.293 139.461C297.916 138.733 299.375 138.624 298.958 139.88C298.54 141.131 297.396 142.491 297.396 142.491L302.705 142.909C302.705 142.909 304.787 139.777 305.102 140.615C305.417 141.453 304.376 146.145 303.855 146.776C303.334 147.402 297.711 147.924 296.258 148.658C294.799 149.387 292.717 148.974 292.717 148.974L290.634 150.437L288.449 147.099L290.429 145.429L290.422 145.417Z" fill="white" stroke="#263238" stroke-linecap="round" stroke-linejoin="round"/>
<path d="M304.896 141.761C304.896 141.761 303.958 138.107 303.232 138.526C302.505 138.945 303.335 140.93 303.335 140.93L303.752 144.062L304.896 144.378V141.768V141.761Z" fill="white" stroke="#263238" stroke-linecap="round" stroke-linejoin="round"/>
<path d="M305.257 144.404C305.257 144.404 306.132 139.931 305.302 139.409C304.473 138.887 304.268 139.776 304.377 140.298C304.486 140.82 303.753 144.056 303.753 144.056L302.918 145.622L304.795 145.306L305.264 144.404H305.257Z" fill="white" stroke="#263238" stroke-linecap="round" stroke-linejoin="round"/>
<path d="M293.758 147.606C293.758 147.606 296.566 145.621 296.881 145.621H302.916C303.411 145.118 305.378 142.863 306.04 142.283C307.73 140.794 307.602 142.598 306.875 143.533C306.169 144.442 305.211 146.665 304.587 146.981C303.964 147.297 296.258 148.65 296.258 148.65" fill="white"/>
<path d="M293.758 147.606C293.758 147.606 296.566 145.621 296.881 145.621H302.916C303.411 145.118 305.378 142.863 306.04 142.283C307.73 140.794 307.602 142.598 306.875 143.533C306.169 144.442 305.211 146.665 304.587 146.981C303.964 147.297 296.258 148.65 296.258 148.65" stroke="#263238" stroke-linecap="round" stroke-linejoin="round"/>
<path d="M269.719 111.784C269.719 111.784 272.026 113.898 272.45 115.593C272.874 117.294 280.773 145.317 280.773 145.317L290.305 143.616L292.638 151.266L277.168 158.704L269.719 111.777V111.784Z" fill="white" stroke="#263238" stroke-linecap="round" stroke-linejoin="round"/>
<path d="M256.491 248.353C256.491 248.353 256.253 253.367 255.539 254.559C254.826 255.752 253.875 257.904 253.637 259.574C253.399 261.243 253.637 269.84 253.637 269.84H256.259L257.21 266.257L259.833 266.496C259.833 266.496 261.735 269.364 262.455 269.364C263.175 269.364 273.889 269.84 273.889 269.84V267.211C273.889 267.211 264.839 260.044 264.126 259.09C263.413 258.136 263.175 253.599 263.175 251.685V248.817L256.503 248.34L256.491 248.353Z" fill="white" stroke="#263238" stroke-linecap="round" stroke-linejoin="round"/>
<path d="M253.629 269.847H256.252L257.203 266.263L259.825 266.502C259.825 266.502 261.728 269.37 262.447 269.37C263.167 269.37 273.881 269.847 273.881 269.847V267.217C273.881 267.217 264.832 260.05 264.118 259.096C263.63 258.439 263.36 256.086 263.244 254.056C262.981 254.043 262.711 254.108 262.454 254.314C261.265 255.268 261.265 256.222 261.265 256.222C261.265 256.222 257.216 254.314 255.551 254.553C254.838 255.745 253.886 257.897 253.649 259.567C253.411 261.236 253.649 269.834 253.649 269.834L253.629 269.847Z" fill="#121939"/>
<path d="M254.828 194.14C254.828 194.14 258.164 212.051 257.926 214.919C257.688 217.787 255.066 248.118 255.066 248.118C255.066 248.118 258.877 250.27 260.78 250.27H265.78C265.78 250.27 273.878 217.787 273.878 214.449C273.878 211.11 273.402 191.285 273.402 191.285L254.828 194.153V194.14Z" fill="#121939"/>
<path d="M240.77 247.877C240.77 247.877 241.484 253.13 240.77 257.19C240.057 261.251 240.77 270.087 240.77 270.087H254.82C254.82 270.087 256.009 268.418 255.295 266.027C254.582 263.635 251.96 261.728 251.009 259.098C250.057 256.469 248.386 251.693 248.148 248.348C247.911 245.003 240.764 247.871 240.764 247.871L240.77 247.877Z" fill="white" stroke="#263238" stroke-linecap="round" stroke-linejoin="round"/>
<path d="M255.3 266.025C254.587 263.634 251.965 261.726 251.013 259.097C250.769 258.42 250.473 257.602 250.171 256.699L250.062 256.712C250.062 256.712 247.916 254.804 246.251 256.235C244.586 257.666 244.104 259.342 244.104 259.342L240.557 259.071C240.242 263.486 240.775 270.092 240.775 270.092H254.825C254.825 270.092 256.014 268.423 255.3 266.032V266.025Z" fill="#121939"/>
<path d="M235.535 193.66C235.535 193.66 236.962 211.809 236.011 216.108C235.059 220.407 235.535 228.528 236.486 232.111C237.437 235.695 238.633 248.591 238.633 248.591C238.633 248.591 242.444 249.307 245.066 249.307H249.116C249.116 249.307 250.78 227.097 250.78 220.407V193.899L235.535 193.66Z" fill="#121939"/>
<path d="M219.812 168.822L229.106 131.086" stroke="#263238" stroke-linecap="round" stroke-linejoin="round"/>
<path d="M245.541 107.209C245.541 107.209 245.246 107.383 244.738 107.692C241.511 109.632 231.369 111.431 230.341 113.699C229.152 116.329 224.113 196.054 224.113 196.054C224.113 196.054 236.974 197.485 245.31 197.485C253.646 197.485 271.269 195.577 276.269 194.617C281.269 193.663 284.605 192.464 284.605 192.464C284.605 192.464 271.153 113.693 269.726 111.785C268.299 109.877 257.418 105.572 257.418 105.572C257.418 105.572 249.121 103.858 245.548 107.203L245.541 107.209Z" fill="white" stroke="#263238" stroke-linecap="round" stroke-linejoin="round"/>
<path d="M256.016 145.422L259.827 196.769" stroke="#263238" stroke-linecap="round" stroke-linejoin="round"/>
<path d="M261.493 106.969L264.353 120.581L260.542 122.727L264.353 128.702L255.78 146.135L244.584 122.965L248.157 120.342L243.395 118.19L245.541 107.207L252.682 105.055L261.493 106.969Z" fill="white" stroke="#263238" stroke-linecap="round" stroke-linejoin="round"/>
<path d="M247.441 109.115L255.777 143.983L258.875 108.638L251.49 104.816L247.441 109.115Z" fill="#121939"/>
<path d="M244.707 108.754L241.66 165.277L256.841 166.173C256.841 166.173 254.707 135.269 253.994 124.879C253.28 114.49 252.92 109.295 252.92 109.295L244.707 108.76V108.754Z" fill="#566EE6" stroke="#01145B" stroke-miterlimit="10"/>
<path d="M260.202 74.9253C260.202 74.9253 253.055 71.4514 247.58 74.1132C242.097 76.775 239.97 80.8547 240.78 84.0257C241.589 87.1966 245.195 98.5657 245.195 98.5657L243.813 107.911L257.407 105.571L257.445 102.562C257.445 102.562 262.317 101.956 263.262 98.2692C263.75 96.3679 265.383 93.0359 265.466 91.0057C265.569 88.4792 264.104 86.1654 264.104 86.1654C264.104 86.1654 264.978 78.5216 260.209 74.9253H260.202Z" fill="white" stroke="#263238" stroke-linecap="round" stroke-linejoin="round"/>
<path d="M260.202 74.9253C260.202 74.9253 253.055 71.4514 247.58 74.1132C242.097 76.775 239.97 80.8547 240.78 84.0257C241.365 86.3137 243.595 93.5772 244.874 96.0715C245.182 95.9812 245.471 95.8072 245.728 95.5301C247.49 93.5901 246.172 94.8276 248.216 93.5966C249.013 93.1132 251.005 92.5331 252.766 82.8076C254.585 72.7855 261.995 75.1251 263.082 78.7601C262.606 78.1736 260.916 75.4602 260.209 74.9253H260.202Z" fill="#121939"/>
<path d="M249.012 89.2407C249.012 89.2407 246.634 84.4456 244.359 86.0955C242.084 87.739 244.803 91.9669 245.69 92.7983C246.576 93.6298 248.402 92.1023 248.402 92.1023" fill="#B2B2B2"/>
<path d="M249.012 89.2407C249.012 89.2407 246.634 84.4456 244.359 86.0955C242.084 87.739 244.803 91.9669 245.69 92.7983C246.576 93.6298 248.402 92.1023 248.402 92.1023" stroke="#263238" stroke-linecap="round" stroke-linejoin="round"/>
<path d="M257.643 86.8105C257.694 87.4293 257.45 87.9513 257.096 87.9771C256.743 88.0029 256.422 87.5259 256.37 86.9137C256.319 86.2949 256.563 85.7729 256.916 85.7471C257.27 85.7213 257.591 86.1983 257.643 86.8105Z" fill="#121939"/>
<path d="M262.631 86.9082C262.682 87.5269 262.438 88.0489 262.085 88.0747C261.731 88.1005 261.41 87.6236 261.358 87.0113C261.307 86.3926 261.551 85.8705 261.905 85.8447C262.258 85.819 262.58 86.2959 262.631 86.9082Z" fill="#121939"/>
<path d="M260.936 84.8203C260.936 84.8203 260.164 87.3854 261.385 89.2867" stroke="#263238" stroke-linecap="round" stroke-linejoin="round"/>
<path d="M257.984 83.3825C257.984 83.3825 255.632 81.6746 253.871 84.7811" stroke="#263238" stroke-linecap="round" stroke-linejoin="round"/>
<path d="M261.148 83.4126C261.148 83.4126 262.742 81.5758 263.784 84.3085" stroke="#263238" stroke-linecap="round" stroke-linejoin="round"/>
<path d="M262.09 90.7031C261.878 91.2316 261.248 91.6505 260.098 91.7537C258.941 91.8568 257.263 91.6506 257.475 91.1221" stroke="#263238" stroke-linecap="round" stroke-linejoin="round"/>
<path d="M261.057 94.5892C261.057 94.5892 257.38 96.3809 255.285 93.1133" stroke="#263238" stroke-linecap="round" stroke-linejoin="round"/>
<path d="M244.089 106.836L241.551 133.319L252.567 134.73L252.92 109.298L244.089 106.836Z" fill="#566EE6" stroke="#01145B" stroke-miterlimit="10"/>
<path d="M238.379 117.062C238.379 117.062 242.203 146.375 242.679 150.673C243.154 154.972 241.727 170.498 241.727 170.498" stroke="#263238" stroke-linejoin="round"/>
<path d="M238.154 150.197L241.014 146.137L245.539 145.898C245.539 145.898 247.204 146.614 247.204 147.329C247.204 148.045 246.49 148.998 246.49 148.998C246.49 148.998 247.917 153.774 246.49 154.967C245.064 156.159 243.392 157.358 240.777 158.073C238.154 158.789 236.252 158.789 236.252 158.789L235.301 151.145L238.161 150.191L238.154 150.197Z" fill="white" stroke="#263238" stroke-linecap="round" stroke-linejoin="round"/>
<path d="M233.187 111.785C232.236 112.024 229.138 113.693 227.712 115.607C226.285 117.515 214.099 155.45 213.386 158.312C212.672 161.173 215.532 163.803 220.533 163.803C225.533 163.803 237.442 161.412 237.442 161.412L238.156 150.185L229.582 150.423L234.344 134.659" fill="white"/>
<path d="M233.187 111.785C232.236 112.024 229.138 113.693 227.712 115.607C226.285 117.515 214.099 155.45 213.386 158.312C212.672 161.173 215.532 163.803 220.533 163.803C225.533 163.803 237.442 161.412 237.442 161.412L238.156 150.185L229.582 150.423L234.344 134.659" stroke="#263238" stroke-linecap="round" stroke-linejoin="round"/>
<path d="M229.582 150.438L221.246 150.676" stroke="#263238" stroke-linecap="round" stroke-linejoin="round"/>
<path d="M218.149 167.155L241.968 168.586C241.968 168.586 242.919 191.511 243.157 195.333C243.394 199.155 241.968 200.347 238.394 201.301C234.821 202.255 219.1 200.347 216.246 198.671C213.386 197.002 218.149 167.148 218.149 167.148V167.155Z" fill="#8C8C8C" stroke="#263238" stroke-linecap="round" stroke-linejoin="round"/>
<path d="M218.148 167.156C218.148 167.156 218.148 182.444 225.058 183.875C231.967 185.305 238.394 168.826 238.394 168.826L218.148 167.156Z" fill="#8C8C8C" stroke="#263238" stroke-linecap="round" stroke-linejoin="round"/>
<path d="M243.158 195.334C242.92 191.512 241.969 168.587 241.969 168.587L236.859 168.277L236.73 168.587C236.73 168.587 233.633 198.44 234.584 199.871C235.535 201.302 235.535 200.825 238.395 201.302C241.969 200.348 243.395 199.149 243.158 195.334Z" fill="#8C8C8C" stroke="#263238" stroke-linecap="round" stroke-linejoin="round"/>
<path d="M252.917 69.4403C245.744 68.4091 238.983 71.6574 236.875 75.099C218.146 105.584 249.247 114.975 249.247 105.481C249.247 97.7727 245.731 85.7398 249.009 79.3077C251.464 74.4868 256.368 69.9817 261.96 76.6201C261.388 74.5319 260.816 70.5682 252.923 69.4403H252.917Z" fill="#566EE6" stroke="#01145B" stroke-miterlimit="10"/>
<path d="M241.549 109.707C241.549 109.707 240.019 111.325 241.574 111.976C243.13 112.627 255.033 112.227 258.208 111.705C262.719 110.958 260.566 109.456 260.541 107.02C260.496 103.32 258.471 103.146 257.623 103.829C256.016 105.118 237.943 107.213 237.512 106.478C237.152 105.86 237.744 108.798 241.549 109.714V109.707Z" fill="#566EE6" stroke="#01145B" stroke-miterlimit="10"/>
</g>
<defs>
<clipPath id="clip0_10058_28235">
<rect width="382" height="272" fill="white"/>
</clipPath>
</defs>
</svg>
