<svg width="1340" height="229" viewBox="0 0 1340 229" fill="none" xmlns="http://www.w3.org/2000/svg">
<g filter="url(#filter0_d_10043_39439)">
<path d="M1296.62 24H43.38C32.6767 24 24 32.0589 24 42C24 51.9411 32.6767 60 43.38 60H1296.62C1307.32 60 1316 51.9411 1316 42C1316 32.0589 1307.32 24 1296.62 24Z" fill="white"/>
</g>
<path d="M541 36H268V48H541V36Z" fill="#96B8FF"/>
<path d="M262 36H42C38.6863 36 36 38.6863 36 42C36 45.3137 38.6863 48 42 48H262C265.314 48 268 45.3137 268 42C268 38.6863 265.314 36 262 36Z" fill="#4676FA"/>
<path d="M541 36H806V48H541V36Z" fill="#C7D9FF"/>
<path d="M806 36H1070V48H806V36Z" fill="#DCE4FF"/>
<path d="M1070 42C1070 38.6863 1072.65 36 1075.96 36C1108.6 36 1265.42 36 1298.11 36C1301.43 36 1304 38.6863 1304 42C1304 45.3137 1301.31 48 1298 48H1076C1072.69 48 1070 45.3137 1070 42Z" fill="#EBF1FF"/>
<path d="M267.25 75C285.199 75 299.75 60.4493 299.75 42.5C299.75 24.5507 285.199 10 267.25 10C249.301 10 234.75 24.5507 234.75 42.5C234.75 60.4493 249.301 75 267.25 75Z" fill="white" fill-opacity="0.6"/>
<g filter="url(#filter1_d_10043_39439)">
<path d="M267.25 65C279.676 65 289.75 54.9264 289.75 42.5C289.75 30.0736 279.676 20 267.25 20C254.824 20 244.75 30.0736 244.75 42.5C244.75 54.9264 254.824 65 267.25 65Z" fill="white"/>
</g>
<g filter="url(#filter2_d_10043_39439)">
<path d="M267.25 56C274.706 56 280.75 49.9558 280.75 42.5C280.75 35.0442 274.706 29 267.25 29C259.794 29 253.75 35.0442 253.75 42.5C253.75 49.9558 259.794 56 267.25 56Z" fill="white"/>
<path d="M263.32 48C263.331 47.694 263.337 47.2407 263.337 46.64C263.337 44.8153 263.241 43.1663 263.048 41.693C262.799 39.8457 262.374 38.2307 261.773 36.848L263.66 35.709C263.977 36.355 264.249 37.0917 264.476 37.919C264.623 38.361 264.799 38.752 265.003 39.092C265.082 38.4913 265.298 37.9303 265.649 37.409C266 36.8877 266.442 36.474 266.975 36.168C267.519 35.862 268.097 35.709 268.709 35.709C269.729 35.709 270.777 36.1453 271.854 37.018L271.004 38.752C270.222 38.4233 269.531 38.259 268.93 38.259C268.318 38.259 267.808 38.395 267.4 38.667C267.003 38.9277 266.805 39.2677 266.805 39.687C266.805 40.0383 266.998 40.3443 267.383 40.605C267.78 40.8657 268.307 40.996 268.964 40.996C269.735 40.996 270.607 40.792 271.582 40.384L272.109 42.611C271.61 42.8717 271.055 43.0813 270.443 43.24C269.842 43.3873 269.23 43.461 268.607 43.461C267.292 43.461 266.153 43.104 265.19 42.39C265.269 43.3873 265.309 44.532 265.309 45.824C265.309 46.3 265.298 47.0253 265.275 48H263.32Z" fill="#151618"/>
</g>
<path d="M216.84 188.072C218.365 187.741 219.538 187.32 220.36 186.808C221.181 186.307 221.677 185.688 221.848 184.952C221.485 185.016 221.101 185.048 220.696 185.048C219.97 185.048 219.314 184.931 218.728 184.696C218.141 184.451 217.725 184.077 217.48 183.576C217.298 183.192 217.208 182.771 217.208 182.312C217.208 181.736 217.33 181.16 217.576 180.584C217.832 180.008 218.168 179.533 218.584 179.16C219.01 178.787 219.469 178.6 219.96 178.6C220.589 178.6 221.149 178.877 221.64 179.432C222.141 179.976 222.525 180.68 222.792 181.544C223.069 182.397 223.208 183.256 223.208 184.12C223.208 185.507 222.69 186.68 221.656 187.64C220.632 188.6 219.202 189.261 217.368 189.624L216.84 188.072ZM218.648 182.6C218.818 182.845 219.112 183.027 219.528 183.144C219.944 183.261 220.424 183.32 220.968 183.32C221.266 183.32 221.56 183.304 221.848 183.272C221.72 182.461 221.485 181.768 221.144 181.192C220.813 180.616 220.408 180.301 219.928 180.248C219.693 180.216 219.464 180.296 219.24 180.488C219.026 180.669 218.85 180.909 218.712 181.208C218.584 181.507 218.52 181.795 218.52 182.072C218.52 182.296 218.562 182.472 218.648 182.6ZM233.613 188.744C232.642 188.744 231.783 188.552 231.037 188.168C230.29 187.784 229.714 187.229 229.309 186.504C228.914 185.779 228.743 184.925 228.797 183.944C228.818 183.336 228.93 182.701 229.133 182.04C229.346 181.368 229.586 180.76 229.853 180.216L231.101 180.792C230.834 181.389 230.621 181.96 230.461 182.504C230.301 183.037 230.221 183.555 230.221 184.056C230.221 185.016 230.514 185.741 231.101 186.232C231.687 186.733 232.525 186.984 233.613 186.984C234.295 186.984 234.909 186.883 235.453 186.68C236.007 186.488 236.461 186.232 236.813 185.912C237.175 185.603 237.426 185.277 237.565 184.936C237.575 184.883 237.437 184.803 237.149 184.696C236.861 184.579 236.37 184.424 235.677 184.232C234.845 183.997 234.258 183.736 233.917 183.448C233.575 183.149 233.405 182.717 233.405 182.152C233.405 181.341 233.607 180.568 234.013 179.832C234.429 179.096 234.978 178.504 235.661 178.056C236.354 177.608 237.079 177.384 237.837 177.384C238.125 177.384 238.418 177.427 238.717 177.512C239.026 177.587 239.25 177.677 239.389 177.784L238.877 179.32C238.749 179.267 238.583 179.224 238.381 179.192C238.178 179.16 237.991 179.144 237.821 179.144C237.341 179.144 236.882 179.261 236.445 179.496C236.018 179.731 235.661 180.029 235.373 180.392C235.095 180.755 234.919 181.128 234.845 181.512C234.834 181.555 234.829 181.619 234.829 181.704C234.829 181.907 234.946 182.083 235.181 182.232C235.415 182.371 235.885 182.536 236.589 182.728C237.25 182.909 237.757 183.085 238.109 183.256C238.461 183.427 238.701 183.613 238.829 183.816C238.957 184.008 239.021 184.248 239.021 184.536C239.021 185.229 238.786 185.896 238.317 186.536C237.858 187.187 237.213 187.715 236.381 188.12C235.559 188.536 234.637 188.744 233.613 188.744ZM239.375 188.12C240.068 187.864 240.692 187.544 241.247 187.16C241.812 186.776 242.255 186.376 242.575 185.96C242.906 185.555 243.071 185.176 243.071 184.824C243.071 184.376 242.788 183.053 242.223 180.856L243.631 180.312C243.876 181.069 244.074 181.869 244.223 182.712C244.383 183.544 244.463 184.248 244.463 184.824C244.463 185.805 244.052 186.728 243.231 187.592C242.42 188.467 241.364 189.144 240.063 189.624L239.375 188.12ZM249.493 185C248.363 185 247.568 184.707 247.109 184.12C246.661 183.523 246.437 182.579 246.437 181.288C246.437 180.115 246.405 178.781 246.341 177.288C246.288 175.784 246.208 174.675 246.101 173.96L247.621 173.624C247.707 174.232 247.776 175.203 247.829 176.536C247.883 177.859 247.909 179.091 247.909 180.232V180.936C247.899 181.576 247.925 182.051 247.989 182.36C248.053 182.669 248.197 182.893 248.421 183.032C248.645 183.171 249.003 183.24 249.493 183.24H249.573L249.669 184.12L249.573 185H249.493ZM257.712 185C257.136 185 256.608 184.84 256.128 184.52C255.658 184.189 255.162 183.661 254.64 182.936C254.352 183.64 253.781 184.163 252.928 184.504C252.085 184.835 251.013 185 249.712 185H249.264V183.24H249.712C250.725 183.24 251.541 183.155 252.16 182.984C252.789 182.803 253.189 182.547 253.36 182.216C253.381 182.109 253.392 182.024 253.392 181.96C253.392 181.427 253.098 180.776 252.512 180.008C251.925 179.229 251.093 178.408 250.016 177.544L250.208 175.944L256.08 173.416L256.56 174.84L251.68 176.952C252.128 177.325 252.581 177.779 253.04 178.312C253.498 178.835 253.882 179.373 254.192 179.928C254.746 180.813 255.205 181.491 255.568 181.96C255.93 182.419 256.277 182.749 256.608 182.952C256.938 183.144 257.306 183.24 257.712 183.24H257.92L258.016 184.12L257.92 185H257.712ZM257.779 183.24H258.099C258.974 183.24 259.678 182.744 260.211 181.752C260.745 180.781 261.251 180.035 261.731 179.512C262.222 178.989 262.761 178.728 263.347 178.728C263.987 178.728 264.499 178.952 264.883 179.4C265.278 179.848 265.587 180.467 265.811 181.256C266.014 181.981 266.201 182.493 266.371 182.792C266.553 183.091 266.798 183.24 267.107 183.24H267.267L267.363 184.12L267.267 185H267.107C266.371 185 265.849 184.595 265.539 183.784C265.507 184.019 265.406 184.237 265.235 184.44C265.065 184.632 264.873 184.787 264.659 184.904C264.446 185.021 264.201 185.08 263.923 185.08C263.134 185.08 262.051 184.637 260.675 183.752C260.355 184.168 259.971 184.483 259.523 184.696C259.075 184.899 258.59 185 258.067 185H257.779V183.24ZM264.499 183.512C264.649 183.299 264.723 183.005 264.723 182.632C264.723 182.28 264.665 181.928 264.547 181.576C264.43 181.213 264.265 180.915 264.051 180.68C263.838 180.445 263.593 180.328 263.315 180.328C262.771 180.328 262.142 181 261.427 182.344C262.003 182.749 262.542 183.053 263.043 183.256C263.555 183.448 263.961 183.544 264.259 183.544C264.334 183.544 264.414 183.533 264.499 183.512ZM267.139 183.24H267.364C267.982 183.24 268.537 183.224 269.028 183.192C268.516 182.648 268.26 182.056 268.26 181.416C268.26 181.299 268.265 181.208 268.276 181.144C268.329 180.717 268.446 180.312 268.628 179.928C268.82 179.533 269.054 179.181 269.332 178.872C269.193 178.84 269.028 178.797 268.836 178.744L269.46 177.112C271.433 177.752 272.969 178.36 274.068 178.936C275.177 179.512 275.945 180.061 276.372 180.584C276.798 181.107 277.012 181.651 277.012 182.216C277.012 182.568 276.942 182.963 276.804 183.4C276.644 183.933 276.292 184.333 275.748 184.6C275.204 184.867 274.553 185 273.796 185C272.921 185 272.062 184.845 271.22 184.536C270.281 184.845 268.996 185 267.364 185H267.139V183.24ZM269.62 181.144C269.62 181.453 269.753 181.752 270.02 182.04C270.297 182.328 270.67 182.584 271.14 182.808C272.068 182.477 272.532 181.928 272.532 181.16C272.532 180.819 272.446 180.504 272.276 180.216C272.116 179.928 271.897 179.725 271.62 179.608C271.588 179.608 271.55 179.597 271.508 179.576L271.299 179.528C271.054 179.496 270.798 179.555 270.532 179.704C270.276 179.853 270.057 180.061 269.876 180.328C269.705 180.595 269.62 180.867 269.62 181.144ZM273.012 183.384C273.289 183.437 273.614 183.464 273.988 183.464C274.489 183.464 274.889 183.384 275.188 183.224C275.497 183.064 275.652 182.819 275.652 182.488C275.652 182.2 275.492 181.891 275.172 181.56C274.852 181.229 274.377 180.893 273.748 180.552C273.78 180.723 273.796 180.904 273.796 181.096C273.796 181.213 273.785 181.379 273.764 181.592C273.646 182.339 273.396 182.936 273.012 183.384ZM292.627 189.768C292.499 189.853 292.237 189.981 291.843 190.152C291.459 190.323 290.915 190.488 290.211 190.648C289.507 190.819 288.717 190.904 287.843 190.904C286.861 190.904 285.965 190.723 285.155 190.36C284.355 189.997 283.72 189.48 283.251 188.808C282.781 188.136 282.547 187.357 282.547 186.472C282.547 185.512 282.776 184.664 283.235 183.928C283.693 183.192 284.307 182.552 285.075 182.008C284.52 181.763 284.077 181.389 283.747 180.888C283.427 180.387 283.267 179.805 283.267 179.144C283.267 178.589 283.4 178.067 283.667 177.576C283.933 177.085 284.296 176.68 284.755 176.36C285.224 176.029 285.736 175.832 286.291 175.768C286.355 175.757 286.445 175.752 286.563 175.752C287.032 175.752 287.512 175.853 288.003 176.056C288.493 176.259 288.947 176.531 289.363 176.872L288.739 178.072C288.408 177.891 288.061 177.752 287.699 177.656C287.347 177.549 287.011 177.496 286.691 177.496C286.285 177.496 285.928 177.576 285.619 177.736C285.309 177.896 285.069 178.104 284.899 178.36C284.728 178.616 284.643 178.883 284.643 179.16C284.643 179.448 284.739 179.725 284.931 179.992C285.123 180.248 285.379 180.456 285.699 180.616C286.029 180.776 286.381 180.856 286.755 180.856C286.883 180.856 287.064 180.835 287.299 180.792C287.885 180.557 288.659 180.301 289.619 180.024L289.955 181.592C288.163 182.104 286.744 182.755 285.699 183.544C284.653 184.333 284.077 185.251 283.971 186.296C283.949 186.84 284.115 187.325 284.467 187.752C284.819 188.189 285.315 188.531 285.955 188.776C286.605 189.021 287.347 189.144 288.179 189.144C288.797 189.144 289.389 189.091 289.955 188.984C290.52 188.877 290.989 188.76 291.363 188.632C291.736 188.515 291.949 188.44 292.003 188.408L292.627 189.768ZM293.512 188.072C295.037 187.741 296.21 187.32 297.032 186.808C297.853 186.307 298.349 185.688 298.52 184.952C298.157 185.016 297.773 185.048 297.368 185.048C296.642 185.048 295.986 184.931 295.4 184.696C294.813 184.451 294.397 184.077 294.152 183.576C293.97 183.192 293.88 182.771 293.88 182.312C293.88 181.736 294.002 181.16 294.248 180.584C294.504 180.008 294.84 179.533 295.256 179.16C295.682 178.787 296.141 178.6 296.632 178.6C297.261 178.6 297.821 178.877 298.312 179.432C298.813 179.976 299.197 180.68 299.464 181.544C299.741 182.397 299.88 183.256 299.88 184.12C299.88 185.507 299.362 186.68 298.328 187.64C297.304 188.6 295.874 189.261 294.04 189.624L293.512 188.072ZM295.32 182.6C295.49 182.845 295.784 183.027 296.2 183.144C296.616 183.261 297.096 183.32 297.64 183.32C297.938 183.32 298.232 183.304 298.52 183.272C298.392 182.461 298.157 181.768 297.816 181.192C297.485 180.616 297.08 180.301 296.6 180.248C296.365 180.216 296.136 180.296 295.912 180.488C295.698 180.669 295.522 180.909 295.384 181.208C295.256 181.507 295.192 181.795 295.192 182.072C295.192 182.296 295.234 182.472 295.32 182.6ZM306.159 185C305.786 185 305.444 184.915 305.135 184.744V184.824C305.135 185.805 304.724 186.728 303.903 187.592C303.092 188.467 302.036 189.144 300.735 189.624L300.047 188.12C300.74 187.864 301.364 187.544 301.919 187.16C302.484 186.776 302.927 186.376 303.247 185.96C303.578 185.555 303.743 185.176 303.743 184.824C303.743 184.376 303.46 183.053 302.895 180.856L304.303 180.312C304.452 180.792 304.596 181.325 304.735 181.912C304.884 182.403 305.066 182.749 305.279 182.952C305.492 183.144 305.786 183.24 306.159 183.24H306.287L306.383 184.12L306.287 185H306.159ZM315.036 185C314.502 184.989 314.06 184.851 313.708 184.584C313.366 184.307 313.121 183.917 312.972 183.416C312.716 183.896 312.396 184.28 312.012 184.568C311.638 184.845 311.228 184.989 310.78 185H310.716C310.236 185 309.83 184.861 309.5 184.584C309.169 184.307 308.961 183.933 308.876 183.464C308.172 184.488 307.281 185 306.204 185H306.139L306.043 184.12L306.139 183.24H306.22C306.604 183.24 306.961 183.155 307.292 182.984C307.633 182.813 307.894 182.595 308.076 182.328C308.289 182.051 308.454 181.747 308.572 181.416C308.7 181.085 308.812 180.728 308.908 180.344L310.252 180.488C310.241 180.541 310.182 180.76 310.076 181.144C309.969 181.528 309.916 181.891 309.916 182.232C309.916 182.563 309.98 182.813 310.108 182.984C310.246 183.155 310.46 183.24 310.748 183.24H310.78C311.366 183.24 311.846 182.893 312.22 182.2C312.358 181.944 312.465 181.656 312.54 181.336C312.625 181.005 312.705 180.627 312.78 180.2L314.124 180.264C313.985 180.989 313.916 181.517 313.916 181.848C313.916 182.307 314.006 182.653 314.188 182.888C314.38 183.123 314.673 183.24 315.068 183.24C315.441 183.24 315.724 183.139 315.916 182.936C316.108 182.723 316.204 182.424 316.204 182.04C316.204 181.699 316.097 181.213 315.884 180.584C315.681 179.944 315.5 179.443 315.34 179.08L316.636 178.36C316.849 178.819 317.062 179.411 317.276 180.136C317.5 180.861 317.612 181.507 317.612 182.072C317.612 182.605 317.505 183.096 317.292 183.544C317.078 183.992 316.78 184.349 316.396 184.616C316.012 184.872 315.58 185 315.1 185H315.036ZM310.828 176.744C310.828 176.744 311.084 176.488 311.596 175.976L311.964 175.608L313.116 176.744L311.964 177.896L310.828 176.744ZM313.772 176.744C314.081 176.435 314.236 176.28 314.236 176.28L314.94 175.608L316.076 176.744L314.94 177.896L313.772 176.744ZM313.452 173.928L314.46 174.952L313.452 175.976L312.412 174.952L313.452 173.928ZM229.528 217C228.888 217 228.35 216.792 227.912 216.376C227.827 217.859 227.368 219.011 226.536 219.832C225.704 220.653 224.574 221.064 223.144 221.064C222.312 221.064 221.555 220.893 220.872 220.552C220.19 220.221 219.646 219.741 219.24 219.112C218.846 218.493 218.648 217.779 218.648 216.968C218.648 216.381 218.75 215.725 218.952 215C219.166 214.264 219.422 213.608 219.72 213.032L220.952 213.608C220.675 214.195 220.462 214.744 220.312 215.256C220.163 215.757 220.088 216.253 220.088 216.744C220.088 217.512 220.366 218.131 220.92 218.6C221.475 219.08 222.216 219.32 223.144 219.32C225.491 219.32 226.616 218.077 226.52 215.592C226.435 213.416 226.339 211.485 226.232 209.8C226.136 208.104 226.04 206.824 225.944 205.96L227.448 205.624C227.576 206.915 227.71 209.523 227.848 213.448H227.864C227.896 213.939 227.96 214.312 228.056 214.568C228.163 214.813 228.328 214.989 228.552 215.096C228.776 215.192 229.102 215.24 229.528 215.24H229.72L229.816 216.12L229.72 217H229.528ZM229.537 215.24H229.665C230.444 215.24 231.025 215.16 231.409 215C231.804 214.829 232.06 214.557 232.177 214.184C232.22 214.045 232.241 213.859 232.241 213.624C232.241 213.283 232.177 212.717 232.049 211.928L233.377 211.656C233.527 212.371 233.601 213.235 233.601 214.248C233.655 214.557 233.799 214.803 234.033 214.984C234.279 215.155 234.588 215.24 234.961 215.24H235.073L235.169 216.12L235.073 217H234.961C234.524 217 234.124 216.893 233.761 216.68C233.399 216.456 233.105 216.163 232.881 215.8C232.615 216.227 232.215 216.536 231.681 216.728C231.159 216.909 230.487 217 229.665 217H229.537V215.24ZM231.617 207.912L232.865 209.16L231.617 210.408L230.369 209.16L231.617 207.912ZM234.912 215.24H235.584C236.704 215.24 237.494 215.139 237.952 214.936C238.411 214.723 238.64 214.392 238.64 213.944C238.63 213.645 238.518 213.16 238.304 212.488C238.091 211.816 237.915 211.341 237.776 211.064L239.104 210.344C239.318 210.771 239.526 211.341 239.728 212.056C239.942 212.771 240.048 213.395 240.048 213.928C240.048 214.941 239.696 215.709 238.992 216.232C238.288 216.744 237.232 217 235.824 217H234.912V215.24ZM238.064 220.376L236.912 219.24L238.064 218.088L239.2 219.24L238.064 220.376ZM235.68 219.8L235.088 220.376L234.72 220.008C234.208 219.496 233.952 219.24 233.952 219.24L235.088 218.088L236.256 219.24L235.68 219.8ZM236.576 222.04L235.568 221.032L236.576 220.008L237.616 221.032L236.576 222.04ZM252.768 217C251.744 217 251.003 216.643 250.544 215.928C249.926 216.12 249.323 216.216 248.736 216.216C247.84 216.216 247.104 216.008 246.528 215.592C245.952 215.165 245.664 214.589 245.664 213.864C245.664 213.021 246 212.307 246.672 211.72C247.355 211.123 248.272 210.605 249.424 210.168L249.312 209.224L250.8 208.92C250.982 210.84 251.136 212.301 251.264 213.304C251.318 213.848 251.392 214.253 251.488 214.52C251.584 214.787 251.728 214.973 251.92 215.08C252.112 215.187 252.395 215.24 252.768 215.24H253.024L253.12 216.12L253.024 217H252.768ZM247.056 213.528C247.024 213.816 247.152 214.056 247.44 214.248C247.739 214.429 248.134 214.52 248.624 214.52C249.04 214.52 249.478 214.451 249.936 214.312C249.904 214.152 249.867 213.891 249.824 213.528C249.728 212.696 249.659 212.115 249.616 211.784C248.923 211.997 248.331 212.269 247.84 212.6C247.35 212.92 247.088 213.229 247.056 213.528ZM252.834 215.24H253.666C254.498 215.24 255.095 215.139 255.458 214.936C255.821 214.733 256.002 214.419 256.002 213.992C256.002 213.704 255.89 213.213 255.666 212.52C255.453 211.816 255.282 211.331 255.154 211.064L256.482 210.344C256.685 210.76 256.893 211.341 257.106 212.088C257.319 212.824 257.426 213.459 257.426 213.992C257.426 214.984 257.101 215.736 256.45 216.248C255.81 216.749 254.882 217 253.666 217H252.834V215.24ZM252.802 219.672C252.802 219.672 253.079 219.395 253.634 218.84L254.05 218.424L254.466 218.84C255.021 219.395 255.298 219.672 255.298 219.672L254.882 220.088C254.327 220.643 254.05 220.92 254.05 220.92C254.05 220.92 253.773 220.643 253.218 220.088L252.802 219.672ZM267.839 221.512C266.901 221.512 266.069 221.336 265.343 220.984C264.618 220.632 264.047 220.115 263.631 219.432C263.215 218.76 263.007 217.96 263.007 217.032C263.007 216.392 263.114 215.704 263.327 214.968C263.551 214.232 263.807 213.571 264.095 212.984L265.327 213.56C265.061 214.157 264.847 214.728 264.687 215.272C264.527 215.805 264.447 216.323 264.447 216.824C264.447 217.795 264.741 218.525 265.327 219.016C265.914 219.517 266.751 219.768 267.839 219.768C268.458 219.768 269.045 219.688 269.599 219.528C270.165 219.368 270.634 219.171 271.007 218.936C271.381 218.712 271.61 218.504 271.695 218.312C271.578 218.12 271.199 217.821 270.559 217.416C269.919 217.011 269.242 216.669 268.527 216.392L268.895 214.728C269.749 214.899 270.506 215.027 271.167 215.112C271.839 215.197 272.49 215.24 273.119 215.24H273.455L273.551 216.12L273.455 217H273.119C272.778 217 272.437 216.984 272.095 216.952C272.746 217.443 273.071 217.917 273.071 218.376C273.061 218.877 272.815 219.373 272.335 219.864C271.855 220.355 271.215 220.749 270.415 221.048C269.626 221.357 268.767 221.512 267.839 221.512ZM282.121 217C281.588 216.989 281.145 216.851 280.793 216.584C280.452 216.307 280.207 215.917 280.057 215.416C279.801 215.896 279.481 216.28 279.097 216.568C278.724 216.845 278.313 216.989 277.865 217H277.801C277.321 217 276.916 216.861 276.585 216.584C276.255 216.307 276.047 215.933 275.961 215.464C275.257 216.488 274.367 217 273.289 217H273.225L273.129 216.12L273.225 215.24H273.305C273.689 215.24 274.047 215.155 274.377 214.984C274.719 214.813 274.98 214.595 275.161 214.328C275.375 214.051 275.54 213.747 275.657 213.416C275.785 213.085 275.897 212.728 275.993 212.344L277.337 212.488C277.327 212.541 277.268 212.76 277.161 213.144C277.055 213.528 277.001 213.891 277.001 214.232C277.001 214.563 277.065 214.813 277.193 214.984C277.332 215.155 277.545 215.24 277.833 215.24H277.865C278.452 215.24 278.932 214.893 279.305 214.2C279.444 213.944 279.551 213.656 279.625 213.336C279.711 213.005 279.791 212.627 279.865 212.2L281.209 212.264C281.071 212.989 281.001 213.517 281.001 213.848C281.001 214.307 281.092 214.653 281.273 214.888C281.465 215.123 281.759 215.24 282.153 215.24C282.527 215.24 282.809 215.139 283.001 214.936C283.193 214.723 283.289 214.424 283.289 214.04C283.289 213.699 283.183 213.213 282.969 212.584C282.767 211.944 282.585 211.443 282.425 211.08L283.721 210.36C283.935 210.819 284.148 211.411 284.361 212.136C284.585 212.861 284.697 213.507 284.697 214.072C284.697 214.605 284.591 215.096 284.377 215.544C284.164 215.992 283.865 216.349 283.481 216.616C283.097 216.872 282.665 217 282.185 217H282.121ZM290.135 217C289.762 217 289.421 216.915 289.111 216.744V216.824C289.111 217.805 288.701 218.728 287.879 219.592C287.069 220.467 286.013 221.144 284.711 221.624L284.023 220.12C284.717 219.864 285.341 219.544 285.895 219.16C286.461 218.776 286.903 218.376 287.223 217.96C287.554 217.555 287.719 217.176 287.719 216.824C287.719 216.376 287.437 215.053 286.871 212.856L288.279 212.312C288.429 212.792 288.573 213.325 288.711 213.912C288.861 214.403 289.042 214.749 289.255 214.952C289.469 215.144 289.762 215.24 290.135 215.24H290.263L290.359 216.12L290.263 217H290.135ZM290.084 215.24H290.212C291.044 215.24 291.689 215.203 292.148 215.128C292.607 215.053 292.937 214.947 293.14 214.808C293.353 214.659 293.497 214.451 293.572 214.184C293.615 214.045 293.636 213.848 293.636 213.592C293.636 213.304 293.609 212.979 293.556 212.616C293.503 212.243 293.471 212.013 293.46 211.928L294.788 211.656C294.937 212.371 295.012 213.235 295.012 214.248C295.065 214.557 295.204 214.803 295.428 214.984C295.663 215.155 295.977 215.24 296.372 215.24H296.484L296.58 216.12L296.484 217H296.372C295.924 217 295.519 216.893 295.156 216.68C294.804 216.456 294.516 216.157 294.292 215.784C294.025 216.232 293.577 216.547 292.948 216.728C292.329 216.909 291.417 217 290.212 217H290.084V215.24ZM291.572 208.04L292.772 209.24L291.572 210.456L290.356 209.24L291.572 208.04ZM294.42 208.04L295.62 209.24L294.42 210.456L293.204 209.24L294.42 208.04ZM305.246 217C304.713 216.989 304.27 216.851 303.918 216.584C303.577 216.307 303.332 215.917 303.182 215.416C302.926 215.896 302.606 216.28 302.222 216.568C301.849 216.845 301.438 216.989 300.99 217H300.926C300.446 217 300.041 216.861 299.71 216.584C299.38 216.307 299.172 215.933 299.086 215.464C298.382 216.488 297.492 217 296.414 217H296.35L296.254 216.12L296.35 215.24H296.43C296.814 215.24 297.172 215.155 297.502 214.984C297.844 214.813 298.105 214.595 298.286 214.328C298.5 214.051 298.665 213.747 298.782 213.416C298.91 213.085 299.022 212.728 299.118 212.344L300.462 212.488C300.452 212.541 300.393 212.76 300.286 213.144C300.18 213.528 300.126 213.891 300.126 214.232C300.126 214.563 300.19 214.813 300.318 214.984C300.457 215.155 300.67 215.24 300.958 215.24H300.99C301.577 215.24 302.057 214.893 302.43 214.2C302.569 213.944 302.676 213.656 302.75 213.336C302.836 213.005 302.916 212.627 302.99 212.2L304.334 212.264C304.196 212.989 304.126 213.517 304.126 213.848C304.126 214.307 304.217 214.653 304.398 214.888C304.59 215.123 304.884 215.24 305.278 215.24C305.652 215.24 305.934 215.139 306.126 214.936C306.318 214.723 306.414 214.424 306.414 214.04C306.414 213.699 306.308 213.213 306.094 212.584C305.892 211.944 305.71 211.443 305.55 211.08L306.846 210.36C307.06 210.819 307.273 211.411 307.486 212.136C307.71 212.861 307.822 213.507 307.822 214.072C307.822 214.605 307.716 215.096 307.502 215.544C307.289 215.992 306.99 216.349 306.606 216.616C306.222 216.872 305.79 217 305.31 217H305.246ZM312.463 217.064C311.599 217.064 310.863 216.941 310.255 216.696C309.647 216.451 309.167 216.179 308.815 215.88L309.519 214.616C309.935 214.84 310.346 215.027 310.751 215.176C311.157 215.315 311.674 215.384 312.303 215.384C312.879 215.384 313.349 215.309 313.711 215.16C314.085 215.011 314.33 214.84 314.447 214.648C314.479 214.563 314.495 214.461 314.495 214.344C314.495 213.885 314.223 213.299 313.679 212.584C313.146 211.859 312.309 211.085 311.167 210.264L312.031 208.744C313.226 209.629 314.165 210.568 314.847 211.56C315.541 212.541 315.887 213.459 315.887 214.312C315.887 214.717 315.813 215.085 315.663 215.416C315.439 215.939 315.034 216.344 314.447 216.632C313.861 216.92 313.199 217.064 312.463 217.064Z" fill="#151618"/>
<path d="M249.031 130.52C249.031 130.52 264.147 139.259 267.277 141.071C268.805 141.956 270.333 139.846 269.243 138.886C268.577 138.299 266.947 137.088 266.271 136.482C265.596 135.877 269.062 138.257 271.381 140.032C272.867 141.169 274.875 138.579 273.827 137.442C272.499 136.003 270.943 135.09 269.085 133.473C267.827 132.379 271.754 135.388 274.484 136.832C276.058 137.661 277.758 135.304 276.757 134.209C275.83 133.198 274.484 131.871 272.113 130.017C270.743 128.945 274.465 131.903 277.325 133.333C278.723 134.032 279.948 131.848 278.984 130.711C275.96 127.138 260.43 113.312 260.43 113.312L253.946 114.594L249.031 130.515V130.52Z" stroke="#151618" stroke-width="1.5" stroke-miterlimit="10"/>
<path d="M256.465 119.744C256.465 122.497 262.693 122.552 264.556 117.941C266.904 118.276 274.972 130.001 279.84 129.95C282.122 129.461 288.336 128.664 288.336 128.664L283.031 112.043L276.374 113.814C270.295 111.764 263.573 107.916 261.216 112.043L256.465 119.744Z" fill="white" stroke="#151618" stroke-width="1.5" stroke-miterlimit="10"/>
<path d="M247.832 111.486L241.949 128.285C241.712 128.963 242.069 129.704 242.746 129.941L247.767 131.7C248.444 131.937 249.186 131.58 249.423 130.902L255.306 114.104C255.543 113.426 255.186 112.685 254.509 112.448L249.488 110.689C248.811 110.452 248.069 110.809 247.832 111.486Z" fill="#DCE4FF" stroke="#151618" stroke-width="1.5" stroke-miterlimit="10"/>
<path d="M279.398 113.015L285.059 130.561C285.283 131.257 286.029 131.638 286.724 131.414L291.742 129.795C292.438 129.571 292.819 128.825 292.595 128.13L286.934 110.583C286.71 109.888 285.965 109.506 285.269 109.73L280.251 111.349C279.556 111.574 279.174 112.319 279.398 113.015Z" fill="#DCE4FF" stroke="#151618" stroke-width="1.5" stroke-miterlimit="10"/>
<path d="M540.75 75C558.699 75 573.25 60.4493 573.25 42.5C573.25 24.5507 558.699 10 540.75 10C522.801 10 508.25 24.5507 508.25 42.5C508.25 60.4493 522.801 75 540.75 75Z" fill="white" fill-opacity="0.6"/>
<g filter="url(#filter3_d_10043_39439)">
<path d="M540.75 65C553.176 65 563.25 54.9264 563.25 42.5C563.25 30.0736 553.176 20 540.75 20C528.324 20 518.25 30.0736 518.25 42.5C518.25 54.9264 528.324 65 540.75 65Z" fill="white"/>
</g>
<g filter="url(#filter4_d_10043_39439)">
<path d="M540.75 56C548.206 56 554.25 49.9558 554.25 42.5C554.25 35.0442 548.206 29 540.75 29C533.294 29 527.25 35.0442 527.25 42.5C527.25 49.9558 533.294 56 540.75 56Z" fill="white"/>
<path d="M542.646 36.423C542.736 37.3183 542.867 37.9643 543.037 38.361C543.207 38.7577 543.45 38.956 543.768 38.956C543.972 38.956 544.13 38.8483 544.244 38.633C544.368 38.4177 544.431 38.106 544.431 37.698C544.431 37.29 544.363 36.797 544.227 36.219L545.961 35.641C546.165 36.389 546.267 37.1087 546.267 37.8C546.267 38.854 546.04 39.721 545.587 40.401C545.145 41.0697 544.544 41.404 543.785 41.404C543.048 41.404 542.425 41.0017 541.915 40.197C541.677 40.639 541.388 40.9847 541.048 41.234C540.708 41.472 540.334 41.591 539.926 41.591C539.54 41.591 539.183 41.523 538.855 41.387C538.991 42.6677 539.059 44.2657 539.059 46.181C539.059 46.997 539.053 47.6033 539.042 48H537.07C537.081 47.694 537.087 47.2407 537.087 46.64C537.087 44.8153 536.99 43.1663 536.798 41.693C536.548 39.8117 536.129 38.1967 535.54 36.848L537.427 35.709C537.653 36.1623 537.84 36.6327 537.988 37.12C538.271 37.8227 538.532 38.327 538.77 38.633C539.019 38.9277 539.348 39.075 539.756 39.075C540.107 39.075 540.396 38.9163 540.623 38.599C540.849 38.2817 540.963 37.817 540.963 37.205C540.963 37.0237 540.957 36.882 540.946 36.78V36.712L542.646 36.423Z" fill="#151618"/>
</g>
<path d="M513.902 188.744C512.931 188.744 512.072 188.552 511.326 188.168C510.579 187.784 510.003 187.229 509.598 186.504C509.203 185.779 509.032 184.925 509.086 183.944C509.107 183.336 509.219 182.701 509.422 182.04C509.635 181.368 509.875 180.76 510.142 180.216L511.39 180.792C511.123 181.389 510.91 181.96 510.75 182.504C510.59 183.037 510.51 183.555 510.51 184.056C510.51 185.016 510.803 185.741 511.39 186.232C511.976 186.733 512.814 186.984 513.902 186.984C514.584 186.984 515.198 186.883 515.742 186.68C516.296 186.488 516.75 186.232 517.102 185.912C517.464 185.603 517.715 185.277 517.854 184.936C517.864 184.883 517.726 184.803 517.438 184.696C517.15 184.579 516.659 184.424 515.966 184.232C515.134 183.997 514.547 183.736 514.206 183.448C513.864 183.149 513.694 182.717 513.694 182.152C513.694 181.341 513.896 180.568 514.302 179.832C514.718 179.096 515.267 178.504 515.95 178.056C516.643 177.608 517.368 177.384 518.126 177.384C518.414 177.384 518.707 177.427 519.006 177.512C519.315 177.587 519.539 177.677 519.678 177.784L519.166 179.32C519.038 179.267 518.872 179.224 518.67 179.192C518.467 179.16 518.28 179.144 518.11 179.144C517.63 179.144 517.171 179.261 516.734 179.496C516.307 179.731 515.95 180.029 515.662 180.392C515.384 180.755 515.208 181.128 515.134 181.512C515.123 181.555 515.118 181.619 515.118 181.704C515.118 181.907 515.235 182.083 515.47 182.232C515.704 182.371 516.174 182.536 516.878 182.728C517.539 182.909 518.046 183.085 518.398 183.256C518.75 183.427 518.99 183.613 519.118 183.816C519.246 184.008 519.31 184.248 519.31 184.536C519.31 185.229 519.075 185.896 518.606 186.536C518.147 187.187 517.502 187.715 516.67 188.12C515.848 188.536 514.926 188.744 513.902 188.744ZM519.883 188.12C520.576 187.864 521.2 187.544 521.755 187.16C522.32 186.776 522.763 186.376 523.083 185.96C523.413 185.555 523.579 185.176 523.579 184.824C523.579 184.376 523.296 183.053 522.731 180.856L524.139 180.312C524.384 181.069 524.581 181.869 524.731 182.712C524.891 183.544 524.971 184.248 524.971 184.824C524.971 185.805 524.56 186.728 523.739 187.592C522.928 188.467 521.872 189.144 520.571 189.624L519.883 188.12ZM523.179 176.28L524.427 177.528L523.179 178.776L521.931 177.528L523.179 176.28ZM530.001 185C528.871 185 528.076 184.707 527.617 184.12C527.169 183.523 526.945 182.579 526.945 181.288C526.945 180.115 526.913 178.781 526.849 177.288C526.796 175.784 526.716 174.675 526.609 173.96L528.129 173.624C528.215 174.232 528.284 175.203 528.337 176.536C528.391 177.859 528.417 179.091 528.417 180.232V180.936C528.407 181.576 528.433 182.051 528.497 182.36C528.561 182.669 528.705 182.893 528.929 183.032C529.153 183.171 529.511 183.24 530.001 183.24H530.081L530.177 184.12L530.081 185H530.001ZM538.856 185C538.322 184.989 537.88 184.851 537.528 184.584C537.186 184.307 536.941 183.917 536.792 183.416C536.536 183.896 536.216 184.28 535.832 184.568C535.458 184.845 535.048 184.989 534.6 185H534.536C534.056 185 533.65 184.861 533.32 184.584C532.989 184.307 532.781 183.933 532.696 183.464C531.992 184.488 531.101 185 530.024 185H529.96L529.864 184.12L529.96 183.24H530.04C530.424 183.24 530.781 183.155 531.112 182.984C531.453 182.813 531.714 182.595 531.896 182.328C532.109 182.051 532.274 181.747 532.392 181.416C532.52 181.085 532.632 180.728 532.728 180.344L534.072 180.488C534.061 180.541 534.002 180.76 533.896 181.144C533.789 181.528 533.736 181.891 533.736 182.232C533.736 182.563 533.8 182.813 533.928 182.984C534.066 183.155 534.28 183.24 534.568 183.24H534.6C535.186 183.24 535.666 182.893 536.04 182.2C536.178 181.944 536.285 181.656 536.36 181.336C536.445 181.005 536.525 180.627 536.6 180.2L537.944 180.264C537.805 180.989 537.736 181.517 537.736 181.848C537.736 182.307 537.826 182.653 538.008 182.888C538.2 183.123 538.493 183.24 538.888 183.24C539.261 183.24 539.544 183.139 539.736 182.936C539.928 182.723 540.024 182.424 540.024 182.04C540.024 181.699 539.917 181.213 539.704 180.584C539.501 179.944 539.32 179.443 539.16 179.08L540.456 178.36C540.669 178.819 540.882 179.411 541.096 180.136C541.32 180.861 541.432 181.507 541.432 182.072C541.432 182.605 541.325 183.096 541.112 183.544C540.898 183.992 540.6 184.349 540.216 184.616C539.832 184.872 539.4 185 538.92 185H538.856ZM547.129 189.064C546.297 189.064 545.539 188.893 544.857 188.552C544.174 188.221 543.63 187.741 543.225 187.112C542.83 186.493 542.633 185.779 542.633 184.968C542.633 184.381 542.734 183.725 542.937 183C543.15 182.264 543.406 181.608 543.705 181.032L544.937 181.608C544.659 182.195 544.446 182.744 544.297 183.256C544.147 183.757 544.073 184.253 544.073 184.744C544.073 185.512 544.35 186.131 544.905 186.6C545.459 187.08 546.201 187.32 547.129 187.32C549.475 187.32 550.601 186.077 550.505 183.592C550.419 181.416 550.323 179.485 550.217 177.8C550.121 176.104 550.025 174.824 549.929 173.96L551.433 173.624C551.571 174.915 551.731 178.211 551.913 183.512C551.966 185.261 551.571 186.621 550.729 187.592C549.897 188.573 548.697 189.064 547.129 189.064ZM556.97 185C555.839 185 555.045 184.707 554.586 184.12C554.138 183.523 553.914 182.579 553.914 181.288C553.914 180.115 553.882 178.781 553.818 177.288C553.765 175.784 553.685 174.675 553.578 173.96L555.098 173.624C555.183 174.232 555.253 175.203 555.306 176.536C555.359 177.859 555.386 179.091 555.386 180.232V180.936C555.375 181.576 555.402 182.051 555.466 182.36C555.53 182.669 555.674 182.893 555.898 183.032C556.122 183.171 556.479 183.24 556.97 183.24H557.05L557.146 184.12L557.05 185H556.97ZM556.897 183.24H557.265C558.225 183.24 559.131 183.133 559.985 182.92C559.377 182.355 558.662 181.549 557.841 180.504L557.905 179.352C558.353 178.904 558.913 178.568 559.585 178.344C560.267 178.109 560.971 177.992 561.697 177.992C562.529 177.992 563.259 178.141 563.889 178.44C564.529 178.728 564.923 179.133 565.073 179.656C565.094 179.72 565.105 179.827 565.105 179.976C565.105 180.403 564.934 180.883 564.593 181.416C564.251 181.949 563.782 182.456 563.185 182.936C563.835 183.139 564.603 183.24 565.489 183.24H565.921L566.017 184.12L565.921 185H565.489C564.646 185 563.899 184.925 563.249 184.776C562.609 184.616 562.006 184.365 561.441 184.024C560.118 184.675 558.726 185 557.265 185H556.897V183.24ZM559.457 180.184C560.246 181.101 560.993 181.789 561.697 182.248C562.273 181.928 562.726 181.581 563.057 181.208C563.387 180.824 563.611 180.488 563.729 180.2C563.622 179.987 563.387 179.816 563.025 179.688C562.673 179.56 562.262 179.496 561.793 179.496C561.355 179.496 560.929 179.555 560.513 179.672C560.107 179.779 559.755 179.949 559.457 180.184ZM565.74 183.24H565.948C567.271 183.24 568.327 183.16 569.116 183C569.916 182.829 570.492 182.547 570.844 182.152C570.588 182.184 570.332 182.2 570.076 182.2C569.351 182.2 568.705 182.083 568.14 181.848C567.575 181.603 567.164 181.24 566.908 180.76C566.705 180.365 566.604 179.923 566.604 179.432C566.604 178.877 566.721 178.339 566.956 177.816C567.201 177.283 567.532 176.851 567.948 176.52C568.375 176.179 568.844 176.008 569.356 176.008C569.953 176.008 570.487 176.243 570.956 176.712C571.425 177.171 571.788 177.773 572.044 178.52C572.3 179.256 572.428 180.019 572.428 180.808C572.428 181.021 572.423 181.181 572.412 181.288C572.327 182.483 571.745 183.4 570.668 184.04C569.591 184.68 568.017 185 565.948 185H565.74V183.24ZM567.916 173.608C568.321 173.181 568.737 172.765 569.164 172.36L569.58 172.776C570.135 173.331 570.412 173.608 570.412 173.608L569.996 174.024C569.441 174.579 569.164 174.856 569.164 174.856L567.916 173.608ZM568.044 179.768C568.204 180.013 568.503 180.205 568.94 180.344C569.377 180.483 569.863 180.552 570.396 180.552C570.652 180.552 570.908 180.536 571.164 180.504C571.057 179.736 570.833 179.064 570.492 178.488C570.151 177.912 569.74 177.624 569.26 177.624C569.015 177.624 568.785 177.704 568.572 177.864C568.369 178.024 568.204 178.232 568.076 178.488C567.959 178.733 567.9 178.979 567.9 179.224C567.9 179.427 567.948 179.608 568.044 179.768ZM502.201 217.048C501.294 217.048 500.579 216.797 500.057 216.296C499.545 215.784 499.289 215.144 499.289 214.376C499.289 214.141 499.326 213.859 499.401 213.528C499.635 212.6 500.158 211.693 500.969 210.808L500.409 210.456L501.289 209.08C502.643 209.88 503.651 210.685 504.313 211.496C504.985 212.296 505.321 213.144 505.321 214.04C505.321 214.616 505.182 215.133 504.905 215.592C504.638 216.051 504.265 216.408 503.785 216.664C503.315 216.92 502.787 217.048 502.201 217.048ZM500.681 213.848C500.67 213.901 500.665 213.976 500.665 214.072C500.665 214.456 500.798 214.765 501.065 215C501.342 215.224 501.742 215.336 502.265 215.336C502.745 215.336 503.139 215.235 503.449 215.032C503.769 214.819 503.945 214.547 503.977 214.216C503.966 213.789 503.811 213.368 503.513 212.952C503.214 212.525 502.745 212.072 502.105 211.592C501.219 212.435 500.745 213.187 500.681 213.848ZM510.173 217C509.042 217 508.248 216.707 507.789 216.12C507.341 215.523 507.117 214.579 507.117 213.288C507.117 212.115 507.085 210.781 507.021 209.288C506.968 207.784 506.888 206.675 506.781 205.96L508.301 205.624C508.386 206.232 508.456 207.203 508.509 208.536C508.562 209.859 508.589 211.091 508.589 212.232V212.936C508.578 213.576 508.605 214.051 508.669 214.36C508.733 214.669 508.877 214.893 509.101 215.032C509.325 215.171 509.682 215.24 510.173 215.24H510.253L510.349 216.12L510.253 217H510.173ZM518.215 217C517.661 217 517.154 216.835 516.695 216.504C516.237 216.163 515.746 215.635 515.223 214.92C514.935 215.624 514.375 216.147 513.543 216.488C512.722 216.829 511.671 217 510.391 217H509.943V215.24H510.391C512.397 215.24 513.597 214.92 513.991 214.28C514.023 214.184 514.039 214.083 514.039 213.976C514.039 213.485 513.746 212.872 513.159 212.136C512.573 211.4 511.751 210.621 510.695 209.8L510.871 208.2L516.759 205.688L517.239 207.096L512.359 209.208C512.807 209.581 513.25 210.013 513.687 210.504C514.135 210.995 514.509 211.501 514.807 212.024C515.319 212.813 515.751 213.437 516.103 213.896C516.466 214.344 516.813 214.68 517.143 214.904C517.485 215.128 517.842 215.24 518.215 215.24H518.439L518.535 216.12L518.439 217H518.215ZM511.047 206.296L516.151 204.152L516.407 204.808L510.951 207.128L511.047 206.296ZM531.264 217C530.848 217 530.464 216.915 530.112 216.744C529.76 216.573 529.456 216.323 529.2 215.992C528.955 216.301 528.661 216.547 528.32 216.728C527.989 216.899 527.632 216.989 527.248 217H527.216H527.168C526.635 216.989 526.197 216.851 525.856 216.584C525.515 216.307 525.269 215.917 525.12 215.416C524.864 215.896 524.544 216.28 524.16 216.568C523.787 216.845 523.376 216.989 522.928 217H522.864C522.384 217 521.979 216.861 521.648 216.584C521.317 216.307 521.109 215.933 521.024 215.464C520.32 216.488 519.429 217 518.352 217H518.288L518.192 216.12L518.288 215.24H518.368C518.752 215.24 519.109 215.155 519.44 214.984C519.781 214.813 520.043 214.595 520.224 214.328C520.437 214.051 520.603 213.747 520.72 213.416C520.848 213.085 520.96 212.728 521.056 212.344L522.4 212.488C522.389 212.541 522.331 212.76 522.224 213.144C522.117 213.528 522.064 213.891 522.064 214.232C522.064 214.563 522.128 214.813 522.256 214.984C522.395 215.155 522.608 215.24 522.896 215.24H522.928C523.515 215.24 523.995 214.893 524.368 214.2C524.507 213.944 524.613 213.656 524.688 213.336C524.773 213.005 524.853 212.627 524.928 212.2L526.272 212.264C526.133 212.989 526.064 213.517 526.064 213.848C526.064 214.307 526.155 214.653 526.336 214.888C526.528 215.123 526.821 215.24 527.216 215.24C527.483 215.24 527.739 215.187 527.984 215.08C528.24 214.963 528.437 214.819 528.576 214.648C528.523 214.435 528.384 213.773 528.16 212.664C528.149 212.589 528.123 212.44 528.08 212.216L529.408 211.864C529.536 212.568 529.637 213.112 529.712 213.496C529.797 213.869 529.872 214.152 529.936 214.344C530.032 214.643 530.187 214.867 530.4 215.016C530.613 215.165 530.901 215.24 531.264 215.24H531.36L531.456 216.12L531.344 217H531.264ZM523.168 209.368C523.541 208.984 523.92 208.605 524.304 208.232L525.456 209.368L525.072 209.752C524.56 210.264 524.304 210.52 524.304 210.52L523.168 209.368ZM527.264 208.232C527.648 208.605 528.027 208.984 528.4 209.368L527.264 210.52C526.891 210.125 526.507 209.741 526.112 209.368L527.264 208.232ZM524.752 207.576C524.752 207.576 524.981 207.347 525.44 206.888L525.776 206.552C526.128 206.883 526.469 207.224 526.8 207.576L526.464 207.912C526.005 208.371 525.776 208.6 525.776 208.6L524.752 207.576ZM531.178 215.24H531.85C532.97 215.24 533.759 215.139 534.218 214.936C534.676 214.723 534.906 214.392 534.906 213.944C534.895 213.645 534.783 213.16 534.57 212.488C534.356 211.816 534.18 211.341 534.042 211.064L535.37 210.344C535.583 210.771 535.791 211.341 535.994 212.056C536.207 212.771 536.314 213.395 536.314 213.928C536.314 214.941 535.962 215.709 535.258 216.232C534.554 216.744 533.498 217 532.09 217H531.178V215.24ZM535.402 219.656C534.868 220.189 534.602 220.456 534.602 220.456L534.186 220.872L532.986 219.656L534.186 218.456L535.402 219.656ZM532.554 219.656C532.02 220.189 531.754 220.456 531.754 220.456L531.338 220.872L530.138 219.656L531.338 218.456L532.554 219.656ZM541.361 217C540.23 217 539.435 216.707 538.977 216.12C538.529 215.523 538.305 214.579 538.305 213.288C538.305 212.115 538.273 210.781 538.209 209.288C538.155 207.784 538.075 206.675 537.969 205.96L539.489 205.624C539.574 206.232 539.643 207.203 539.697 208.536C539.75 209.859 539.777 211.091 539.777 212.232V212.936C539.766 213.576 539.793 214.051 539.857 214.36C539.921 214.669 540.065 214.893 540.289 215.032C540.513 215.171 540.87 215.24 541.361 215.24H541.441L541.537 216.12L541.441 217H541.361ZM541.287 215.24H541.607C542.482 215.24 543.186 214.744 543.719 213.752C544.253 212.781 544.759 212.035 545.239 211.512C545.73 210.989 546.269 210.728 546.855 210.728C547.495 210.728 548.007 210.952 548.391 211.4C548.786 211.848 549.095 212.467 549.319 213.256C549.522 213.981 549.709 214.493 549.879 214.792C550.061 215.091 550.306 215.24 550.615 215.24H550.775L550.871 216.12L550.775 217H550.615C549.879 217 549.357 216.595 549.047 215.784C549.015 216.019 548.914 216.237 548.743 216.44C548.573 216.632 548.381 216.787 548.167 216.904C547.954 217.021 547.709 217.08 547.431 217.08C546.642 217.08 545.559 216.637 544.183 215.752C543.863 216.168 543.479 216.483 543.031 216.696C542.583 216.899 542.098 217 541.575 217H541.287V215.24ZM548.007 215.512C548.157 215.299 548.231 215.005 548.231 214.632C548.231 214.28 548.173 213.928 548.055 213.576C547.938 213.213 547.773 212.915 547.559 212.68C547.346 212.445 547.101 212.328 546.823 212.328C546.279 212.328 545.65 213 544.935 214.344C545.511 214.749 546.05 215.053 546.551 215.256C547.063 215.448 547.469 215.544 547.767 215.544C547.842 215.544 547.922 215.533 548.007 215.512ZM550.615 215.24H551.447C552.279 215.24 552.877 215.139 553.239 214.936C553.602 214.733 553.783 214.419 553.783 213.992C553.783 213.704 553.671 213.213 553.447 212.52C553.234 211.816 553.063 211.331 552.935 211.064L554.263 210.344C554.466 210.76 554.674 211.341 554.887 212.088C555.101 212.824 555.207 213.459 555.207 213.992C555.207 214.984 554.882 215.736 554.231 216.248C553.591 216.749 552.663 217 551.447 217H550.615V215.24ZM551.863 208.216C552.29 207.811 552.706 207.395 553.111 206.968L554.359 208.216L553.111 209.48L551.863 208.216ZM571.684 217C571.044 217 570.506 216.792 570.068 216.376C569.983 217.859 569.524 219.011 568.692 219.832C567.86 220.653 566.73 221.064 565.3 221.064C564.468 221.064 563.711 220.893 563.028 220.552C562.346 220.221 561.802 219.741 561.396 219.112C561.002 218.493 560.804 217.779 560.804 216.968C560.804 216.381 560.906 215.725 561.108 215C561.322 214.264 561.578 213.608 561.876 213.032L563.108 213.608C562.831 214.195 562.618 214.744 562.468 215.256C562.319 215.757 562.244 216.253 562.244 216.744C562.244 217.512 562.522 218.131 563.076 218.6C563.631 219.08 564.372 219.32 565.3 219.32C567.647 219.32 568.772 218.077 568.676 215.592C568.591 213.416 568.495 211.485 568.388 209.8C568.292 208.104 568.196 206.824 568.1 205.96L569.604 205.624C569.732 206.915 569.866 209.523 570.004 213.448H570.02C570.052 213.939 570.116 214.312 570.212 214.568C570.319 214.813 570.484 214.989 570.708 215.096C570.932 215.192 571.258 215.24 571.684 215.24H571.876L571.972 216.12L571.876 217H571.684ZM571.693 215.24H571.821C572.6 215.24 573.181 215.16 573.565 215C573.96 214.829 574.216 214.557 574.333 214.184C574.376 214.045 574.397 213.859 574.397 213.624C574.397 213.283 574.333 212.717 574.205 211.928L575.533 211.656C575.683 212.371 575.757 213.235 575.757 214.248C575.811 214.557 575.955 214.803 576.189 214.984C576.435 215.155 576.744 215.24 577.117 215.24H577.229L577.325 216.12L577.229 217H577.117C576.68 217 576.28 216.893 575.917 216.68C575.555 216.456 575.261 216.163 575.037 215.8C574.771 216.227 574.371 216.536 573.837 216.728C573.315 216.909 572.643 217 571.821 217H571.693V215.24ZM573.773 207.912L575.021 209.16L573.773 210.408L572.525 209.16L573.773 207.912ZM577.068 215.24H577.74C578.86 215.24 579.65 215.139 580.108 214.936C580.567 214.723 580.796 214.392 580.796 213.944C580.786 213.645 580.674 213.16 580.46 212.488C580.247 211.816 580.071 211.341 579.932 211.064L581.26 210.344C581.474 210.771 581.682 211.341 581.884 212.056C582.098 212.771 582.204 213.395 582.204 213.928C582.204 214.941 581.852 215.709 581.148 216.232C580.444 216.744 579.388 217 577.98 217H577.068V215.24ZM580.22 220.376L579.068 219.24L580.22 218.088L581.356 219.24L580.22 220.376ZM577.836 219.8L577.244 220.376L576.876 220.008C576.364 219.496 576.108 219.24 576.108 219.24L577.244 218.088L578.412 219.24L577.836 219.8ZM578.732 222.04L577.724 221.032L578.732 220.008L579.772 221.032L578.732 222.04Z" fill="#151618"/>
<path d="M537.859 138.545L534.346 149.841L531.718 145.513L527 147.367L530.832 136" stroke="#151618" stroke-width="1.5" stroke-miterlimit="10"/>
<path d="M543.5 138L546.183 149.434L549.224 145.377L553.736 147.68L551 135.5" stroke="#151618" stroke-width="1.5" stroke-miterlimit="10"/>
<path d="M540.421 138.538C550.995 138.538 559.566 129.967 559.566 119.394C559.566 108.821 550.995 100.25 540.421 100.25C529.848 100.25 521.277 108.821 521.277 119.394C521.277 129.967 529.848 138.538 540.421 138.538Z" stroke="#151618" stroke-width="1.5" stroke-miterlimit="10"/>
<path d="M540.42 132.242C547.516 132.242 553.269 126.489 553.269 119.392C553.269 112.296 547.516 106.543 540.42 106.543C533.323 106.543 527.57 112.296 527.57 119.392C527.57 126.489 533.323 132.242 540.42 132.242Z" fill="#DCE4FF"/>
<path d="M536 120.796C536.921 121.334 538.144 123.322 538.595 124.5C539.593 121.682 543.46 115.595 545 113.5" stroke="#2451E5" stroke-width="2" stroke-linecap="round" stroke-linejoin="round"/>
<path d="M804.25 75C822.199 75 836.75 60.4493 836.75 42.5C836.75 24.5507 822.199 10 804.25 10C786.301 10 771.75 24.5507 771.75 42.5C771.75 60.4493 786.301 75 804.25 75Z" fill="white" fill-opacity="0.6"/>
<g filter="url(#filter5_d_10043_39439)">
<path d="M804.25 65C816.676 65 826.75 54.9264 826.75 42.5C826.75 30.0736 816.676 20 804.25 20C791.824 20 781.75 30.0736 781.75 42.5C781.75 54.9264 791.824 65 804.25 65Z" fill="white"/>
</g>
<g filter="url(#filter6_d_10043_39439)">
<path d="M804.25 56C811.706 56 817.75 49.9558 817.75 42.5C817.75 35.0442 811.706 29 804.25 29C796.794 29 790.75 35.0442 790.75 42.5C790.75 49.9558 796.794 56 804.25 56Z" fill="white"/>
<path d="M802.406 48C802.417 47.694 802.423 47.2407 802.423 46.64C802.423 44.8153 802.327 43.1663 802.134 41.693C801.885 39.8117 801.465 38.1967 800.876 36.848L802.763 35.709C802.956 36.1057 803.143 36.5703 803.324 37.103C803.505 37.579 803.67 37.9473 803.817 38.208C803.976 38.4687 804.18 38.6783 804.429 38.837C804.678 38.9843 805.007 39.058 805.415 39.058C806.503 39.058 807.047 38.3497 807.047 36.933C807.047 36.6723 807.03 36.389 806.996 36.083L808.781 35.726C808.883 36.2133 808.934 36.7063 808.934 37.205C808.934 37.9983 808.804 38.7293 808.543 39.398C808.282 40.0553 807.886 40.588 807.353 40.996C806.832 41.3927 806.197 41.591 805.449 41.591C805.007 41.591 804.588 41.5003 804.191 41.319V41.37C804.327 42.6507 804.395 44.2487 804.395 46.164C804.395 46.98 804.389 47.592 804.378 48H802.406Z" fill="#151618"/>
</g>
<path d="M770.187 185.16C768.363 185.16 766.933 184.888 765.899 184.344C764.875 183.8 764.315 183.027 764.219 182.024C764.208 181.939 764.203 181.816 764.203 181.656C764.203 181.219 764.261 180.755 764.379 180.264C764.496 179.763 764.64 179.309 764.811 178.904L766.059 179.512C765.76 180.355 765.611 181.011 765.611 181.48C765.611 181.597 765.616 181.688 765.627 181.752C765.712 182.275 766.144 182.685 766.923 182.984C767.712 183.272 768.837 183.416 770.299 183.416C771.611 183.416 772.667 183.315 773.467 183.112C774.267 182.899 774.891 182.573 775.339 182.136C775.787 181.688 776.139 181.085 776.395 180.328L777.755 180.488C777.563 181.075 777.467 181.571 777.467 181.976C777.467 182.168 777.493 182.355 777.547 182.536C777.696 183.005 778.091 183.24 778.731 183.24L778.827 184.12L778.731 185C778.101 185 777.563 184.819 777.115 184.456C776.677 184.093 776.416 183.608 776.331 183C775.712 183.779 774.901 184.333 773.899 184.664C772.907 184.995 771.669 185.16 770.187 185.16ZM769.275 177.592L770.491 178.808L769.275 180.008L768.075 178.808L769.275 177.592ZM772.123 177.592L773.339 178.808L772.123 180.008L770.923 178.808L772.123 177.592ZM778.576 183.24H779.248C780.368 183.24 781.158 183.139 781.616 182.936C782.075 182.723 782.304 182.392 782.304 181.944C782.294 181.645 782.182 181.16 781.968 180.488C781.755 179.816 781.579 179.341 781.44 179.064L782.768 178.344C782.982 178.771 783.19 179.341 783.392 180.056C783.606 180.771 783.712 181.395 783.712 181.928C783.712 182.941 783.36 183.709 782.656 184.232C781.952 184.744 780.896 185 779.488 185H778.576V183.24ZM782.8 187.656C782.267 188.189 782 188.456 782 188.456L781.584 188.872L780.384 187.656L781.584 186.456L782.8 187.656ZM779.952 187.656C779.419 188.189 779.152 188.456 779.152 188.456L778.736 188.872L777.536 187.656L778.736 186.456L779.952 187.656ZM784.871 188.072C786.375 187.752 787.532 187.341 788.343 186.84C789.164 186.349 789.671 185.741 789.863 185.016C788.7 185.016 787.756 184.925 787.031 184.744C786.306 184.552 785.799 184.163 785.511 183.576C785.33 183.192 785.239 182.771 785.239 182.312C785.239 181.736 785.362 181.16 785.607 180.584C785.863 180.008 786.199 179.533 786.615 179.16C787.042 178.787 787.5 178.6 787.991 178.6C788.556 178.6 789.068 178.824 789.527 179.272C789.986 179.709 790.354 180.285 790.631 181C790.919 181.704 791.106 182.451 791.191 183.24H791.815L791.911 184.12L791.815 185H791.159C790.956 186.163 790.354 187.144 789.351 187.944C788.348 188.744 787.031 189.304 785.399 189.624L784.871 188.072ZM786.679 182.6C786.839 182.845 787.196 183.016 787.751 183.112C788.316 183.197 789.026 183.24 789.879 183.24C789.762 182.408 789.522 181.704 789.159 181.128C788.807 180.541 788.38 180.248 787.879 180.248C787.655 180.248 787.436 180.344 787.223 180.536C787.02 180.728 786.855 180.968 786.727 181.256C786.61 181.533 786.551 181.805 786.551 182.072C786.551 182.296 786.594 182.472 786.679 182.6ZM791.639 183.24H791.864C792.482 183.24 793.037 183.224 793.528 183.192C793.016 182.648 792.76 182.056 792.76 181.416C792.76 181.299 792.765 181.208 792.776 181.144C792.829 180.717 792.946 180.312 793.128 179.928C793.32 179.533 793.554 179.181 793.832 178.872C793.693 178.84 793.528 178.797 793.336 178.744L793.96 177.112C795.933 177.752 797.469 178.36 798.568 178.936C799.677 179.512 800.445 180.061 800.872 180.584C801.298 181.107 801.512 181.651 801.512 182.216C801.512 182.568 801.442 182.963 801.304 183.4C801.144 183.933 800.792 184.333 800.248 184.6C799.704 184.867 799.053 185 798.296 185C797.421 185 796.562 184.845 795.72 184.536C794.781 184.845 793.496 185 791.864 185H791.639V183.24ZM794.12 181.144C794.12 181.453 794.253 181.752 794.52 182.04C794.797 182.328 795.17 182.584 795.64 182.808C796.568 182.477 797.032 181.928 797.032 181.16C797.032 180.819 796.946 180.504 796.776 180.216C796.616 179.928 796.397 179.725 796.12 179.608C796.088 179.608 796.05 179.597 796.008 179.576L795.799 179.528C795.554 179.496 795.298 179.555 795.032 179.704C794.776 179.853 794.557 180.061 794.376 180.328C794.205 180.595 794.12 180.867 794.12 181.144ZM797.512 183.384C797.789 183.437 798.114 183.464 798.488 183.464C798.989 183.464 799.389 183.384 799.688 183.224C799.997 183.064 800.152 182.819 800.152 182.488C800.152 182.2 799.992 181.891 799.672 181.56C799.352 181.229 798.877 180.893 798.248 180.552C798.28 180.723 798.296 180.904 798.296 181.096C798.296 181.213 798.285 181.379 798.264 181.592C798.146 182.339 797.896 182.936 797.512 183.384ZM806.391 188.12C807.084 187.864 807.708 187.544 808.263 187.16C808.828 186.776 809.271 186.376 809.591 185.96C809.921 185.555 810.087 185.176 810.087 184.824C810.087 184.376 809.804 183.053 809.239 180.856L810.647 180.312C810.892 181.069 811.089 181.869 811.239 182.712C811.399 183.544 811.479 184.248 811.479 184.824C811.479 185.805 811.068 186.728 810.247 187.592C809.436 188.467 808.38 189.144 807.079 189.624L806.391 188.12ZM809.687 176.28L810.935 177.528L809.687 178.776L808.439 177.528L809.687 176.28ZM813.325 184.904C813.41 184.264 813.453 183.144 813.453 181.544C813.453 180.083 813.416 178.584 813.341 177.048C813.277 175.501 813.202 174.472 813.117 173.96L814.637 173.624C814.712 174.157 814.786 175.208 814.861 176.776C814.936 178.344 814.973 179.859 814.973 181.32C814.973 182.984 814.92 184.237 814.813 185.08L813.325 184.904ZM820.893 185C820.52 185 820.179 184.915 819.869 184.744V184.824C819.869 185.805 819.459 186.728 818.637 187.592C817.827 188.467 816.771 189.144 815.469 189.624L814.781 188.12C815.475 187.864 816.099 187.544 816.653 187.16C817.219 186.776 817.661 186.376 817.981 185.96C818.312 185.555 818.477 185.176 818.477 184.824C818.477 184.376 818.195 183.053 817.629 180.856L819.037 180.312C819.187 180.792 819.331 181.325 819.469 181.912C819.619 182.403 819.8 182.749 820.013 182.952C820.227 183.144 820.52 183.24 820.893 183.24H821.021L821.117 184.12L821.021 185H820.893ZM820.826 183.24H822.202C823.514 183.24 824.741 183.085 825.882 182.776C827.023 182.467 828.186 181.997 829.37 181.368L829.642 181.224C829.087 181.064 828.506 180.829 827.898 180.52C826.906 179.997 826.069 179.736 825.386 179.736C824.949 179.736 824.554 179.864 824.202 180.12C823.85 180.376 823.589 180.669 823.418 181L822.394 180.28C822.757 179.555 823.194 179.005 823.706 178.632C824.218 178.259 824.789 178.072 825.418 178.072C825.877 178.072 826.309 178.152 826.714 178.312C827.13 178.461 827.711 178.728 828.458 179.112C829.151 179.464 829.706 179.725 830.122 179.896C830.538 180.067 831.002 180.205 831.514 180.312L831.578 181.864C831.375 181.917 831.119 182.024 830.81 182.184C830.501 182.333 830.165 182.509 829.802 182.712C828.341 183.491 827.029 184.067 825.866 184.44C824.714 184.813 823.439 185 822.042 185H820.826V183.24ZM833.263 184.904C833.348 184.264 833.391 183.144 833.391 181.544C833.391 180.083 833.353 178.584 833.279 177.048C833.215 175.501 833.14 174.472 833.055 173.96L834.575 173.624C834.649 174.157 834.724 175.208 834.799 176.776C834.873 178.344 834.911 179.859 834.911 181.32C834.911 182.984 834.857 184.237 834.751 185.08L833.263 184.904ZM770.949 220.072C772.453 219.752 773.61 219.341 774.421 218.84C775.242 218.349 775.749 217.741 775.941 217.016C774.778 217.016 773.834 216.925 773.109 216.744C772.384 216.552 771.877 216.163 771.589 215.576C771.408 215.192 771.317 214.771 771.317 214.312C771.317 213.736 771.44 213.16 771.685 212.584C771.941 212.008 772.277 211.533 772.693 211.16C773.12 210.787 773.578 210.6 774.069 210.6C774.634 210.6 775.146 210.824 775.605 211.272C776.064 211.709 776.432 212.285 776.709 213C776.997 213.704 777.184 214.451 777.269 215.24H777.893L777.989 216.12L777.893 217H777.237C777.034 218.163 776.432 219.144 775.429 219.944C774.426 220.744 773.109 221.304 771.477 221.624L770.949 220.072ZM772.757 214.6C772.917 214.845 773.274 215.016 773.829 215.112C774.394 215.197 775.104 215.24 775.957 215.24C775.84 214.408 775.6 213.704 775.237 213.128C774.885 212.541 774.458 212.248 773.957 212.248C773.733 212.248 773.514 212.344 773.301 212.536C773.098 212.728 772.933 212.968 772.805 213.256C772.688 213.533 772.629 213.805 772.629 214.072C772.629 214.296 772.672 214.472 772.757 214.6ZM777.686 215.24H778.358C779.478 215.24 780.267 215.139 780.726 214.936C781.184 214.723 781.414 214.392 781.414 213.944C781.403 213.645 781.291 213.16 781.078 212.488C780.864 211.816 780.688 211.341 780.55 211.064L781.878 210.344C782.091 210.771 782.299 211.341 782.502 212.056C782.715 212.771 782.822 213.395 782.822 213.928C782.822 214.941 782.47 215.709 781.766 216.232C781.062 216.744 780.006 217 778.598 217H777.686V215.24ZM779.19 207.128L780.406 208.328C779.872 208.861 779.606 209.128 779.606 209.128L779.19 209.544L777.99 208.328L779.19 207.128ZM782.038 207.128L783.254 208.328C782.72 208.861 782.454 209.128 782.454 209.128L782.038 209.544L780.838 208.328L782.038 207.128ZM783.549 204.064C784.519 204.021 785.234 203.824 785.693 203.472C785.277 203.44 784.946 203.307 784.701 203.072C784.455 202.827 784.333 202.512 784.333 202.128C784.333 201.723 784.477 201.376 784.765 201.088C785.053 200.789 785.378 200.64 785.741 200.64C785.826 200.64 785.943 200.661 786.093 200.704C786.381 200.8 786.599 200.981 786.749 201.248C786.898 201.515 786.973 201.824 786.973 202.176C786.973 202.667 786.834 203.125 786.557 203.552C786.279 203.979 785.885 204.299 785.373 204.512C784.861 204.715 784.322 204.827 783.757 204.848L783.549 204.064ZM785.005 202.032C785.005 202.245 785.111 202.427 785.325 202.576C785.549 202.715 785.847 202.784 786.221 202.784C786.274 202.603 786.301 202.448 786.301 202.32C786.301 202.075 786.237 201.861 786.109 201.68C785.991 201.499 785.831 201.408 785.629 201.408C785.458 201.408 785.309 201.472 785.181 201.6C785.063 201.717 785.005 201.861 785.005 202.032ZM784.684 216.904C784.77 216.264 784.812 215.144 784.812 213.544C784.812 212.083 784.775 210.584 784.7 209.048C784.636 207.501 784.562 206.472 784.476 205.96L785.996 205.624C786.071 206.157 786.146 207.208 786.22 208.776C786.295 210.344 786.332 211.859 786.332 213.32C786.332 214.984 786.279 216.237 786.172 217.08L784.684 216.904ZM804.265 216.12L804.169 217C802.483 217 801.182 216.899 800.265 216.696C799.305 217.016 798.259 217.176 797.129 217.176C796.179 217.176 795.262 217.085 794.377 216.904C793.502 216.712 792.718 216.461 792.025 216.152L792.537 214.552C793.059 214.797 793.689 215 794.425 215.16C794.713 214.627 795.017 214.131 795.337 213.672C795.369 213.288 795.385 212.84 795.385 212.328C795.385 211.261 795.331 210.067 795.225 208.744C795.118 207.421 795.017 206.499 794.921 205.976L796.441 205.624C796.526 206.147 796.606 206.936 796.681 207.992C796.766 209.037 796.809 210.083 796.809 211.128L796.793 211.944C797.369 211.379 797.955 210.952 798.553 210.664C799.15 210.365 799.742 210.211 800.329 210.2C800.905 210.2 801.422 210.323 801.881 210.568C802.35 210.813 802.713 211.149 802.969 211.576C803.235 212.003 803.369 212.488 803.369 213.032C803.369 213.896 803.065 214.664 802.457 215.336C803.097 215.272 803.667 215.24 804.169 215.24L804.265 216.12ZM795.849 215.384C796.403 215.427 796.825 215.448 797.113 215.448C798.073 215.448 798.926 215.336 799.673 215.112C800.419 214.877 800.995 214.579 801.401 214.216C801.817 213.853 802.025 213.475 802.025 213.08C802.025 212.739 801.886 212.456 801.609 212.232C801.331 211.997 800.947 211.88 800.457 211.88C799.699 211.88 798.921 212.184 798.121 212.792C797.321 213.4 796.563 214.264 795.849 215.384ZM812.895 217C812.362 216.989 811.919 216.851 811.567 216.584C811.226 216.307 810.98 215.917 810.831 215.416C810.575 215.896 810.255 216.28 809.871 216.568C809.498 216.845 809.087 216.989 808.639 217H808.575C808.095 217 807.69 216.861 807.359 216.584C807.028 216.307 806.82 215.933 806.735 215.464C806.031 216.488 805.14 217 804.063 217H803.999L803.903 216.12L803.999 215.24H804.079C804.463 215.24 804.82 215.155 805.151 214.984C805.492 214.813 805.754 214.595 805.935 214.328C806.148 214.051 806.314 213.747 806.431 213.416C806.559 213.085 806.671 212.728 806.767 212.344L808.111 212.488C808.1 212.541 808.042 212.76 807.935 213.144C807.828 213.528 807.775 213.891 807.775 214.232C807.775 214.563 807.839 214.813 807.967 214.984C808.106 215.155 808.319 215.24 808.607 215.24H808.639C809.226 215.24 809.706 214.893 810.079 214.2C810.218 213.944 810.324 213.656 810.399 213.336C810.484 213.005 810.564 212.627 810.639 212.2L811.983 212.264C811.844 212.989 811.775 213.517 811.775 213.848C811.775 214.307 811.866 214.653 812.047 214.888C812.239 215.123 812.532 215.24 812.927 215.24C813.3 215.24 813.583 215.139 813.775 214.936C813.967 214.723 814.063 214.424 814.063 214.04C814.063 213.699 813.956 213.213 813.743 212.584C813.54 211.944 813.359 211.443 813.199 211.08L814.495 210.36C814.708 210.819 814.922 211.411 815.135 212.136C815.359 212.861 815.471 213.507 815.471 214.072C815.471 214.605 815.364 215.096 815.151 215.544C814.938 215.992 814.639 216.349 814.255 216.616C813.871 216.872 813.439 217 812.959 217H812.895ZM816.512 220.072C818.016 219.752 819.173 219.341 819.984 218.84C820.805 218.349 821.312 217.741 821.504 217.016C820.341 217.016 819.397 216.925 818.672 216.744C817.946 216.552 817.44 216.163 817.152 215.576C816.97 215.192 816.88 214.771 816.88 214.312C816.88 213.736 817.002 213.16 817.248 212.584C817.504 212.008 817.84 211.533 818.256 211.16C818.682 210.787 819.141 210.6 819.632 210.6C820.197 210.6 820.709 210.824 821.168 211.272C821.626 211.709 821.994 212.285 822.272 213C822.56 213.704 822.746 214.451 822.832 215.24H823.456L823.552 216.12L823.456 217H822.8C822.597 218.163 821.994 219.144 820.992 219.944C819.989 220.744 818.672 221.304 817.04 221.624L816.512 220.072ZM818.32 214.6C818.48 214.845 818.837 215.016 819.392 215.112C819.957 215.197 820.666 215.24 821.52 215.24C821.402 214.408 821.162 213.704 820.8 213.128C820.448 212.541 820.021 212.248 819.52 212.248C819.296 212.248 819.077 212.344 818.864 212.536C818.661 212.728 818.496 212.968 818.368 213.256C818.25 213.533 818.192 213.805 818.192 214.072C818.192 214.296 818.234 214.472 818.32 214.6ZM823.248 215.24H823.92C825.04 215.24 825.829 215.139 826.288 214.936C826.747 214.723 826.976 214.392 826.976 213.944C826.965 213.645 826.853 213.16 826.64 212.488C826.427 211.816 826.251 211.341 826.112 211.064L827.44 210.344C827.653 210.771 827.861 211.341 828.064 212.056C828.277 212.771 828.384 213.395 828.384 213.928C828.384 214.941 828.032 215.709 827.328 216.232C826.624 216.744 825.568 217 824.16 217H823.248V215.24ZM824.752 207.128L825.968 208.328C825.435 208.861 825.168 209.128 825.168 209.128L824.752 209.544L823.552 208.328L824.752 207.128ZM827.6 207.128L828.816 208.328C828.283 208.861 828.016 209.128 828.016 209.128L827.6 209.544L826.4 208.328L827.6 207.128Z" fill="#151618"/>
<path d="M796.54 148.84C804.85 145.58 816.08 138.63 816.08 122.05C816.08 118.04 816.08 112.03 816.08 112.03C802.89 112.02 796.54 102 796.54 102C796.54 102 790.19 112.02 777 112.02V122.04C777 138.62 787.1 145.03 796.54 148.83V148.84Z" stroke="#151618" stroke-width="1.5" stroke-linecap="round" stroke-linejoin="round"/>
<path d="M784.22 135.209C784.22 122.609 792.41 112.079 803.35 109.509C798.75 106.739 796.5 103.199 796.5 103.199C796.5 103.199 790.46 112.739 777.91 112.739V122.279C777.91 130.809 780.72 136.499 784.72 140.509C784.4 138.799 784.23 137.029 784.23 135.209H784.22Z" fill="#DCE4FF"/>
<path d="M811.781 141.929C817.431 141.929 822.011 137.349 822.011 131.699C822.011 126.049 817.431 121.469 811.781 121.469C806.131 121.469 801.551 126.049 801.551 131.699C801.551 137.349 806.131 141.929 811.781 141.929Z" fill="white" stroke="#151618" stroke-linecap="round" stroke-linejoin="round"/>
<path d="M805.801 129.835C805.718 129.776 805.668 129.702 805.65 129.614C805.632 129.525 805.659 129.434 805.73 129.339C806.462 128.335 807.38 127.556 808.484 127.001C809.588 126.446 810.766 126.169 812.016 126.169C813.268 126.169 814.448 126.438 815.558 126.975C816.668 127.512 817.595 128.289 818.338 129.303C818.409 129.41 818.433 129.504 818.409 129.587C818.386 129.669 818.338 129.74 818.267 129.799C818.197 129.858 818.114 129.885 818.02 129.879C817.925 129.874 817.842 129.823 817.772 129.728C817.122 128.808 816.287 128.102 815.266 127.613C814.245 127.123 813.162 126.878 812.016 126.877C810.871 126.877 809.797 127.122 808.794 127.613C807.79 128.103 806.958 128.808 806.297 129.728C806.226 129.835 806.143 129.894 806.049 129.905C805.954 129.917 805.872 129.894 805.801 129.835ZM814.017 138.565C812.79 138.258 811.786 137.647 811.007 136.732C810.228 135.817 809.838 134.698 809.838 133.376C809.838 132.786 810.051 132.29 810.476 131.889C810.901 131.487 811.414 131.287 812.016 131.287C812.619 131.287 813.132 131.487 813.557 131.889C813.982 132.29 814.195 132.786 814.195 133.376C814.195 133.766 814.342 134.094 814.637 134.359C814.932 134.625 815.281 134.758 815.682 134.758C816.083 134.758 816.426 134.625 816.709 134.359C816.992 134.094 817.134 133.766 817.134 133.376C817.134 132.007 816.632 130.856 815.629 129.923C814.625 128.991 813.427 128.524 812.034 128.524C810.641 128.524 809.443 128.991 808.439 129.923C807.436 130.856 806.934 132.001 806.934 133.359C806.934 133.642 806.961 133.996 807.014 134.421C807.068 134.846 807.194 135.342 807.395 135.909C807.43 136.015 807.427 136.109 807.386 136.192C807.345 136.275 807.277 136.334 807.182 136.369C807.088 136.404 806.996 136.402 806.908 136.361C806.82 136.319 806.758 136.251 806.722 136.157C806.545 135.696 806.418 135.239 806.341 134.784C806.265 134.33 806.226 133.861 806.226 133.376C806.226 131.806 806.796 130.49 807.935 129.427C809.074 128.365 810.435 127.834 812.016 127.834C813.61 127.834 814.98 128.365 816.125 129.427C817.27 130.49 817.842 131.806 817.842 133.376C817.842 133.967 817.633 134.459 817.214 134.855C816.795 135.25 816.285 135.448 815.682 135.448C815.08 135.448 814.564 135.251 814.133 134.855C813.702 134.46 813.487 133.967 813.486 133.376C813.486 132.987 813.342 132.659 813.053 132.393C812.764 132.127 812.418 131.995 812.016 131.995C811.615 131.995 811.27 132.128 810.98 132.394C810.691 132.66 810.546 132.987 810.547 133.376C810.547 134.521 810.886 135.478 811.565 136.245C812.244 137.012 813.121 137.55 814.195 137.857C814.301 137.892 814.372 137.951 814.407 138.034C814.442 138.116 814.448 138.205 814.425 138.299C814.401 138.382 814.354 138.453 814.283 138.512C814.212 138.571 814.124 138.588 814.017 138.565ZM808.103 126.134C808.008 126.193 807.914 126.207 807.82 126.178C807.725 126.149 807.654 126.087 807.607 125.992C807.56 125.897 807.548 125.812 807.572 125.736C807.595 125.659 807.654 125.591 807.749 125.532C808.41 125.177 809.1 124.906 809.821 124.717C810.541 124.528 811.273 124.434 812.016 124.434C812.772 124.434 813.51 124.525 814.23 124.708C814.95 124.892 815.647 125.154 816.32 125.496C816.426 125.555 816.488 125.626 816.506 125.709C816.524 125.791 816.515 125.874 816.479 125.957C816.444 126.039 816.384 126.104 816.302 126.151C816.219 126.199 816.119 126.193 816.001 126.134C815.375 125.815 814.729 125.57 814.061 125.399C813.394 125.228 812.712 125.142 812.016 125.142C811.332 125.142 810.659 125.222 809.998 125.381C809.337 125.541 808.705 125.792 808.103 126.134ZM810.192 138.317C809.496 137.585 808.962 136.838 808.59 136.077C808.219 135.316 808.033 134.416 808.032 133.376C808.032 132.302 808.422 131.396 809.201 130.658C809.98 129.92 810.919 129.551 812.016 129.551C813.114 129.551 814.059 129.92 814.85 130.658C815.641 131.397 816.036 132.302 816.036 133.376C816.036 133.483 816.004 133.568 815.939 133.633C815.874 133.699 815.789 133.731 815.682 133.73C815.588 133.73 815.505 133.698 815.434 133.633C815.363 133.569 815.328 133.483 815.328 133.376C815.328 132.491 815 131.75 814.345 131.154C813.689 130.558 812.913 130.26 812.016 130.26C811.119 130.26 810.349 130.558 809.706 131.154C809.063 131.751 808.741 132.491 808.74 133.376C808.74 134.333 808.906 135.144 809.236 135.812C809.567 136.479 810.051 137.149 810.688 137.821C810.759 137.892 810.795 137.975 810.795 138.069C810.795 138.163 810.759 138.246 810.688 138.317C810.617 138.388 810.535 138.423 810.44 138.423C810.346 138.423 810.263 138.388 810.192 138.317ZM815.54 137.113C814.49 137.113 813.578 136.759 812.804 136.05C812.031 135.342 811.644 134.451 811.645 133.376C811.645 133.282 811.677 133.199 811.742 133.128C811.807 133.058 811.893 133.022 811.999 133.022C812.105 133.022 812.191 133.058 812.256 133.128C812.321 133.199 812.353 133.282 812.353 133.376C812.353 134.262 812.672 134.988 813.309 135.554C813.947 136.121 814.69 136.404 815.54 136.404C815.611 136.404 815.712 136.399 815.841 136.387C815.971 136.375 816.107 136.357 816.249 136.334C816.355 136.31 816.447 136.325 816.524 136.378C816.601 136.432 816.651 136.511 816.674 136.617C816.697 136.711 816.68 136.794 816.621 136.865C816.562 136.936 816.485 136.983 816.39 137.007C816.178 137.066 815.992 137.098 815.833 137.104C815.674 137.11 815.576 137.113 815.54 137.113Z" fill="#151618"/>
<path d="M1069.25 75C1087.2 75 1101.75 60.4493 1101.75 42.5C1101.75 24.5507 1087.2 10 1069.25 10C1051.3 10 1036.75 24.5507 1036.75 42.5C1036.75 60.4493 1051.3 75 1069.25 75Z" fill="white" fill-opacity="0.6"/>
<g filter="url(#filter7_d_10043_39439)">
<path d="M1069.25 65C1081.68 65 1091.75 54.9264 1091.75 42.5C1091.75 30.0736 1081.68 20 1069.25 20C1056.82 20 1046.75 30.0736 1046.75 42.5C1046.75 54.9264 1056.82 65 1069.25 65Z" fill="white"/>
</g>
<g filter="url(#filter8_d_10043_39439)">
<path d="M1069.25 56C1076.71 56 1082.75 49.9558 1082.75 42.5C1082.75 35.0442 1076.71 29 1069.25 29C1061.79 29 1055.75 35.0442 1055.75 42.5C1055.75 49.9558 1061.79 56 1069.25 56Z" fill="white"/>
<path d="M1069.19 48C1069.2 47.694 1069.21 47.2407 1069.21 46.64C1069.21 44.8153 1069.11 43.1663 1068.92 41.693C1068.67 39.8457 1068.25 38.2307 1067.64 36.848L1069.53 35.709C1070.23 37.137 1070.72 39.024 1070.98 41.37C1071.11 42.73 1071.18 44.243 1071.18 45.909C1071.18 46.3737 1071.17 47.0707 1071.15 48H1069.19Z" fill="#151618"/>
</g>
<path d="M1028.42 185C1027.78 185 1027.24 184.792 1026.8 184.376C1026.72 185.859 1026.26 187.011 1025.43 187.832C1024.59 188.653 1023.46 189.064 1022.03 189.064C1021.2 189.064 1020.45 188.893 1019.76 188.552C1019.08 188.221 1018.54 187.741 1018.13 187.112C1017.74 186.493 1017.54 185.779 1017.54 184.968C1017.54 184.381 1017.64 183.725 1017.84 183C1018.06 182.264 1018.31 181.608 1018.61 181.032L1019.84 181.608C1019.57 182.195 1019.35 182.744 1019.2 183.256C1019.05 183.757 1018.98 184.253 1018.98 184.744C1018.98 185.512 1019.26 186.131 1019.81 186.6C1020.37 187.08 1021.11 187.32 1022.03 187.32C1024.38 187.32 1025.51 186.077 1025.41 183.592C1025.33 181.416 1025.23 179.485 1025.12 177.8C1025.03 176.104 1024.93 174.824 1024.83 173.96L1026.34 173.624C1026.47 174.915 1026.6 177.523 1026.74 181.448H1026.75C1026.79 181.939 1026.85 182.312 1026.95 182.568C1027.05 182.813 1027.22 182.989 1027.44 183.096C1027.67 183.192 1027.99 183.24 1028.42 183.24H1028.61L1028.71 184.12L1028.61 185H1028.42ZM1028.43 183.24H1028.56C1029.39 183.24 1030.03 183.203 1030.49 183.128C1030.95 183.053 1031.28 182.947 1031.48 182.808C1031.7 182.659 1031.84 182.451 1031.92 182.184C1031.96 182.045 1031.98 181.848 1031.98 181.592C1031.98 181.304 1031.95 180.979 1031.9 180.616C1031.85 180.243 1031.81 180.013 1031.8 179.928L1033.13 179.656C1033.28 180.371 1033.36 181.235 1033.36 182.248C1033.41 182.557 1033.55 182.803 1033.77 182.984C1034.01 183.155 1034.32 183.24 1034.72 183.24H1034.83L1034.92 184.12L1034.83 185H1034.72C1034.27 185 1033.86 184.893 1033.5 184.68C1033.15 184.456 1032.86 184.157 1032.64 183.784C1032.37 184.232 1031.92 184.547 1031.29 184.728C1030.67 184.909 1029.76 185 1028.56 185H1028.43V183.24ZM1032.67 187.624C1032.13 188.157 1031.87 188.424 1031.87 188.424L1031.45 188.84L1030.25 187.624L1031.45 186.424L1032.67 187.624ZM1029.82 187.624C1029.29 188.157 1029.02 188.424 1029.02 188.424L1028.6 188.84L1027.4 187.624L1028.6 186.424L1029.82 187.624ZM1034.66 183.24H1034.98C1035.86 183.24 1036.56 182.744 1037.09 181.752C1037.63 180.781 1038.13 180.035 1038.61 179.512C1039.1 178.989 1039.64 178.728 1040.23 178.728C1040.87 178.728 1041.38 178.952 1041.77 179.4C1042.16 179.848 1042.47 180.467 1042.69 181.256C1042.9 181.981 1043.08 182.493 1043.25 182.792C1043.44 183.091 1043.68 183.24 1043.99 183.24H1044.15L1044.25 184.12L1044.15 185H1043.99C1043.25 185 1042.73 184.595 1042.42 183.784C1042.39 184.019 1042.29 184.237 1042.12 184.44C1041.95 184.632 1041.76 184.787 1041.54 184.904C1041.33 185.021 1041.08 185.08 1040.81 185.08C1040.02 185.08 1038.93 184.637 1037.56 183.752C1037.24 184.168 1036.85 184.483 1036.41 184.696C1035.96 184.899 1035.47 185 1034.95 185H1034.66V183.24ZM1041.38 183.512C1041.53 183.299 1041.61 183.005 1041.61 182.632C1041.61 182.28 1041.55 181.928 1041.43 181.576C1041.31 181.213 1041.15 180.915 1040.93 180.68C1040.72 180.445 1040.48 180.328 1040.2 180.328C1039.65 180.328 1039.02 181 1038.31 182.344C1038.89 182.749 1039.42 183.053 1039.93 183.256C1040.44 183.448 1040.84 183.544 1041.14 183.544C1041.22 183.544 1041.3 183.533 1041.38 183.512ZM1052.44 185C1051.86 185 1051.33 184.84 1050.85 184.52C1050.38 184.189 1049.89 183.661 1049.37 182.936C1049.08 183.64 1048.51 184.163 1047.65 184.504C1046.81 184.835 1045.74 185 1044.44 185H1043.99V183.24H1044.44C1045.45 183.24 1046.27 183.155 1046.89 182.984C1047.52 182.803 1047.92 182.547 1048.09 182.216C1048.11 182.109 1048.12 182.024 1048.12 181.96C1048.12 181.427 1047.82 180.776 1047.24 180.008C1046.65 179.229 1045.82 178.408 1044.74 177.544L1044.93 175.944L1050.81 173.416L1051.29 174.84L1046.41 176.952C1046.85 177.325 1047.31 177.779 1047.77 178.312C1048.22 178.835 1048.61 179.373 1048.92 179.928C1049.47 180.813 1049.93 181.491 1050.29 181.96C1050.66 182.419 1051 182.749 1051.33 182.952C1051.66 183.144 1052.03 183.24 1052.44 183.24H1052.65L1052.74 184.12L1052.65 185H1052.44ZM1052.51 183.24H1053.18C1054.3 183.24 1055.09 183.139 1055.55 182.936C1056 182.723 1056.23 182.392 1056.23 181.944C1056.22 181.645 1056.11 181.16 1055.9 180.488C1055.68 179.816 1055.51 179.341 1055.37 179.064L1056.7 178.344C1056.91 178.771 1057.12 179.341 1057.32 180.056C1057.54 180.771 1057.64 181.395 1057.64 181.928C1057.64 182.941 1057.29 183.709 1056.59 184.232C1055.88 184.744 1054.83 185 1053.42 185H1052.51V183.24ZM1054.01 175.128L1055.23 176.328C1054.69 176.861 1054.43 177.128 1054.43 177.128L1054.01 177.544L1052.81 176.328L1054.01 175.128ZM1056.86 175.128L1058.07 176.328C1057.54 176.861 1057.27 177.128 1057.27 177.128L1056.86 177.544L1055.66 176.328L1056.86 175.128ZM1063.08 188.072C1064.61 187.741 1065.78 187.32 1066.6 186.808C1067.42 186.307 1067.92 185.688 1068.09 184.952C1067.73 185.016 1067.34 185.048 1066.94 185.048C1066.21 185.048 1065.56 184.931 1064.97 184.696C1064.38 184.451 1063.97 184.077 1063.72 183.576C1063.54 183.192 1063.45 182.771 1063.45 182.312C1063.45 181.736 1063.57 181.16 1063.82 180.584C1064.07 180.008 1064.41 179.533 1064.83 179.16C1065.25 178.787 1065.71 178.6 1066.2 178.6C1066.83 178.6 1067.39 178.877 1067.88 179.432C1068.38 179.976 1068.77 180.68 1069.03 181.544C1069.31 182.397 1069.45 183.256 1069.45 184.12C1069.45 185.507 1068.93 186.68 1067.9 187.64C1066.87 188.6 1065.44 189.261 1063.61 189.624L1063.08 188.072ZM1064.89 182.6C1065.06 182.845 1065.35 183.027 1065.77 183.144C1066.19 183.261 1066.67 183.32 1067.21 183.32C1067.51 183.32 1067.8 183.304 1068.09 183.272C1067.96 182.461 1067.73 181.768 1067.39 181.192C1067.06 180.616 1066.65 180.301 1066.17 180.248C1065.94 180.216 1065.71 180.296 1065.48 180.488C1065.27 180.669 1065.09 180.909 1064.95 181.208C1064.83 181.507 1064.76 181.795 1064.76 182.072C1064.76 182.296 1064.8 182.472 1064.89 182.6ZM1075.36 190.264C1075.25 189.037 1075.17 187.96 1075.1 187.032C1075.04 186.104 1075.01 185.208 1075.01 184.344C1075.01 183.907 1075.01 183.592 1075.02 183.4C1075.04 182.888 1075.21 182.472 1075.53 182.152C1075.87 181.821 1076.26 181.656 1076.72 181.656C1076.9 181.656 1077.06 181.677 1077.2 181.72C1077.61 180.845 1078.07 180.136 1078.57 179.592C1079.08 179.048 1079.61 178.76 1080.17 178.728C1080.74 178.696 1081.23 178.845 1081.65 179.176C1082.07 179.507 1082.4 179.944 1082.62 180.488C1082.86 181.032 1082.97 181.603 1082.97 182.2C1082.97 182.787 1082.86 183.325 1082.64 183.816C1082.41 184.296 1082.08 184.659 1081.63 184.904C1081.42 185.021 1081.18 185.08 1080.91 185.08C1080.51 185.08 1079.99 184.957 1079.37 184.712C1078.76 184.456 1077.95 184.045 1076.94 183.48C1076.9 183.448 1076.85 183.432 1076.78 183.432C1076.62 183.432 1076.54 183.528 1076.53 183.72V184.2C1076.53 184.936 1076.55 185.72 1076.61 186.552C1076.66 187.384 1076.74 188.424 1076.85 189.672C1076.88 189.949 1076.89 190.163 1076.89 190.312C1076.91 190.472 1076.92 190.584 1076.93 190.648L1075.42 190.936L1075.36 190.264ZM1081.17 183.384C1081.34 183.299 1081.46 183.16 1081.53 182.968C1081.62 182.765 1081.66 182.531 1081.66 182.264C1081.66 181.773 1081.53 181.331 1081.28 180.936C1081.03 180.531 1080.71 180.328 1080.3 180.328C1079.76 180.328 1079.13 181.005 1078.41 182.36C1079.57 183.085 1080.39 183.448 1080.89 183.448C1081.02 183.448 1081.11 183.427 1081.17 183.384ZM1087.97 185C1086.84 185 1086.04 184.707 1085.59 184.12C1085.14 183.523 1084.91 182.579 1084.91 181.288C1084.91 180.115 1084.88 178.781 1084.82 177.288C1084.76 175.784 1084.68 174.675 1084.58 173.96L1086.1 173.624C1086.18 174.232 1086.25 175.203 1086.31 176.536C1086.36 177.859 1086.39 179.091 1086.39 180.232V180.936C1086.38 181.576 1086.4 182.051 1086.47 182.36C1086.53 182.669 1086.67 182.893 1086.9 183.032C1087.12 183.171 1087.48 183.24 1087.97 183.24H1088.05L1088.15 184.12L1088.05 185H1087.97ZM1087.9 183.24H1088.73C1089.56 183.24 1090.16 183.139 1090.52 182.936C1090.88 182.733 1091.06 182.419 1091.06 181.992C1091.06 181.704 1090.95 181.213 1090.73 180.52C1090.52 179.816 1090.34 179.331 1090.22 179.064L1091.54 178.344C1091.75 178.76 1091.96 179.341 1092.17 180.088C1092.38 180.824 1092.49 181.459 1092.49 181.992C1092.49 182.984 1092.16 183.736 1091.51 184.248C1090.87 184.749 1089.94 185 1088.73 185H1087.9V183.24ZM1089.14 176.216C1089.57 175.811 1089.99 175.395 1090.39 174.968L1091.64 176.216L1090.39 177.48L1089.14 176.216ZM1104.05 185.16C1102.23 185.16 1100.8 184.888 1099.77 184.344C1098.74 183.8 1098.18 183.027 1098.09 182.024C1098.08 181.939 1098.07 181.816 1098.07 181.656C1098.07 181.219 1098.13 180.755 1098.25 180.264C1098.36 179.763 1098.51 179.309 1098.68 178.904L1099.93 179.512C1099.63 180.355 1099.48 181.011 1099.48 181.48C1099.48 181.597 1099.48 181.688 1099.49 181.752C1099.58 182.275 1100.01 182.685 1100.79 182.984C1101.58 183.272 1102.7 183.416 1104.17 183.416C1105.48 183.416 1106.53 183.315 1107.33 183.112C1108.13 182.899 1108.76 182.573 1109.21 182.136C1109.65 181.688 1110.01 181.085 1110.26 180.328L1111.62 180.488C1111.43 181.075 1111.33 181.571 1111.33 181.976C1111.33 182.168 1111.36 182.355 1111.41 182.536C1111.56 183.005 1111.96 183.24 1112.6 183.24L1112.69 184.12L1112.6 185C1111.97 185 1111.43 184.819 1110.98 184.456C1110.54 184.093 1110.28 183.608 1110.2 183C1109.58 183.779 1108.77 184.333 1107.77 184.664C1106.77 184.995 1105.54 185.16 1104.05 185.16ZM1103.14 177.592L1104.36 178.808L1103.14 180.008L1101.94 178.808L1103.14 177.592ZM1105.99 177.592L1107.21 178.808L1105.99 180.008L1104.79 178.808L1105.99 177.592ZM1117.88 185C1116.89 185 1116.16 184.637 1115.68 183.912C1115.08 184.637 1114.03 185 1112.54 185H1112.44V183.24H1112.54C1113.98 183.24 1114.84 182.931 1115.13 182.312C1114.92 181.331 1114.75 180.568 1114.64 180.024L1115.93 179.608C1116.17 180.707 1116.37 181.56 1116.54 182.168C1116.66 182.541 1116.82 182.813 1117.04 182.984C1117.25 183.155 1117.53 183.24 1117.88 183.24H1117.98L1118.06 184.12L1117.98 185H1117.88ZM1112.28 187.672C1112.28 187.672 1112.56 187.395 1113.12 186.84L1113.53 186.424L1113.95 186.84C1114.5 187.395 1114.78 187.672 1114.78 187.672L1114.36 188.088C1113.81 188.643 1113.53 188.92 1113.53 188.92C1113.53 188.92 1113.25 188.643 1112.7 188.088L1112.28 187.672ZM1117.82 183.24H1118.49C1119.61 183.24 1120.4 183.139 1120.86 182.936C1121.32 182.723 1121.55 182.392 1121.55 181.944C1121.54 181.645 1121.42 181.16 1121.21 180.488C1121 179.816 1120.82 179.341 1120.68 179.064L1122.01 178.344C1122.22 178.771 1122.43 179.341 1122.63 180.056C1122.85 180.771 1122.95 181.395 1122.95 181.928C1122.95 182.941 1122.6 183.709 1121.9 184.232C1121.19 184.744 1120.14 185 1118.73 185H1117.82V183.24ZM1119.34 175.112L1120.49 176.248C1120.1 176.621 1119.71 177.005 1119.34 177.4C1119.34 177.4 1119.08 177.144 1118.57 176.632L1118.19 176.248L1119.34 175.112ZM1122.3 175.112C1122.68 175.485 1123.06 175.864 1123.43 176.248L1122.3 177.4C1122.3 177.4 1122.04 177.144 1121.53 176.632L1121.15 176.248L1122.3 175.112ZM1119.79 174.456C1119.79 174.456 1120.02 174.227 1120.47 173.768L1120.81 173.432L1121.83 174.456C1121.83 174.456 1121.61 174.685 1121.15 175.144L1120.81 175.48L1119.79 174.456ZM1035.36 217C1034.34 217 1033.6 216.643 1033.14 215.928C1032.52 216.12 1031.92 216.216 1031.33 216.216C1030.43 216.216 1029.7 216.008 1029.12 215.592C1028.55 215.165 1028.26 214.589 1028.26 213.864C1028.26 213.021 1028.59 212.307 1029.27 211.72C1029.95 211.123 1030.87 210.605 1032.02 210.168L1031.91 209.224L1033.39 208.92C1033.58 210.84 1033.73 212.301 1033.86 213.304C1033.91 213.848 1033.99 214.253 1034.08 214.52C1034.18 214.787 1034.32 214.973 1034.51 215.08C1034.71 215.187 1034.99 215.24 1035.36 215.24H1035.62L1035.71 216.12L1035.62 217H1035.36ZM1029.65 213.528C1029.62 213.816 1029.75 214.056 1030.03 214.248C1030.33 214.429 1030.73 214.52 1031.22 214.52C1031.63 214.52 1032.07 214.451 1032.53 214.312C1032.5 214.152 1032.46 213.891 1032.42 213.528C1032.32 212.696 1032.25 212.115 1032.21 211.784C1031.52 211.997 1030.92 212.269 1030.43 212.6C1029.94 212.92 1029.68 213.229 1029.65 213.528ZM1035.43 215.24H1035.56C1036.39 215.24 1037.03 215.203 1037.49 215.128C1037.95 215.053 1038.28 214.947 1038.48 214.808C1038.7 214.659 1038.84 214.451 1038.92 214.184C1038.96 214.045 1038.98 213.848 1038.98 213.592C1038.98 213.304 1038.95 212.979 1038.9 212.616C1038.85 212.243 1038.81 212.013 1038.8 211.928L1040.13 211.656C1040.28 212.371 1040.36 213.235 1040.36 214.248C1040.41 214.557 1040.55 214.803 1040.77 214.984C1041.01 215.155 1041.32 215.24 1041.72 215.24H1041.83L1041.92 216.12L1041.83 217H1041.72C1041.27 217 1040.86 216.893 1040.5 216.68C1040.15 216.456 1039.86 216.157 1039.64 215.784C1039.37 216.232 1038.92 216.547 1038.29 216.728C1037.67 216.909 1036.76 217 1035.56 217H1035.43V215.24ZM1039.67 219.624C1039.13 220.157 1038.87 220.424 1038.87 220.424L1038.45 220.84L1037.25 219.624L1038.45 218.424L1039.67 219.624ZM1036.82 219.624C1036.29 220.157 1036.02 220.424 1036.02 220.424L1035.6 220.84L1034.4 219.624L1035.6 218.424L1036.82 219.624ZM1041.66 215.24H1042.17C1042.77 215.24 1043.2 215.112 1043.45 214.856C1043.72 214.6 1043.85 214.2 1043.85 213.656C1043.85 213.037 1043.8 211.741 1043.69 209.768C1043.6 207.784 1043.51 206.515 1043.42 205.96L1044.94 205.624C1045.01 206.179 1045.09 207.48 1045.18 209.528C1045.29 211.565 1045.34 212.904 1045.34 213.544C1045.34 214.216 1045.21 214.813 1044.96 215.336C1044.7 215.859 1044.33 216.269 1043.85 216.568C1043.38 216.856 1042.84 217 1042.21 217H1041.66V215.24ZM1046.47 220.072C1048 219.741 1049.17 219.32 1049.99 218.808C1050.81 218.307 1051.31 217.688 1051.48 216.952C1051.12 217.016 1050.73 217.048 1050.33 217.048C1049.6 217.048 1048.95 216.931 1048.36 216.696C1047.77 216.451 1047.36 216.077 1047.11 215.576C1046.93 215.192 1046.84 214.771 1046.84 214.312C1046.84 213.736 1046.96 213.16 1047.21 212.584C1047.46 212.008 1047.8 211.533 1048.22 211.16C1048.64 210.787 1049.1 210.6 1049.59 210.6C1050.22 210.6 1050.78 210.877 1051.27 211.432C1051.77 211.976 1052.16 212.68 1052.42 213.544C1052.7 214.397 1052.84 215.256 1052.84 216.12C1052.84 217.507 1052.32 218.68 1051.29 219.64C1050.26 220.6 1048.84 221.261 1047 221.624L1046.47 220.072ZM1048.28 214.6C1048.45 214.845 1048.74 215.027 1049.16 215.144C1049.58 215.261 1050.06 215.32 1050.6 215.32C1050.9 215.32 1051.19 215.304 1051.48 215.272C1051.35 214.461 1051.12 213.768 1050.78 213.192C1050.45 212.616 1050.04 212.301 1049.56 212.248C1049.33 212.216 1049.1 212.296 1048.87 212.488C1048.66 212.669 1048.48 212.909 1048.34 213.208C1048.22 213.507 1048.15 213.795 1048.15 214.072C1048.15 214.296 1048.2 214.472 1048.28 214.6ZM1054.69 216.904C1054.78 216.264 1054.82 215.144 1054.82 213.544C1054.82 212.083 1054.78 210.584 1054.71 209.048C1054.64 207.501 1054.57 206.472 1054.48 205.96L1056 205.624C1056.08 206.157 1056.15 207.208 1056.23 208.776C1056.3 210.344 1056.34 211.859 1056.34 213.32C1056.34 214.984 1056.29 216.237 1056.18 217.08L1054.69 216.904ZM1068.27 217.16C1066.45 217.16 1065.02 216.888 1063.98 216.344C1062.96 215.8 1062.4 215.027 1062.3 214.024C1062.29 213.939 1062.29 213.816 1062.29 213.656C1062.29 213.219 1062.35 212.755 1062.46 212.264C1062.58 211.763 1062.73 211.309 1062.9 210.904L1064.14 211.512C1063.85 212.355 1063.7 213.011 1063.7 213.48C1063.7 213.597 1063.7 213.688 1063.71 213.752C1063.8 214.264 1064.23 214.669 1065.01 214.968C1065.79 215.256 1066.9 215.405 1068.35 215.416C1069.32 215.416 1070.16 215.352 1070.85 215.224C1071.54 215.085 1072.07 214.925 1072.43 214.744C1072.81 214.563 1073.01 214.397 1073.04 214.248C1072.99 213.789 1072.84 213.213 1072.61 212.52C1072.38 211.827 1072.21 211.341 1072.1 211.064L1073.42 210.344C1073.65 210.856 1073.86 211.496 1074.06 212.264C1074.28 213.021 1074.38 213.651 1074.38 214.152C1074.38 214.781 1074.12 215.325 1073.58 215.784C1073.06 216.232 1072.34 216.573 1071.41 216.808C1070.49 217.043 1069.45 217.16 1068.27 217.16ZM1066.88 209.416L1068.1 210.616C1067.56 211.149 1067.3 211.416 1067.3 211.416L1066.88 211.832L1065.68 210.616L1066.88 209.416ZM1069.73 209.416L1070.94 210.616C1070.41 211.149 1070.14 211.416 1070.14 211.416L1069.73 211.832L1068.53 210.616L1069.73 209.416ZM1079.41 217C1078.28 217 1077.48 216.707 1077.02 216.12C1076.58 215.523 1076.35 214.579 1076.35 213.288C1076.35 212.115 1076.32 210.781 1076.26 209.288C1076.2 207.784 1076.12 206.675 1076.02 205.96L1077.54 205.624C1077.62 206.232 1077.69 207.203 1077.74 208.536C1077.8 209.859 1077.82 211.091 1077.82 212.232V212.936C1077.81 213.576 1077.84 214.051 1077.9 214.36C1077.97 214.669 1078.11 214.893 1078.34 215.032C1078.56 215.171 1078.92 215.24 1079.41 215.24H1079.49L1079.58 216.12L1079.49 217H1079.41ZM1079.33 215.24H1079.53C1080.01 215.24 1080.62 215.229 1081.37 215.208C1080.88 214.653 1080.63 213.987 1080.63 213.208C1080.63 212.621 1080.78 212.072 1081.09 211.56C1081.4 211.048 1081.82 210.643 1082.34 210.344C1082.86 210.035 1083.42 209.88 1084.02 209.88C1084.5 209.88 1084.97 209.987 1085.43 210.2C1085.9 210.403 1086.33 210.675 1086.73 211.016L1086.12 212.2C1085.4 211.816 1084.74 211.624 1084.13 211.624C1083.73 211.624 1083.36 211.704 1083.03 211.864C1082.71 212.013 1082.46 212.211 1082.28 212.456C1082.1 212.701 1082.01 212.963 1082.01 213.24C1082.01 213.549 1082.12 213.837 1082.34 214.104C1082.57 214.371 1082.86 214.584 1083.24 214.744C1083.62 214.904 1084.04 214.979 1084.5 214.968C1085.44 214.84 1086.27 214.643 1086.98 214.376L1087.33 215.928C1086.46 216.291 1085.41 216.563 1084.18 216.744C1082.97 216.915 1081.41 217 1079.53 217H1079.33V215.24ZM1097.79 217C1096.51 217 1095.67 216.339 1095.26 215.016C1094.72 215.763 1093.94 216.339 1092.92 216.744C1091.91 217.139 1090.75 217.384 1089.45 217.48L1089.02 215.8C1089.52 215.747 1090 215.683 1090.46 215.608C1090.53 215.373 1090.57 215.069 1090.57 214.696C1090.57 213.896 1090.39 212.899 1090.03 211.704C1089.67 210.509 1089.19 209.24 1088.6 207.896L1089.88 207.016C1090.55 208.413 1091.06 209.741 1091.42 211C1091.78 212.248 1091.96 213.331 1091.96 214.248C1091.96 214.579 1091.93 214.931 1091.85 215.304C1093.65 214.749 1094.56 213.837 1094.56 212.568C1094.56 211.501 1094.51 210.483 1094.43 209.512C1094.35 208.531 1094.23 207.347 1094.06 205.96L1095.58 205.624C1095.74 206.872 1095.86 207.965 1095.95 208.904C1096.03 209.832 1096.08 210.771 1096.08 211.72L1096.06 212.504C1096.08 213.475 1096.21 214.173 1096.46 214.6C1096.72 215.027 1097.17 215.24 1097.82 215.24H1097.98V217H1097.79ZM1099.29 215.24C1099.62 214.632 1099.97 214.061 1100.33 213.528C1100.35 213.059 1100.36 212.664 1100.36 212.344C1100.36 211.299 1100.31 210.115 1100.2 208.792C1100.11 207.459 1100.01 206.52 1099.91 205.976L1101.43 205.624C1101.52 206.147 1101.6 206.92 1101.67 207.944C1101.76 208.957 1101.8 209.971 1101.8 210.984L1101.79 211.784C1102.98 210.621 1104.17 210.04 1105.34 210.04C1105.91 210.04 1106.43 210.163 1106.89 210.408C1107.36 210.653 1107.73 210.995 1107.99 211.432C1108.26 211.859 1108.39 212.349 1108.39 212.904C1108.39 213.715 1108.12 214.435 1107.58 215.064C1107.03 215.683 1106.29 216.163 1105.34 216.504C1104.4 216.835 1103.34 217 1102.15 217H1097.82V215.24H1099.29ZM1100.84 215.24C1101.07 215.251 1101.46 215.256 1102.01 215.256C1102.99 215.256 1103.86 215.144 1104.62 214.92C1105.39 214.696 1105.98 214.403 1106.39 214.04C1106.82 213.677 1107.03 213.293 1107.03 212.888C1107.03 212.557 1106.9 212.28 1106.62 212.056C1106.35 211.832 1105.98 211.72 1105.5 211.72C1104.75 211.72 1103.97 212.029 1103.15 212.648C1102.34 213.267 1101.57 214.131 1100.84 215.24ZM1110.24 216.904C1110.32 216.264 1110.37 215.144 1110.37 213.544C1110.37 212.083 1110.33 210.584 1110.26 209.048C1110.19 207.501 1110.12 206.472 1110.03 205.96L1111.55 205.624C1111.63 206.157 1111.7 207.208 1111.78 208.776C1111.85 210.344 1111.89 211.859 1111.89 213.32C1111.89 214.984 1111.83 216.237 1111.73 217.08L1110.24 216.904Z" fill="#151618"/>
<path d="M1078.04 143.687V103.877C1078.04 102.536 1076.96 101.449 1075.62 101.449H1053.07C1051.72 101.449 1050.64 102.536 1050.64 103.877V143.687C1050.64 145.027 1051.72 146.114 1053.07 146.114H1075.62C1076.96 146.114 1078.04 145.027 1078.04 143.687Z" stroke="#151618" stroke-width="1.5" stroke-miterlimit="10"/>
<path d="M1073.89 104.258H1054.56C1054.01 104.258 1053.56 104.706 1053.56 105.258V139.512C1053.56 140.065 1054.01 140.512 1054.56 140.512H1073.89C1074.44 140.512 1074.89 140.065 1074.89 139.512V105.258C1074.89 104.706 1074.44 104.258 1073.89 104.258Z" stroke="#151618" stroke-miterlimit="10"/>
<path d="M1071.03 116.098H1057.58C1057.1 116.098 1056.71 116.488 1056.71 116.97V123.825C1056.71 124.307 1057.1 124.698 1057.58 124.698H1071.03C1071.51 124.698 1071.9 124.307 1071.9 123.825V116.97C1071.9 116.488 1071.51 116.098 1071.03 116.098Z" fill="#DCE4FF"/>
<path d="M1076.84 144.989C1074.75 142.658 1075.44 142.94 1073.35 140.61C1070.58 137.51 1071.83 136.92 1071.81 134.118C1071.79 132.627 1067.94 123.328 1067.94 123.328C1066.52 120.44 1069.48 119.28 1070.39 121.816L1074.51 130.194C1073.75 128.341 1073.98 127.604 1074.8 127.257C1075.74 126.861 1076.47 126.758 1077.66 129.647C1077.66 129.647 1076.54 127.555 1078.25 126.851C1079.96 126.146 1081.21 129.192 1081.21 129.192C1081.21 129.192 1080.26 127.138 1081.99 126.758C1083.73 126.379 1084.66 129.669 1084.66 129.669C1085.89 132.752 1085.51 137.456 1087.21 141.477L1076.84 144.994V144.989Z" fill="white" stroke="#151618" stroke-width="1.5" stroke-miterlimit="10"/>
<path d="M1075.72 145.796L1077.08 148.851C1077.32 149.393 1077.95 149.637 1078.49 149.396L1089.02 144.718C1089.56 144.477 1089.81 143.843 1089.57 143.301L1088.21 140.246C1087.97 139.704 1087.33 139.46 1086.79 139.701L1076.26 144.38C1075.72 144.62 1075.48 145.254 1075.72 145.796Z" fill="#DCE4FF" stroke="#151618" stroke-width="1.5" stroke-miterlimit="10"/>
<path d="M1065.2 144.695C1065.92 144.695 1066.5 144.113 1066.5 143.394C1066.5 142.676 1065.92 142.094 1065.2 142.094C1064.48 142.094 1063.9 142.676 1063.9 143.394C1063.9 144.113 1064.48 144.695 1065.2 144.695Z" stroke="#2451E5" stroke-miterlimit="10"/>
<defs>
<filter id="filter0_d_10043_39439" x="5" y="11" width="1330" height="74" filterUnits="userSpaceOnUse" color-interpolation-filters="sRGB">
<feFlood flood-opacity="0" result="BackgroundImageFix"/>
<feColorMatrix in="SourceAlpha" type="matrix" values="0 0 0 0 0 0 0 0 0 0 0 0 0 0 0 0 0 0 127 0" result="hardAlpha"/>
<feOffset dy="6"/>
<feGaussianBlur stdDeviation="9.5"/>
<feComposite in2="hardAlpha" operator="out"/>
<feColorMatrix type="matrix" values="0 0 0 0 0.809583 0 0 0 0 0.809583 0 0 0 0 0.8375 0 0 0 1 0"/>
<feBlend mode="normal" in2="BackgroundImageFix" result="effect1_dropShadow_10043_39439"/>
<feBlend mode="normal" in="SourceGraphic" in2="effect1_dropShadow_10043_39439" result="shape"/>
</filter>
<filter id="filter1_d_10043_39439" x="228.75" y="4" width="77" height="77" filterUnits="userSpaceOnUse" color-interpolation-filters="sRGB">
<feFlood flood-opacity="0" result="BackgroundImageFix"/>
<feColorMatrix in="SourceAlpha" type="matrix" values="0 0 0 0 0 0 0 0 0 0 0 0 0 0 0 0 0 0 127 0" result="hardAlpha"/>
<feOffset/>
<feGaussianBlur stdDeviation="8"/>
<feComposite in2="hardAlpha" operator="out"/>
<feColorMatrix type="matrix" values="0 0 0 0 0 0 0 0 0 0 0 0 0 0 0 0 0 0 0.15 0"/>
<feBlend mode="normal" in2="BackgroundImageFix" result="effect1_dropShadow_10043_39439"/>
<feBlend mode="normal" in="SourceGraphic" in2="effect1_dropShadow_10043_39439" result="shape"/>
</filter>
<filter id="filter2_d_10043_39439" x="237.75" y="13" width="59" height="59" filterUnits="userSpaceOnUse" color-interpolation-filters="sRGB">
<feFlood flood-opacity="0" result="BackgroundImageFix"/>
<feColorMatrix in="SourceAlpha" type="matrix" values="0 0 0 0 0 0 0 0 0 0 0 0 0 0 0 0 0 0 127 0" result="hardAlpha"/>
<feOffset/>
<feGaussianBlur stdDeviation="8"/>
<feComposite in2="hardAlpha" operator="out"/>
<feColorMatrix type="matrix" values="0 0 0 0 0 0 0 0 0 0 0 0 0 0 0 0 0 0 0.15 0"/>
<feBlend mode="normal" in2="BackgroundImageFix" result="effect1_dropShadow_10043_39439"/>
<feBlend mode="normal" in="SourceGraphic" in2="effect1_dropShadow_10043_39439" result="shape"/>
</filter>
<filter id="filter3_d_10043_39439" x="502.25" y="4" width="77" height="77" filterUnits="userSpaceOnUse" color-interpolation-filters="sRGB">
<feFlood flood-opacity="0" result="BackgroundImageFix"/>
<feColorMatrix in="SourceAlpha" type="matrix" values="0 0 0 0 0 0 0 0 0 0 0 0 0 0 0 0 0 0 127 0" result="hardAlpha"/>
<feOffset/>
<feGaussianBlur stdDeviation="8"/>
<feComposite in2="hardAlpha" operator="out"/>
<feColorMatrix type="matrix" values="0 0 0 0 0 0 0 0 0 0 0 0 0 0 0 0 0 0 0.15 0"/>
<feBlend mode="normal" in2="BackgroundImageFix" result="effect1_dropShadow_10043_39439"/>
<feBlend mode="normal" in="SourceGraphic" in2="effect1_dropShadow_10043_39439" result="shape"/>
</filter>
<filter id="filter4_d_10043_39439" x="511.25" y="13" width="59" height="59" filterUnits="userSpaceOnUse" color-interpolation-filters="sRGB">
<feFlood flood-opacity="0" result="BackgroundImageFix"/>
<feColorMatrix in="SourceAlpha" type="matrix" values="0 0 0 0 0 0 0 0 0 0 0 0 0 0 0 0 0 0 127 0" result="hardAlpha"/>
<feOffset/>
<feGaussianBlur stdDeviation="8"/>
<feComposite in2="hardAlpha" operator="out"/>
<feColorMatrix type="matrix" values="0 0 0 0 0 0 0 0 0 0 0 0 0 0 0 0 0 0 0.15 0"/>
<feBlend mode="normal" in2="BackgroundImageFix" result="effect1_dropShadow_10043_39439"/>
<feBlend mode="normal" in="SourceGraphic" in2="effect1_dropShadow_10043_39439" result="shape"/>
</filter>
<filter id="filter5_d_10043_39439" x="765.75" y="4" width="77" height="77" filterUnits="userSpaceOnUse" color-interpolation-filters="sRGB">
<feFlood flood-opacity="0" result="BackgroundImageFix"/>
<feColorMatrix in="SourceAlpha" type="matrix" values="0 0 0 0 0 0 0 0 0 0 0 0 0 0 0 0 0 0 127 0" result="hardAlpha"/>
<feOffset/>
<feGaussianBlur stdDeviation="8"/>
<feComposite in2="hardAlpha" operator="out"/>
<feColorMatrix type="matrix" values="0 0 0 0 0 0 0 0 0 0 0 0 0 0 0 0 0 0 0.15 0"/>
<feBlend mode="normal" in2="BackgroundImageFix" result="effect1_dropShadow_10043_39439"/>
<feBlend mode="normal" in="SourceGraphic" in2="effect1_dropShadow_10043_39439" result="shape"/>
</filter>
<filter id="filter6_d_10043_39439" x="774.75" y="13" width="59" height="59" filterUnits="userSpaceOnUse" color-interpolation-filters="sRGB">
<feFlood flood-opacity="0" result="BackgroundImageFix"/>
<feColorMatrix in="SourceAlpha" type="matrix" values="0 0 0 0 0 0 0 0 0 0 0 0 0 0 0 0 0 0 127 0" result="hardAlpha"/>
<feOffset/>
<feGaussianBlur stdDeviation="8"/>
<feComposite in2="hardAlpha" operator="out"/>
<feColorMatrix type="matrix" values="0 0 0 0 0 0 0 0 0 0 0 0 0 0 0 0 0 0 0.15 0"/>
<feBlend mode="normal" in2="BackgroundImageFix" result="effect1_dropShadow_10043_39439"/>
<feBlend mode="normal" in="SourceGraphic" in2="effect1_dropShadow_10043_39439" result="shape"/>
</filter>
<filter id="filter7_d_10043_39439" x="1030.75" y="4" width="77" height="77" filterUnits="userSpaceOnUse" color-interpolation-filters="sRGB">
<feFlood flood-opacity="0" result="BackgroundImageFix"/>
<feColorMatrix in="SourceAlpha" type="matrix" values="0 0 0 0 0 0 0 0 0 0 0 0 0 0 0 0 0 0 127 0" result="hardAlpha"/>
<feOffset/>
<feGaussianBlur stdDeviation="8"/>
<feComposite in2="hardAlpha" operator="out"/>
<feColorMatrix type="matrix" values="0 0 0 0 0 0 0 0 0 0 0 0 0 0 0 0 0 0 0.15 0"/>
<feBlend mode="normal" in2="BackgroundImageFix" result="effect1_dropShadow_10043_39439"/>
<feBlend mode="normal" in="SourceGraphic" in2="effect1_dropShadow_10043_39439" result="shape"/>
</filter>
<filter id="filter8_d_10043_39439" x="1039.75" y="17" width="59" height="59" filterUnits="userSpaceOnUse" color-interpolation-filters="sRGB">
<feFlood flood-opacity="0" result="BackgroundImageFix"/>
<feColorMatrix in="SourceAlpha" type="matrix" values="0 0 0 0 0 0 0 0 0 0 0 0 0 0 0 0 0 0 127 0" result="hardAlpha"/>
<feOffset dy="4"/>
<feGaussianBlur stdDeviation="8"/>
<feComposite in2="hardAlpha" operator="out"/>
<feColorMatrix type="matrix" values="0 0 0 0 0 0 0 0 0 0 0 0 0 0 0 0 0 0 0.15 0"/>
<feBlend mode="normal" in2="BackgroundImageFix" result="effect1_dropShadow_10043_39439"/>
<feBlend mode="normal" in="SourceGraphic" in2="effect1_dropShadow_10043_39439" result="shape"/>
</filter>
</defs>
</svg>
