<svg width="120" height="60" viewBox="0 0 120 60" fill="none" xmlns="http://www.w3.org/2000/svg">
<path d="M23.2304 23.2305C20.1063 20.1063 14.9907 20.0787 12.3096 23.5905C5.97967 31.8813 1.91896 41.6848 0.532371 52.0232C-0.0549477 56.4023 3.58172 60 8 60L8.94584 60C13.3641 60 16.8705 56.3878 17.6868 52.0456C18.7877 46.1898 21.0932 40.6238 24.4555 35.7047C26.9486 32.0571 27.0234 27.0235 23.8993 23.8993L23.2304 23.2305Z" fill="url(#paint0_linear_10689_28451)"/>
<path d="M96.7695 23.2304C99.8937 20.1062 99.9215 14.9911 96.4097 12.31C92.2898 9.1646 87.7706 6.55941 82.961 4.56722C75.6815 1.55194 67.8793 -1.78461e-06 60 0C52.1207 1.78462e-06 44.3185 1.55195 37.039 4.56723C32.2294 6.55942 27.7102 9.16461 23.5903 12.31C20.0785 14.9912 20.1062 20.1063 23.2304 23.2305L23.8992 23.8993C27.0234 27.0235 32.0569 26.949 35.7045 24.4558C38.1521 22.7828 40.7717 21.3631 43.5239 20.2231C48.7474 18.0595 54.346 16.9458 60 16.9458C65.6539 16.9458 71.2525 18.0595 76.4761 20.2231C79.2283 21.3631 81.8479 22.7828 84.2954 24.4558C87.943 26.949 92.9765 27.0234 96.1007 23.8993L96.7695 23.2304Z" fill="url(#paint1_linear_10689_28451)"/>
<path d="M112 60C116.418 60 120.055 56.4023 119.468 52.0232C118.081 41.6848 114.02 31.8813 107.69 23.5905C105.009 20.0787 99.8938 20.1063 96.7696 23.2305L96.1008 23.8993C92.9766 27.0235 93.0514 32.0571 95.5445 35.7047C98.9068 40.6238 101.212 46.1898 102.313 52.0456C103.129 56.3878 106.636 60 111.054 60H112Z" fill="url(#paint2_linear_10689_28451)"/>
<path d="M97.7427 55.0305C98.191 54.9715 98.5075 54.56 98.439 54.113C97.055 45.0742 92.5275 36.8021 85.6394 30.7615C78.546 24.5407 69.433 21.1108 59.9982 21.1108C50.5634 21.1109 41.4504 24.5408 34.357 30.7616C27.469 36.8022 22.9415 45.0744 21.5575 54.1131C21.489 54.5601 21.8055 54.9716 22.2538 55.0306V55.0306C22.7021 55.0897 23.1125 54.7739 23.1814 54.327C24.5132 45.6821 28.8474 37.7714 35.4367 31.9927C42.2314 26.0339 50.9607 22.7484 59.9982 22.7484C69.0357 22.7483 77.765 26.0338 84.5597 31.9926C91.1491 37.7713 95.4833 45.6819 96.8152 54.3268C96.884 54.7737 97.2944 55.0895 97.7427 55.0305V55.0305Z" fill="#84BAFF" fill-opacity="0.46"/>
<defs>
<linearGradient id="paint0_linear_10689_28451" x1="60" y1="28.6154" x2="60" y2="68.0769" gradientUnits="userSpaceOnUse">
<stop stop-color="#258574"/>
<stop offset="1" stop-color="#258574" stop-opacity="0"/>
</linearGradient>
<linearGradient id="paint1_linear_10689_28451" x1="103.154" y1="0" x2="0" y2="0" gradientUnits="userSpaceOnUse">
<stop stop-color="#EB6E02"/>
<stop offset="1" stop-color="#EB6E02" stop-opacity="0"/>
</linearGradient>
<linearGradient id="paint2_linear_10689_28451" x1="60" y1="12.6923" x2="60" y2="55.8462" gradientUnits="userSpaceOnUse">
<stop stop-color="#D90201" stop-opacity="0"/>
<stop offset="1" stop-color="#D90201"/>
</linearGradient>
</defs>
</svg>
