<svg width="21" height="35" viewBox="0 0 21 35" fill="none" xmlns="http://www.w3.org/2000/svg">
<path d="M9.12364 24.3889C9.22378 24.379 9.32392 24.369 9.42406 24.359C10.005 24.3425 10.5707 24.4031 11.1121 24.5372C11.481 24.6285 11.86 24.3358 11.8153 23.9585L9.56619 4.97632C9.49518 4.37706 8.6201 4.39324 8.5713 4.99472L7.01729 24.1471C6.98532 24.5411 7.40696 24.8225 7.7802 24.6923C8.20879 24.5428 8.6566 24.4417 9.12364 24.3889Z" fill="#1242E0"/>
<path fill-rule="evenodd" clip-rule="evenodd" d="M13.1198 31.2074C12.2693 32.1303 11.139 32.6309 9.87917 32.6854C8.62912 32.7158 7.47238 32.3055 6.55922 31.4308C5.63629 30.5803 5.1259 29.4742 5.07137 28.2144C5.03555 27.1872 5.30962 26.2287 5.88846 25.4213C6.0053 25.2246 6.14633 25.0377 6.31156 24.8605C6.70681 24.4385 7.14865 24.1103 7.63703 23.8759C8.15456 23.6158 8.71539 23.4575 9.31955 23.4011C9.39708 23.3949 9.47462 23.3886 9.55215 23.3824C10.2305 23.3747 10.8842 23.4977 11.4891 23.7416C12.0053 23.9498 12.4663 24.2483 12.8721 24.637C13.5293 25.2397 13.973 25.9532 14.2032 26.7774C14.2861 27.1297 14.3351 27.4965 14.3502 27.8776C14.4047 29.1375 13.9703 30.2844 13.1198 31.2074ZM11.6557 28.1412C11.6591 28.0863 11.6544 28.0282 11.6417 27.9668C11.6238 27.4532 11.4217 26.9778 11.0302 26.623C10.9207 26.5226 10.7999 26.4269 10.6677 26.3361C10.3387 26.1753 10.0046 26.0968 9.64129 26.0909C9.11793 26.133 8.66675 26.3449 8.28776 26.7266C7.94272 27.0938 7.77174 27.5875 7.78965 28.1011C7.78626 28.156 7.79093 28.2141 7.80368 28.2755C7.81642 28.3369 7.82592 28.4064 7.83216 28.484C7.90862 28.8524 8.11113 29.1872 8.40109 29.4449C8.78274 29.8238 9.25223 29.9851 9.79003 29.9769C10.3036 29.959 10.7888 29.7327 11.1338 29.3655C11.4449 29.0127 11.635 28.6111 11.6557 28.1412Z" fill="#1242E0"/>
</svg>
