<svg width="1342" height="17" viewBox="0 0 1342 17" fill="none" xmlns="http://www.w3.org/2000/svg">
<path d="M1 8.54736L1341 8.54725" stroke="#808080" stroke-width="2" stroke-linecap="round" stroke-linejoin="round"/>
<path d="M1140 9.00639C1140 12.6846 1136.72 15.8091 1132.5 15.8091C1128.28 15.8091 1125 12.6846 1125 9.00639C1125 5.32817 1128.28 2.20361 1132.5 2.20361C1136.72 2.20361 1140 5.32817 1140 9.00639Z" fill="white" stroke="#808080" stroke-width="2"/>
<path d="M230 8.08842C230 11.7666 226.724 14.8912 222.5 14.8912C218.276 14.8912 215 11.7666 215 8.08842C215 4.4102 218.276 1.28564 222.5 1.28564C226.724 1.28564 230 4.4102 230 8.08842Z" fill="white" stroke="#808080" stroke-width="2"/>
<path d="M536 8.08842C536 11.7666 532.724 14.8912 528.5 14.8912C524.276 14.8912 521 11.7666 521 8.08842C521 4.4102 524.276 1.28564 528.5 1.28564C532.724 1.28564 536 4.4102 536 8.08842Z" fill="white" stroke="#808080" stroke-width="2"/>
<path d="M842 8.08842C842 11.7666 838.724 14.8912 834.5 14.8912C830.276 14.8912 827 11.7666 827 8.08842C827 4.4102 830.276 1.28564 834.5 1.28564C838.724 1.28564 842 4.4102 842 8.08842Z" fill="white" stroke="#808080" stroke-width="2"/>
</svg>
